<svg id="svg" version="1.1" width="1000" height="290" xmlns="http://www.w3.org/2000/svg" xmlns:xlink="http://www.w3.org/1999/xlink" style="display: block;"><g id="svgg"><path id="path0" d="M110.800 68.600 C 110.800 68.930,111.092 69.200,111.449 69.200 C 111.980 69.200,112.008 69.091,111.600 68.600 C 111.326 68.270,111.034 68.000,110.951 68.000 C 110.868 68.000,110.800 68.270,110.800 68.600 M4.000 112.951 C 4.000 113.034,4.270 113.326,4.600 113.600 C 5.091 114.008,5.200 113.980,5.200 113.449 C 5.200 113.092,4.930 112.800,4.600 112.800 C 4.270 112.800,4.000 112.868,4.000 112.951 " stroke="none" fill="#ffffff" fill-rule="evenodd"></path><path id="path1" d="M49.845 15.388 C 49.480 15.944,49.359 16.400,49.577 16.400 C 50.020 16.400,50.964 14.830,50.687 14.553 C 50.589 14.455,50.210 14.831,49.845 15.388 M320.400 34.600 C 319.992 35.091,320.020 35.200,320.551 35.200 C 320.908 35.200,321.200 34.930,321.200 34.600 C 321.200 34.270,321.132 34.000,321.049 34.000 C 320.966 34.000,320.674 34.270,320.400 34.600 M340.000 46.951 C 340.000 47.034,340.270 47.326,340.600 47.600 C 341.091 48.008,341.200 47.980,341.200 47.449 C 341.200 47.092,340.930 46.800,340.600 46.800 C 340.270 46.800,340.000 46.868,340.000 46.951 M364.000 48.951 C 364.000 49.034,364.270 49.326,364.600 49.600 C 365.091 50.008,365.200 49.980,365.200 49.449 C 365.200 49.092,364.930 48.800,364.600 48.800 C 364.270 48.800,364.000 48.868,364.000 48.951 M364.400 56.600 C 363.992 57.091,364.020 57.200,364.551 57.200 C 364.908 57.200,365.200 56.930,365.200 56.600 C 365.200 56.270,365.132 56.000,365.049 56.000 C 364.966 56.000,364.674 56.270,364.400 56.600 M356.400 68.600 C 355.992 69.091,356.020 69.200,356.551 69.200 C 356.908 69.200,357.200 68.930,357.200 68.600 C 357.200 68.270,357.132 68.000,357.049 68.000 C 356.966 68.000,356.674 68.270,356.400 68.600 M97.592 69.810 C 97.314 70.145,97.197 70.531,97.333 70.667 C 97.624 70.957,98.800 70.063,98.800 69.551 C 98.800 69.000,98.148 69.140,97.592 69.810 M47.200 71.417 C 47.200 71.536,47.547 72.006,47.971 72.461 C 48.725 73.270,48.924 72.754,48.265 71.700 C 47.955 71.203,47.200 71.002,47.200 71.417 M240.000 72.951 C 240.000 73.034,240.270 73.326,240.600 73.600 C 241.091 74.008,241.200 73.980,241.200 73.449 C 241.200 73.092,240.930 72.800,240.600 72.800 C 240.270 72.800,240.000 72.868,240.000 72.951 M148.811 75.175 C 148.300 75.507,148.307 75.589,148.862 75.802 C 149.829 76.173,153.400 75.857,153.400 75.400 C 153.400 74.872,149.567 74.684,148.811 75.175 M174.898 75.066 C 173.665 75.563,175.105 76.000,177.975 76.000 C 180.267 76.000,181.235 75.840,181.600 75.400 C 182.099 74.799,176.280 74.508,174.898 75.066 M216.345 75.158 C 216.806 75.449,216.806 75.537,216.345 75.720 C 215.943 75.880,215.971 75.945,216.451 75.968 C 216.809 75.986,217.326 75.730,217.600 75.400 C 218.023 74.890,217.925 74.801,216.949 74.806 C 216.148 74.810,215.965 74.917,216.345 75.158 M248.898 75.066 C 247.865 75.482,248.911 75.999,250.724 75.968 C 251.756 75.951,252.374 75.846,252.098 75.734 C 251.821 75.623,251.697 75.367,251.821 75.166 C 252.055 74.787,249.783 74.709,248.898 75.066 M254.345 75.130 C 254.806 75.445,254.806 75.541,254.345 75.745 C 254.033 75.883,254.142 75.944,254.600 75.887 C 255.575 75.767,255.519 75.047,254.521 74.878 C 253.965 74.785,253.925 74.842,254.345 75.130 M268.399 75.399 C 268.812 75.896,269.591 76.006,272.064 75.915 C 276.529 75.751,276.229 75.026,271.638 74.884 C 268.250 74.780,267.928 74.831,268.399 75.399 M358.811 75.176 C 358.298 75.508,358.303 75.588,358.849 75.797 C 359.844 76.179,365.400 75.842,365.400 75.400 C 365.400 74.877,359.579 74.679,358.811 75.176 M384.400 75.400 C 384.783 75.862,385.842 76.000,389.000 76.000 C 392.158 76.000,393.217 75.862,393.600 75.400 C 394.038 74.872,393.486 74.800,389.000 74.800 C 384.514 74.800,383.962 74.872,384.400 75.400 M29.200 95.649 C 29.200 96.358,29.299 96.416,29.800 96.000 C 30.130 95.726,30.400 95.344,30.400 95.151 C 30.400 94.958,30.130 94.800,29.800 94.800 C 29.455 94.800,29.200 95.161,29.200 95.649 M72.000 112.951 C 72.000 113.034,72.270 113.326,72.600 113.600 C 73.091 114.008,73.200 113.980,73.200 113.449 C 73.200 113.092,72.930 112.800,72.600 112.800 C 72.270 112.800,72.000 112.868,72.000 112.951 " stroke="none" fill="#00ffff" fill-rule="evenodd"></path><path id="path2" d="M49.923 14.300 C 48.849 15.550,48.525 16.299,49.345 15.633 C 50.016 15.088,50.990 13.600,50.676 13.600 C 50.592 13.600,50.253 13.915,49.923 14.300 M33.400 91.506 C 33.036 91.774,32.648 92.800,32.911 92.800 C 32.972 92.800,33.330 92.440,33.707 92.000 C 34.377 91.217,34.194 90.923,33.400 91.506 " stroke="none" fill="#80ffff" fill-rule="evenodd"></path><path id="path3" d="M99.967 2.033 C 99.508 2.492,99.244 2.977,99.379 3.112 C 99.514 3.247,100.110 2.872,100.703 2.279 C 101.296 1.685,101.561 1.200,101.291 1.200 C 101.021 1.200,100.425 1.575,99.967 2.033 M111.200 1.551 C 111.200 2.063,112.376 2.957,112.667 2.667 C 112.957 2.376,112.063 1.200,111.551 1.200 C 111.358 1.200,111.200 1.358,111.200 1.551 M97.844 3.813 C 97.486 4.171,97.317 4.666,97.470 4.913 C 97.659 5.219,97.806 5.177,97.933 4.780 C 98.036 4.461,98.313 4.075,98.548 3.922 C 98.784 3.769,98.868 3.535,98.736 3.403 C 98.604 3.270,98.202 3.455,97.844 3.813 M113.675 3.448 C 114.047 3.558,114.442 3.953,114.552 4.325 C 114.699 4.814,114.732 4.781,114.672 4.205 C 114.625 3.738,114.262 3.375,113.795 3.328 C 113.219 3.268,113.186 3.301,113.675 3.448 M96.033 5.967 C 95.575 6.425,95.200 7.084,95.200 7.431 C 95.200 7.848,95.555 7.640,96.250 6.814 C 97.454 5.382,97.284 4.716,96.033 5.967 M115.134 5.551 C 115.428 5.737,115.653 6.004,115.634 6.145 C 115.615 6.285,115.728 6.387,115.884 6.370 C 116.041 6.354,116.298 6.669,116.456 7.070 C 116.705 7.703,116.748 7.710,116.772 7.129 C 116.804 6.362,115.774 5.197,115.071 5.206 C 114.757 5.210,114.778 5.325,115.134 5.551 M265.941 15.637 C 265.671 15.803,265.411 16.501,265.364 17.187 C 265.292 18.221,265.374 18.354,265.844 17.964 C 266.201 17.667,266.275 17.329,266.045 17.047 C 265.699 16.623,266.455 15.526,267.025 15.625 C 267.158 15.648,267.342 15.592,267.433 15.500 C 267.728 15.205,266.449 15.323,265.941 15.637 M116.350 16.200 C 116.322 16.310,116.278 16.570,116.250 16.777 C 116.184 17.272,114.323 19.000,113.855 19.000 C 113.655 19.000,113.337 19.418,113.148 19.929 C 112.680 21.195,113.988 20.977,114.634 19.681 C 114.885 19.180,115.386 18.551,115.749 18.285 C 116.343 17.849,117.013 16.000,116.577 16.000 C 116.480 16.000,116.378 16.090,116.350 16.200 M89.033 21.500 C 88.868 21.665,88.568 21.800,88.367 21.800 C 88.165 21.800,87.985 21.980,87.966 22.200 C 87.947 22.420,87.722 22.854,87.466 23.165 C 87.071 23.644,87.137 23.658,87.891 23.256 C 88.381 22.995,88.972 22.426,89.205 21.991 C 89.639 21.180,89.565 20.968,89.033 21.500 M236.370 22.232 C 235.474 23.186,234.452 34.047,235.340 33.187 C 235.461 33.070,235.590 30.955,235.626 28.487 C 235.678 24.995,235.814 24.000,236.239 24.000 C 236.539 24.000,236.906 23.505,237.054 22.900 C 237.202 22.295,237.520 21.668,237.762 21.506 C 238.067 21.301,238.070 21.210,237.770 21.206 C 237.533 21.203,236.903 21.664,236.370 22.232 M106.000 22.400 C 105.515 22.714,105.572 22.789,106.300 22.794 C 106.795 22.797,107.200 22.620,107.200 22.400 C 107.200 21.899,106.776 21.899,106.000 22.400 M101.500 24.276 C 101.115 24.376,100.800 24.609,100.800 24.792 C 100.800 25.204,102.331 24.835,102.630 24.352 C 102.857 23.984,102.664 23.971,101.500 24.276 M8.500 27.612 C 7.462 28.030,7.282 29.200,8.256 29.200 C 8.617 29.200,9.137 28.892,9.413 28.515 C 9.722 28.092,10.731 27.732,12.057 27.572 L 14.200 27.313 11.800 27.282 C 10.480 27.265,8.995 27.413,8.500 27.612 M14.793 27.496 C 15.604 27.814,16.401 28.650,16.184 28.956 C 16.087 29.094,16.230 29.013,16.503 28.776 C 17.083 28.274,15.891 27.178,14.824 27.232 C 14.292 27.259,14.287 27.297,14.793 27.496 M73.782 27.782 C 73.572 28.029,73.352 28.494,73.294 28.816 C 73.204 29.316,73.264 29.314,73.713 28.800 C 74.001 28.470,74.459 28.005,74.732 27.767 C 75.122 27.425,75.115 27.333,74.696 27.333 C 74.404 27.333,73.993 27.535,73.782 27.782 M71.338 29.817 C 70.966 30.788,71.402 30.882,72.198 30.002 C 72.860 29.270,72.865 29.200,72.249 29.200 C 71.878 29.200,71.468 29.478,71.338 29.817 M69.829 31.829 C 68.951 32.706,69.039 33.070,69.932 32.261 C 70.335 31.897,70.814 31.734,70.997 31.899 C 71.179 32.065,71.199 31.975,71.041 31.700 C 70.673 31.061,70.587 31.070,69.829 31.829 M161.033 31.500 C 160.868 31.665,160.540 31.800,160.305 31.800 C 160.069 31.800,159.830 32.115,159.774 32.500 C 159.639 33.414,160.216 33.395,160.877 32.463 C 161.165 32.058,161.670 31.622,162.000 31.495 C 162.514 31.297,162.509 31.259,161.967 31.232 C 161.618 31.214,161.198 31.335,161.033 31.500 M170.604 31.607 C 170.742 31.830,171.023 31.909,171.228 31.783 C 171.432 31.656,171.600 31.743,171.600 31.976 C 171.600 32.209,171.870 32.400,172.200 32.400 C 172.992 32.400,172.970 31.751,172.167 31.443 C 171.186 31.066,170.326 31.156,170.604 31.607 M215.500 32.078 C 215.983 32.561,216.498 32.835,216.646 32.687 C 217.035 32.298,216.013 31.200,215.262 31.200 C 214.748 31.200,214.795 31.372,215.500 32.078 M281.967 32.033 C 280.716 33.284,281.382 33.454,282.814 32.250 C 283.640 31.555,283.848 31.200,283.431 31.200 C 283.084 31.200,282.425 31.575,281.967 32.033 M339.400 31.600 C 340.501 32.073,340.892 32.073,340.600 31.600 C 340.464 31.380,339.958 31.213,339.476 31.228 C 338.631 31.255,338.629 31.269,339.400 31.600 M94.400 31.976 C 94.400 32.256,94.143 32.387,93.829 32.267 C 93.174 32.015,92.625 32.585,92.206 33.950 C 92.006 34.602,92.053 34.814,92.357 34.626 C 92.601 34.476,92.800 34.003,92.800 33.576 C 92.800 33.075,93.075 32.800,93.576 32.800 C 94.389 32.800,95.052 32.119,94.640 31.707 C 94.508 31.575,94.400 31.696,94.400 31.976 M1.848 33.810 C 1.491 34.166,1.200 34.658,1.200 34.904 C 1.200 35.150,1.578 34.945,2.040 34.449 C 3.004 33.414,2.828 32.829,1.848 33.810 M25.300 33.497 C 26.785 33.574,29.215 33.574,30.700 33.497 C 32.185 33.420,30.970 33.357,28.000 33.357 C 25.030 33.357,23.815 33.420,25.300 33.497 M51.100 33.499 C 54.455 33.566,59.945 33.566,63.300 33.499 C 66.655 33.432,63.910 33.378,57.200 33.378 C 50.490 33.378,47.745 33.432,51.100 33.499 M176.964 34.084 C 177.353 34.681,178.018 35.279,178.442 35.413 C 178.865 35.548,179.116 35.812,178.999 36.001 C 178.774 36.365,179.467 36.927,180.295 37.053 C 180.660 37.108,180.682 36.928,180.381 36.364 C 180.156 35.944,179.804 35.600,179.600 35.600 C 179.395 35.600,178.559 35.015,177.742 34.300 C 176.331 33.065,176.292 33.054,176.964 34.084 M197.835 34.200 C 197.325 34.750,196.625 35.200,196.278 35.200 C 195.675 35.200,194.964 35.897,195.262 36.196 C 195.542 36.476,198.413 34.937,199.214 34.077 C 199.889 33.353,199.921 33.200,199.396 33.200 C 199.047 33.200,198.345 33.650,197.835 34.200 M220.469 34.077 C 220.554 34.678,220.914 35.045,221.498 35.128 C 222.587 35.282,222.392 34.437,221.161 33.669 C 220.413 33.201,220.350 33.239,220.469 34.077 M299.200 33.600 C 299.200 33.820,299.417 33.955,299.682 33.900 C 299.947 33.845,300.172 34.010,300.182 34.267 C 300.209 34.967,300.800 35.425,300.800 34.747 C 300.800 34.115,300.042 33.200,299.520 33.200 C 299.344 33.200,299.200 33.380,299.200 33.600 M345.200 33.551 C 345.200 34.012,346.398 35.003,346.406 34.549 C 346.409 34.357,346.587 34.470,346.800 34.800 C 347.027 35.152,347.190 35.205,347.194 34.929 C 347.201 34.371,346.102 33.200,345.571 33.200 C 345.367 33.200,345.200 33.358,345.200 33.551 M356.097 34.166 C 355.105 35.213,355.232 36.175,356.447 36.825 C 357.042 37.144,357.200 37.091,357.200 36.571 C 357.200 36.178,356.979 35.999,356.650 36.126 C 355.963 36.389,355.999 35.212,356.700 34.471 C 357.133 34.014,357.394 33.187,357.100 33.207 C 357.045 33.211,356.594 33.642,356.097 34.166 M379.611 33.787 C 378.759 34.813,379.362 35.116,380.314 34.138 C 380.941 33.495,381.051 33.200,380.663 33.200 C 380.352 33.200,379.879 33.464,379.611 33.787 M371.376 35.420 C 372.236 36.062,372.968 36.196,372.630 35.648 C 372.510 35.455,372.005 35.194,371.506 35.068 C 370.632 34.848,370.627 34.860,371.376 35.420 M223.452 35.791 C 223.580 36.126,223.857 36.400,224.066 36.400 C 224.276 36.400,224.319 36.608,224.162 36.862 C 223.985 37.148,224.052 37.215,224.338 37.038 C 225.023 36.615,224.900 36.082,224.009 35.605 C 223.364 35.259,223.261 35.294,223.452 35.791 M348.406 35.876 C 348.403 36.358,348.580 36.864,348.800 37.000 C 349.309 37.315,349.309 36.388,348.800 35.600 C 348.485 35.112,348.411 35.164,348.406 35.876 M378.043 36.823 C 376.926 37.753,377.028 38.048,378.300 37.566 C 378.795 37.379,379.200 36.950,379.200 36.613 C 379.200 35.854,379.209 35.853,378.043 36.823 M194.400 37.156 C 193.723 37.343,193.369 37.751,193.304 38.416 C 193.209 39.393,193.211 39.394,193.591 38.500 C 193.802 38.005,194.239 37.600,194.564 37.600 C 194.888 37.600,195.264 37.420,195.400 37.200 C 195.536 36.980,195.592 36.818,195.524 36.840 C 195.456 36.862,194.950 37.004,194.400 37.156 M357.232 38.726 C 357.178 39.624,357.996 40.800,358.675 40.800 C 359.214 40.800,359.188 40.682,358.524 40.100 C 358.085 39.715,357.621 39.130,357.494 38.800 C 357.334 38.383,357.254 38.360,357.232 38.726 M181.200 39.600 C 181.200 39.820,181.489 40.000,181.843 40.000 C 182.216 40.000,182.399 40.225,182.280 40.536 C 182.167 40.831,182.230 41.325,182.420 41.633 C 182.723 42.123,182.732 41.385,182.446 39.500 C 182.377 39.046,181.200 39.140,181.200 39.600 M304.800 39.524 C 304.800 40.040,306.364 41.369,306.643 41.091 C 306.773 40.960,306.762 40.662,306.618 40.429 C 306.243 39.822,304.800 39.104,304.800 39.524 M192.048 40.549 L 191.157 41.497 192.179 41.302 C 192.843 41.175,193.200 40.844,193.200 40.353 C 193.200 39.391,193.123 39.404,192.048 40.549 M391.700 41.300 C 391.755 41.575,391.605 41.765,391.367 41.722 C 391.128 41.679,390.933 41.895,390.933 42.201 C 390.933 42.602,391.124 42.655,391.620 42.390 C 392.550 41.892,392.940 40.800,392.187 40.800 C 391.864 40.800,391.645 41.025,391.700 41.300 M226.905 42.029 C 226.957 42.950,228.800 44.483,228.800 43.605 C 228.800 43.429,228.526 43.180,228.190 43.052 C 227.855 42.923,227.416 42.409,227.214 41.909 C 226.854 41.017,226.848 41.019,226.905 42.029 M313.611 41.787 C 312.759 42.813,313.362 43.116,314.314 42.138 C 314.941 41.495,315.051 41.200,314.663 41.200 C 314.352 41.200,313.879 41.464,313.611 41.787 M1.200 43.262 C 1.200 44.013,2.298 45.035,2.687 44.646 C 2.835 44.498,2.561 43.983,2.078 43.500 C 1.372 42.795,1.200 42.748,1.200 43.262 M22.121 43.280 C 22.290 43.763,22.191 43.895,21.775 43.735 C 21.364 43.577,21.264 43.701,21.438 44.155 C 21.574 44.510,21.852 44.800,22.055 44.800 C 22.690 44.800,22.932 43.570,22.394 43.073 C 21.990 42.700,21.933 42.743,22.121 43.280 M69.600 43.354 C 69.600 43.659,70.072 44.217,70.649 44.595 C 71.333 45.044,71.580 45.094,71.359 44.741 C 71.173 44.444,71.072 43.885,71.135 43.500 C 71.214 43.022,70.988 42.800,70.425 42.800 C 69.971 42.800,69.600 43.049,69.600 43.354 M163.600 43.600 C 163.123 44.077,162.843 44.577,162.978 44.711 C 163.112 44.846,163.612 44.566,164.089 44.089 C 164.566 43.612,164.846 43.112,164.711 42.978 C 164.577 42.843,164.077 43.123,163.600 43.600 M165.228 43.476 C 165.213 43.958,165.380 44.464,165.600 44.600 C 166.073 44.892,166.073 44.501,165.600 43.400 C 165.269 42.629,165.255 42.631,165.228 43.476 M208.596 43.770 L 207.792 44.639 209.892 44.619 C 211.047 44.609,211.814 44.540,211.596 44.467 C 211.378 44.393,211.200 44.028,211.200 43.654 C 211.200 42.660,209.556 42.734,208.596 43.770 M286.083 43.616 C 285.803 44.064,285.400 44.323,285.187 44.192 C 284.974 44.060,284.800 44.143,284.800 44.376 C 284.800 44.609,284.967 44.800,285.171 44.800 C 285.652 44.800,286.800 43.652,286.800 43.171 C 286.800 42.618,286.647 42.713,286.083 43.616 M289.200 43.561 C 289.200 44.498,289.833 45.011,290.108 44.296 C 290.213 44.021,290.052 43.565,289.750 43.282 C 289.296 42.858,289.200 42.906,289.200 43.561 M333.784 43.227 C 333.315 43.986,333.999 44.173,334.695 43.476 C 335.319 42.853,335.320 42.800,334.709 42.800 C 334.345 42.800,333.929 42.992,333.784 43.227 M189.829 43.829 C 189.105 44.552,189.008 45.200,189.624 45.200 C 189.857 45.200,189.918 44.992,189.761 44.737 C 189.569 44.426,189.732 44.341,190.257 44.478 C 190.814 44.624,191.055 44.470,191.094 43.941 C 191.163 43.034,190.667 42.990,189.829 43.829 M389.927 44.006 C 389.295 44.701,389.297 44.743,389.948 44.694 C 390.329 44.665,390.666 44.317,390.696 43.921 C 390.760 43.069,390.782 43.066,389.927 44.006 M20.846 45.020 C 20.821 45.471,20.621 46.057,20.401 46.321 C 20.182 46.586,20.290 46.553,20.640 46.249 C 20.990 45.944,21.190 45.358,21.085 44.947 C 20.912 44.274,20.888 44.281,20.846 45.020 M167.612 45.677 C 168.254 46.380,168.918 46.815,169.089 46.643 C 169.260 46.472,168.895 45.897,168.278 45.366 C 166.665 43.978,166.240 44.176,167.612 45.677 M205.700 45.300 C 205.755 45.575,205.605 45.765,205.367 45.722 C 205.128 45.679,204.933 45.895,204.933 46.201 C 204.933 46.602,205.124 46.655,205.620 46.390 C 206.550 45.892,206.940 44.800,206.187 44.800 C 205.864 44.800,205.645 45.025,205.700 45.300 M213.228 45.476 C 213.213 45.958,213.380 46.464,213.600 46.600 C 214.073 46.892,214.073 46.501,213.600 45.400 C 213.269 44.629,213.255 44.631,213.228 45.476 M235.291 53.474 C 235.241 58.355,235.366 62.785,235.569 63.319 C 236.139 64.817,237.020 64.935,237.127 63.527 C 237.190 62.697,237.074 62.430,236.741 62.637 C 236.421 62.834,236.344 62.723,236.507 62.299 C 236.646 61.937,236.507 61.573,236.183 61.449 C 235.725 61.273,235.594 59.642,235.500 52.916 L 235.383 44.600 235.291 53.474 M291.600 45.200 C 291.600 45.836,294.787 48.946,295.109 48.624 C 295.269 48.463,294.860 47.867,294.201 47.300 C 293.503 46.699,293.054 45.961,293.126 45.534 C 293.213 45.019,293.004 44.800,292.425 44.800 C 291.971 44.800,291.600 44.980,291.600 45.200 M329.043 45.433 C 328.667 46.411,328.749 46.541,329.400 46.000 C 330.065 45.448,330.196 44.800,329.643 44.800 C 329.446 44.800,329.176 45.085,329.043 45.433 M338.000 44.951 C 338.000 45.034,338.270 45.326,338.600 45.600 C 339.091 46.008,339.200 45.980,339.200 45.449 C 339.200 45.092,338.930 44.800,338.600 44.800 C 338.270 44.800,338.000 44.868,338.000 44.951 M355.200 45.600 C 355.200 45.820,355.335 45.979,355.500 45.953 C 356.217 45.839,356.565 46.035,356.134 46.309 C 355.787 46.530,355.807 46.794,356.213 47.350 C 356.727 48.054,356.755 48.043,356.708 47.147 C 356.635 45.754,355.200 44.281,355.200 45.600 M71.200 46.013 C 71.200 46.528,72.340 46.994,72.706 46.628 C 72.855 46.479,72.712 46.189,72.388 45.984 C 71.614 45.495,71.200 45.505,71.200 46.013 M312.480 46.480 C 311.827 47.133,311.877 47.600,312.600 47.600 C 312.933 47.600,313.200 47.244,313.200 46.800 C 313.200 45.868,313.126 45.834,312.480 46.480 M5.200 47.109 C 5.200 47.725,6.263 48.913,6.673 48.755 C 6.895 48.670,6.655 48.189,6.138 47.686 C 5.622 47.183,5.200 46.924,5.200 47.109 M73.600 47.151 C 73.600 47.653,74.774 48.560,75.057 48.276 C 75.188 48.145,75.017 47.760,74.676 47.419 C 73.981 46.724,73.600 46.629,73.600 47.151 M386.773 47.800 C 386.678 48.460,386.392 48.961,386.138 48.913 C 385.884 48.865,385.457 49.090,385.189 49.413 C 384.848 49.824,384.836 50.000,385.151 50.000 C 385.398 50.000,385.600 49.790,385.600 49.533 C 385.600 49.277,385.716 49.182,385.857 49.324 C 385.998 49.465,385.886 49.855,385.608 50.190 C 385.275 50.592,385.252 50.800,385.541 50.800 C 386.188 50.800,387.272 48.482,387.097 47.473 C 386.974 46.765,386.913 46.827,386.773 47.800 M341.372 49.328 C 341.261 49.619,341.325 51.158,341.515 52.748 C 341.705 54.338,341.712 55.731,341.530 55.843 C 341.349 55.955,341.200 56.248,341.200 56.493 C 341.200 56.739,341.650 56.517,342.200 56.000 C 343.356 54.914,343.465 53.673,342.560 51.922 C 341.967 50.776,341.969 50.702,342.580 50.937 C 342.968 51.086,343.141 51.027,342.997 50.795 C 342.863 50.578,342.448 50.397,342.076 50.394 C 341.493 50.389,341.483 50.334,342.000 50.000 C 342.436 49.718,342.457 49.611,342.076 49.606 C 341.788 49.603,341.664 49.420,341.800 49.200 C 341.936 48.980,341.941 48.800,341.811 48.800 C 341.681 48.800,341.484 49.038,341.372 49.328 M158.976 60.400 C 158.976 66.670,159.032 69.235,159.099 66.100 C 159.167 62.965,159.167 57.835,159.099 54.700 C 159.032 51.565,158.976 54.130,158.976 60.400 M229.200 50.564 C 229.200 51.163,229.360 51.956,229.555 52.326 C 230.207 53.563,230.351 56.400,229.762 56.400 C 229.010 56.400,228.265 57.870,228.837 58.223 C 230.495 59.247,231.551 51.604,229.952 50.156 C 229.234 49.506,229.200 49.525,229.200 50.564 M311.254 51.513 C 311.295 52.623,311.356 52.747,311.495 52.000 C 311.597 51.450,311.858 50.890,312.074 50.756 C 312.293 50.619,312.187 50.404,311.834 50.268 C 311.320 50.071,311.210 50.308,311.254 51.513 M169.270 61.476 C 169.231 67.678,169.335 72.836,169.500 72.939 C 169.777 73.110,169.747 55.442,169.464 51.800 C 169.396 50.920,169.308 55.274,169.270 61.476 M309.213 51.287 C 309.203 52.153,309.343 52.325,309.900 52.129 C 310.471 51.928,310.508 51.981,310.100 52.421 C 309.825 52.718,309.613 53.239,309.628 53.580 C 309.648 54.020,309.756 53.967,310.001 53.400 C 310.259 52.799,310.335 53.027,310.306 54.317 C 310.281 55.430,310.044 56.165,309.634 56.405 C 309.285 56.609,309.203 56.781,309.451 56.788 C 310.881 56.826,311.305 52.696,310.028 51.163 L 309.227 50.200 309.213 51.287 M326.446 51.020 C 326.421 51.471,326.221 52.057,326.001 52.321 C 325.782 52.586,325.890 52.553,326.240 52.249 C 326.590 51.944,326.790 51.358,326.685 50.947 C 326.512 50.274,326.488 50.281,326.446 51.020 M365.200 51.171 C 365.200 51.652,366.348 52.800,366.829 52.800 C 367.426 52.800,367.258 52.176,366.469 51.462 C 365.649 50.720,365.200 50.617,365.200 51.171 M324.800 54.739 C 324.800 55.404,326.322 57.009,326.646 56.686 C 326.820 56.513,326.475 55.921,325.881 55.370 C 325.286 54.819,324.800 54.535,324.800 54.739 M385.608 56.548 C 386.763 57.651,387.048 57.611,386.418 56.434 C 386.173 55.975,385.667 55.600,385.294 55.600 C 384.746 55.600,384.806 55.781,385.608 56.548 M311.484 57.500 C 312.036 61.046,313.240 62.095,313.090 58.900 C 313.010 57.202,312.387 56.053,311.525 56.013 C 311.374 56.006,311.355 56.675,311.484 57.500 M278.832 56.554 C 278.814 56.749,279.237 57.314,279.772 57.809 C 280.664 58.636,280.739 58.648,280.687 57.955 C 280.655 57.533,280.329 57.200,279.948 57.200 C 279.573 57.200,279.176 56.975,279.065 56.700 C 278.954 56.425,278.849 56.359,278.832 56.554 M203.497 59.272 C 203.770 59.603,203.860 60.021,203.697 60.201 C 203.533 60.381,203.656 60.380,203.968 60.199 C 204.407 59.944,204.470 60.043,204.244 60.634 C 204.007 61.257,204.049 61.305,204.467 60.889 C 205.050 60.311,204.552 59.183,203.571 58.859 C 203.107 58.705,203.093 58.782,203.497 59.272 M217.800 60.469 C 216.637 61.676,216.633 61.694,217.666 61.033 C 218.253 60.659,218.832 60.093,218.954 59.776 C 219.255 58.992,219.177 59.038,217.800 60.469 M293.667 59.867 C 293.393 60.160,293.288 60.400,293.433 60.400 C 293.579 60.400,293.474 60.670,293.200 61.000 C 292.350 62.024,292.947 61.659,294.072 60.467 C 294.661 59.843,294.922 59.333,294.653 59.333 C 294.385 59.333,293.941 59.573,293.667 59.867 M356.117 60.871 C 356.364 61.574,355.518 62.584,355.063 62.130 C 354.918 61.985,354.800 62.168,354.800 62.537 C 354.800 63.104,354.921 63.131,355.592 62.712 C 356.621 62.069,356.948 61.178,356.354 60.633 C 356.003 60.311,355.942 60.372,356.117 60.871 M205.400 61.600 C 206.501 62.073,206.892 62.073,206.600 61.600 C 206.464 61.380,205.958 61.213,205.476 61.228 C 204.631 61.255,204.629 61.269,205.400 61.600 M226.000 61.500 C 226.000 61.691,226.261 62.196,226.580 62.624 C 227.140 63.373,227.152 63.368,226.932 62.494 C 226.704 61.591,226.000 60.840,226.000 61.500 M328.616 61.627 C 328.761 61.861,328.971 61.962,329.083 61.851 C 329.413 61.521,330.335 62.564,330.099 63.000 C 329.980 63.220,330.134 63.163,330.441 62.873 C 330.917 62.424,330.885 62.261,330.224 61.773 C 329.318 61.104,328.233 61.006,328.616 61.627 M337.829 61.829 C 337.483 62.174,337.200 62.652,337.200 62.890 C 337.200 63.128,337.560 62.907,338.000 62.400 C 339.147 61.078,339.016 60.641,337.829 61.829 M250.876 62.297 C 250.949 62.679,251.321 63.051,251.703 63.124 C 252.555 63.289,252.243 62.179,251.340 61.832 C 250.928 61.674,250.783 61.819,250.876 62.297 M189.200 62.902 C 189.200 63.599,190.231 64.800,190.829 64.800 C 191.479 64.800,191.231 64.168,190.200 63.200 C 189.407 62.455,189.200 62.393,189.200 62.902 M308.137 63.070 C 308.286 63.219,308.001 63.799,307.504 64.358 C 306.753 65.203,306.736 65.276,307.400 64.788 C 308.777 63.776,309.235 62.800,308.333 62.800 C 308.077 62.800,307.988 62.922,308.137 63.070 M390.624 63.387 C 391.051 63.710,391.267 63.980,391.104 63.987 C 390.941 63.994,391.108 64.351,391.475 64.780 C 391.842 65.208,392.305 65.458,392.504 65.336 C 392.909 65.085,390.876 62.800,390.249 62.800 C 390.028 62.800,390.196 63.064,390.624 63.387 M313.200 65.026 C 313.200 65.151,313.386 65.601,313.614 66.026 C 314.051 66.843,315.200 67.097,315.200 66.376 C 315.200 66.143,314.989 66.083,314.732 66.242 C 314.420 66.435,314.347 66.316,314.512 65.886 C 314.694 65.411,314.589 65.306,314.114 65.488 C 313.684 65.653,313.565 65.580,313.758 65.268 C 313.917 65.011,313.857 64.800,313.624 64.800 C 313.391 64.800,313.200 64.902,313.200 65.026 M354.067 65.391 C 354.140 65.826,353.990 66.186,353.733 66.191 C 353.019 66.205,352.580 66.800,353.284 66.800 C 354.279 66.800,355.033 65.670,354.430 65.083 C 354.038 64.702,353.961 64.768,354.067 65.391 M374.926 65.963 C 374.816 66.383,374.382 66.816,373.961 66.926 C 373.424 67.067,373.277 67.335,373.466 67.829 C 373.650 68.308,373.588 68.440,373.268 68.242 C 373.011 68.083,372.800 68.143,372.800 68.376 C 372.800 69.315,374.053 68.631,374.746 67.315 C 375.049 66.739,375.455 66.505,375.906 66.645 C 376.543 66.843,376.542 66.823,375.892 66.406 C 375.502 66.155,375.288 65.782,375.415 65.575 C 375.543 65.369,375.530 65.200,375.386 65.200 C 375.243 65.200,375.035 65.543,374.926 65.963 M357.988 66.214 C 357.712 66.547,357.626 66.950,357.798 67.110 C 357.969 67.269,358.190 67.174,358.289 66.898 C 358.388 66.621,358.633 66.497,358.834 66.621 C 359.035 66.745,359.200 66.667,359.200 66.447 C 359.200 65.729,358.502 65.595,357.988 66.214 M191.820 67.309 C 192.249 68.425,193.491 68.810,193.291 67.765 C 193.175 67.159,192.831 66.800,192.366 66.800 C 191.931 66.800,191.706 67.010,191.820 67.309 M305.294 67.367 C 304.893 68.006,304.827 68.800,305.173 68.800 C 305.499 68.800,306.800 67.469,306.800 67.135 C 306.800 66.747,305.562 66.937,305.294 67.367 M377.246 68.025 C 377.205 68.585,378.556 70.400,379.016 70.400 C 379.117 70.400,379.200 70.040,379.200 69.600 C 379.200 69.077,378.933 68.800,378.429 68.800 C 378.005 68.800,377.576 68.485,377.476 68.100 C 377.333 67.554,377.283 67.538,377.246 68.025 M393.206 67.838 C 393.218 68.532,393.911 69.296,394.384 69.139 C 394.693 69.036,394.567 68.713,394.031 68.228 C 393.574 67.814,393.203 67.639,393.206 67.838 M237.588 69.578 C 238.079 70.495,238.757 70.976,239.091 70.643 C 239.369 70.364,238.040 68.800,237.524 68.800 C 237.330 68.800,237.359 69.150,237.588 69.578 M317.228 69.476 C 317.213 69.958,317.380 70.464,317.600 70.600 C 318.073 70.892,318.073 70.501,317.600 69.400 C 317.269 68.629,317.255 68.631,317.228 69.476 M318.700 70.665 C 318.975 70.776,319.200 71.201,319.200 71.610 C 319.200 72.018,319.380 72.464,319.600 72.600 C 320.099 72.908,320.101 72.717,319.610 71.426 C 319.395 70.862,318.990 70.414,318.710 70.432 C 318.309 70.456,318.307 70.506,318.700 70.665 M395.259 71.165 C 395.339 71.707,395.706 72.172,396.100 72.228 C 397.036 72.363,396.983 71.890,395.959 70.963 C 395.126 70.209,395.120 70.211,395.259 71.165 M195.600 70.939 C 195.600 71.112,198.047 73.627,198.875 74.303 C 199.404 74.736,199.464 74.669,199.303 73.826 C 199.184 73.204,198.801 72.800,198.258 72.722 C 197.721 72.646,197.352 72.263,197.272 71.700 C 197.170 70.980,195.600 70.265,195.600 70.939 M347.927 72.006 C 347.295 72.701,347.297 72.743,347.948 72.694 C 348.329 72.665,348.666 72.317,348.696 71.921 C 348.760 71.069,348.782 71.066,347.927 72.006 M321.525 73.600 C 322.104 74.260,322.923 74.800,323.344 74.800 C 323.933 74.800,323.762 74.523,322.600 73.600 C 321.769 72.940,320.951 72.400,320.781 72.400 C 320.611 72.400,320.946 72.940,321.525 73.600 M298.800 73.600 C 298.800 74.040,298.590 74.400,298.333 74.400 C 298.077 74.400,297.973 74.506,298.103 74.637 C 298.517 75.050,299.985 74.375,300.414 73.573 C 300.773 72.904,300.692 72.800,299.814 72.800 C 299.067 72.800,298.800 73.010,298.800 73.600 M346.000 73.564 C 345.670 73.937,345.557 74.008,345.749 73.721 C 345.960 73.406,345.937 73.200,345.692 73.200 C 345.347 73.200,344.800 74.079,344.800 74.633 C 344.800 75.046,345.950 74.742,346.389 74.213 C 347.088 73.371,346.718 72.753,346.000 73.564 M207.717 75.097 C 209.211 75.174,211.551 75.174,212.917 75.096 C 214.282 75.018,213.060 74.955,210.200 74.955 C 207.340 74.956,206.222 75.020,207.717 75.097 M283.233 74.954 C 283.613 75.305,290.322 75.506,291.800 75.211 C 292.959 74.980,291.977 74.879,288.233 74.846 C 285.392 74.821,283.142 74.869,283.233 74.954 M331.717 75.097 C 333.211 75.174,335.551 75.174,336.917 75.096 C 338.282 75.018,337.060 74.955,334.200 74.955 C 331.340 74.956,330.222 75.020,331.717 75.097 M72.248 96.350 C 71.164 97.481,71.161 97.496,72.077 97.321 C 72.589 97.224,73.214 96.706,73.466 96.172 C 74.079 94.874,73.595 94.944,72.248 96.350 M86.319 96.397 C 86.693 97.056,87.216 97.596,87.480 97.597 C 87.744 97.599,88.144 97.915,88.368 98.300 C 88.755 98.964,88.776 98.964,88.788 98.290 C 88.795 97.900,88.375 97.418,87.855 97.221 C 87.335 97.023,86.812 96.488,86.692 96.031 C 86.573 95.574,86.286 95.200,86.056 95.200 C 85.823 95.200,85.939 95.730,86.319 96.397 M89.426 107.557 C 89.276 107.801,89.388 108.003,89.676 108.006 C 90.057 108.011,90.036 108.118,89.600 108.400 C 89.270 108.613,89.203 108.791,89.451 108.794 C 90.044 108.802,90.987 107.653,90.657 107.324 C 90.516 107.182,90.397 107.322,90.394 107.633 C 90.389 108.104,90.329 108.108,90.044 107.657 C 89.804 107.279,89.617 107.249,89.426 107.557 M69.308 109.620 C 69.239 110.538,69.829 111.000,70.234 110.345 C 70.428 110.031,70.349 109.984,69.994 110.204 C 69.611 110.440,69.534 110.350,69.715 109.878 C 69.852 109.519,69.830 109.142,69.666 109.041 C 69.501 108.939,69.340 109.199,69.308 109.620 M87.887 111.832 C 87.350 112.549,87.318 112.730,87.756 112.561 C 88.076 112.439,88.446 112.056,88.578 111.712 C 88.952 110.737,88.669 110.786,87.887 111.832 M81.600 115.400 C 81.600 115.730,81.870 116.000,82.200 116.000 C 82.530 116.000,82.800 115.730,82.800 115.400 C 82.800 115.070,82.530 114.800,82.200 114.800 C 81.870 114.800,81.600 115.070,81.600 115.400 " stroke="none" fill="#0055ff" fill-rule="evenodd"></path><path id="path4" d="M100.800 2.200 C 100.283 2.750,99.699 3.200,99.502 3.200 C 98.994 3.200,98.000 4.256,98.000 4.795 C 98.000 5.044,97.820 5.136,97.600 5.000 C 97.380 4.864,97.200 4.962,97.200 5.219 C 97.200 5.475,96.750 6.219,96.200 6.873 C 95.283 7.963,95.200 8.385,95.200 11.961 C 95.200 15.603,95.134 15.923,94.200 16.800 C 93.650 17.317,93.200 18.068,93.200 18.470 C 93.200 18.929,92.908 19.200,92.414 19.200 C 91.611 19.200,90.625 20.492,91.081 20.947 C 91.220 21.086,91.027 21.200,90.653 21.200 C 89.821 21.200,87.200 23.749,87.200 24.559 C 87.200 24.881,86.795 25.202,86.300 25.272 C 85.722 25.354,85.354 25.722,85.272 26.300 C 85.142 27.217,83.976 27.333,75.109 27.308 C 74.729 27.307,74.534 27.493,74.675 27.721 C 74.834 27.978,74.670 28.036,74.245 27.873 C 73.813 27.707,73.655 27.766,73.820 28.032 C 73.963 28.264,73.341 29.087,72.438 29.861 C 71.534 30.634,70.913 31.460,71.059 31.695 C 71.208 31.937,71.137 32.008,70.894 31.858 C 70.657 31.712,70.103 32.052,69.661 32.613 L 68.859 33.633 56.531 33.517 L 44.204 33.400 42.749 34.900 C 40.539 37.178,34.426 36.728,33.462 34.217 C 33.266 33.706,32.349 33.600,28.113 33.597 C 23.194 33.595,20.087 32.847,21.039 31.894 C 21.174 31.759,20.816 31.179,20.242 30.606 C 19.669 30.033,19.200 29.684,19.200 29.831 C 19.200 29.978,18.957 29.896,18.660 29.649 C 18.362 29.403,17.651 29.162,17.079 29.115 C 16.506 29.067,16.111 28.956,16.200 28.867 C 16.450 28.617,15.389 27.672,14.760 27.584 C 12.736 27.300,10.329 27.671,9.624 28.376 C 9.156 28.844,8.164 29.201,7.124 29.276 C 5.686 29.379,5.379 29.549,5.272 30.300 C 5.161 31.085,4.548 31.413,3.500 31.247 C 3.335 31.221,3.221 31.335,3.247 31.500 C 3.392 32.418,3.094 33.199,2.200 34.238 C 1.127 35.485,0.658 42.418,1.607 43.004 C 1.830 43.142,1.917 43.410,1.800 43.600 C 1.683 43.790,1.798 44.075,2.055 44.234 C 2.366 44.426,2.425 44.334,2.232 43.962 C 2.072 43.653,2.232 43.760,2.588 44.200 C 2.944 44.640,3.336 45.405,3.461 45.900 C 3.598 46.446,3.992 46.800,4.462 46.800 C 4.888 46.800,5.695 47.259,6.256 47.820 C 7.974 49.537,20.182 49.066,18.748 47.337 C 18.400 46.918,18.488 46.789,19.151 46.750 C 19.618 46.722,20.225 46.677,20.500 46.648 C 20.807 46.616,20.948 46.155,20.865 45.453 C 20.767 44.616,20.866 44.393,21.233 44.621 C 21.594 44.843,21.659 44.730,21.463 44.221 C 21.264 43.701,21.347 43.571,21.775 43.735 C 22.153 43.880,22.286 43.768,22.151 43.418 C 21.983 42.978,23.090 42.865,28.024 42.821 C 32.480 42.781,34.406 42.611,35.232 42.183 C 36.695 41.427,40.680 41.438,42.146 42.202 C 43.098 42.699,45.651 42.800,57.292 42.800 C 71.094 42.800,71.290 42.811,71.084 43.600 C 70.969 44.039,71.041 44.502,71.244 44.627 C 71.447 44.753,71.509 45.023,71.383 45.228 C 71.256 45.432,71.354 45.600,71.600 45.600 C 71.846 45.600,71.937 45.778,71.803 45.995 C 71.663 46.222,71.823 46.289,72.179 46.153 C 72.521 46.022,72.800 46.114,72.800 46.357 C 72.800 46.601,73.083 46.800,73.429 46.800 C 75.145 46.800,75.200 47.262,75.200 61.571 C 75.200 70.022,75.346 75.200,75.584 75.200 C 75.796 75.200,76.336 75.594,76.784 76.075 C 78.447 77.860,77.627 82.800,75.669 82.800 C 75.331 82.800,75.200 84.518,75.200 88.953 C 75.200 94.844,75.165 95.116,74.370 95.324 C 73.914 95.443,73.443 95.914,73.324 96.370 C 73.204 96.827,72.836 97.200,72.506 97.200 C 72.176 97.200,71.319 97.715,70.602 98.345 L 69.298 99.489 69.227 103.977 C 69.176 107.164,69.307 108.651,69.678 109.109 C 70.111 109.643,70.108 109.698,69.660 109.429 C 69.219 109.163,69.207 109.265,69.591 109.983 C 69.865 110.494,70.299 110.771,70.631 110.644 C 71.139 110.449,71.432 111.331,71.247 112.500 C 71.221 112.665,71.650 112.800,72.200 112.800 C 72.926 112.800,73.200 113.015,73.200 113.582 C 73.200 114.159,73.567 114.433,74.600 114.626 C 75.402 114.777,76.000 115.126,76.000 115.445 C 76.000 116.274,77.904 116.145,78.124 115.300 C 78.280 114.703,78.318 114.717,78.382 115.400 L 78.456 116.200 78.800 115.400 C 79.094 114.716,79.148 114.701,79.172 115.300 C 79.209 116.215,81.600 116.314,81.600 115.400 C 81.600 114.948,82.086 114.800,83.571 114.800 C 85.715 114.800,87.371 113.808,86.330 113.148 C 85.915 112.885,85.938 112.811,86.434 112.806 C 87.292 112.798,89.004 110.807,89.083 109.727 C 89.118 109.247,89.505 108.495,89.943 108.057 C 90.473 107.527,90.662 106.959,90.507 106.367 C 90.346 105.752,90.418 105.564,90.737 105.761 C 91.055 105.957,91.200 105.600,91.200 104.624 C 91.200 103.841,91.001 103.200,90.757 103.200 C 90.514 103.200,90.414 102.939,90.537 102.620 C 90.671 102.270,90.451 101.943,89.980 101.794 C 89.313 101.582,88.974 100.643,89.152 99.503 C 89.219 99.069,87.891 97.603,87.411 97.583 C 85.877 97.520,85.200 94.835,85.200 88.816 L 85.200 82.887 84.212 82.639 C 81.633 81.992,82.062 75.200,84.681 75.200 C 85.149 75.200,85.219 72.926,85.119 61.000 L 85.000 46.800 85.900 46.800 C 86.757 46.800,86.867 46.665,86.960 45.500 C 86.982 45.225,87.433 44.910,87.962 44.800 C 88.776 44.631,88.948 44.322,89.076 42.800 C 89.184 41.516,89.510 40.748,90.214 40.119 C 91.220 39.221,91.688 36.000,90.813 36.000 C 90.599 36.000,90.529 35.730,90.655 35.400 C 90.782 35.070,91.124 34.800,91.416 34.800 C 91.707 34.800,92.070 34.395,92.222 33.900 C 92.686 32.387,93.196 31.970,94.033 32.418 C 94.597 32.720,94.733 32.692,94.585 32.305 C 94.477 32.023,94.931 31.197,95.594 30.471 C 96.257 29.745,96.800 28.971,96.800 28.752 C 96.800 28.532,96.965 28.455,97.168 28.580 C 97.370 28.705,97.833 28.510,98.197 28.146 C 98.732 27.611,98.757 27.419,98.330 27.148 C 97.948 26.906,98.051 26.797,98.700 26.756 C 100.140 26.666,100.315 26.620,100.667 26.236 C 100.863 26.022,100.753 25.993,100.400 26.166 C 99.930 26.395,99.938 26.344,100.435 25.930 C 100.784 25.638,101.002 25.196,100.918 24.948 C 100.834 24.699,101.203 24.386,101.739 24.251 C 102.341 24.100,102.691 23.740,102.656 23.307 C 102.612 22.753,102.864 22.633,103.875 22.731 C 104.576 22.799,105.544 22.644,106.026 22.386 C 106.696 22.027,106.970 22.028,107.193 22.388 C 107.404 22.730,107.673 22.670,108.171 22.171 C 108.724 21.619,108.755 21.418,108.330 21.148 C 108.011 20.946,108.801 20.810,110.310 20.806 C 112.632 20.800,112.849 20.723,113.209 19.776 C 113.423 19.213,113.734 18.836,113.900 18.938 C 114.065 19.040,114.830 18.485,115.600 17.704 C 116.370 16.923,116.730 16.435,116.400 16.619 C 115.903 16.896,115.885 16.848,116.297 16.340 C 116.570 16.003,116.675 15.608,116.530 15.463 C 116.385 15.318,116.446 15.200,116.664 15.200 C 117.912 15.200,116.723 6.252,115.408 5.748 C 115.076 5.620,114.904 5.355,115.026 5.158 C 115.148 4.961,115.057 4.800,114.824 4.800 C 114.591 4.800,114.400 4.530,114.400 4.200 C 114.400 3.870,114.149 3.600,113.842 3.600 C 113.536 3.600,112.707 3.060,112.000 2.400 C 110.154 0.676,102.362 0.537,100.800 2.200 M266.305 15.986 C 265.908 16.450,265.792 16.871,266.022 17.014 C 266.237 17.147,266.308 17.426,266.179 17.634 C 266.050 17.843,265.776 17.908,265.569 17.781 C 265.335 17.636,265.232 28.240,265.296 45.789 C 265.387 70.380,265.478 74.078,266.000 74.409 C 266.655 74.823,297.109 74.963,298.167 74.557 C 298.515 74.424,298.800 73.974,298.800 73.557 C 298.800 72.841,299.702 72.614,302.268 72.687 C 302.526 72.695,302.655 72.487,302.554 72.225 C 302.341 71.669,303.797 70.227,304.275 70.522 C 304.454 70.633,304.639 70.336,304.686 69.862 C 304.890 67.808,305.425 66.644,306.000 67.000 C 306.422 67.261,306.986 66.435,306.994 65.542 C 306.997 65.180,307.343 64.505,307.762 64.042 C 308.181 63.579,308.361 63.195,308.162 63.188 C 307.963 63.181,308.137 62.980,308.548 62.741 C 309.152 62.390,309.190 62.240,308.748 61.959 C 308.447 61.768,308.395 61.609,308.634 61.606 C 308.890 61.603,309.106 60.572,309.159 59.102 C 309.216 57.519,309.444 56.495,309.782 56.306 C 310.532 55.887,310.488 51.881,309.737 52.169 C 309.322 52.328,309.189 51.740,309.150 49.587 C 309.068 45.026,308.740 43.600,307.773 43.600 C 307.210 43.600,307.088 43.294,307.093 41.900 C 307.095 41.515,306.877 41.200,306.610 41.200 C 305.833 41.200,304.801 39.823,304.787 38.769 C 304.770 37.430,303.000 35.540,301.471 35.227 C 300.757 35.081,300.192 34.711,300.182 34.384 C 300.172 34.063,299.947 33.845,299.682 33.900 C 299.417 33.955,299.200 33.820,299.200 33.600 C 299.200 33.380,298.398 33.200,297.418 33.200 C 296.051 33.200,295.404 32.967,294.636 32.200 C 293.104 30.668,284.694 30.668,282.873 32.200 C 282.164 32.797,281.184 33.200,280.442 33.200 L 279.200 33.200 279.150 25.400 C 279.123 21.110,279.075 17.285,279.044 16.900 C 278.917 15.316,278.509 15.200,273.056 15.200 C 269.373 15.200,267.596 15.352,267.221 15.700 C 266.790 16.100,266.739 16.100,266.965 15.700 C 267.384 14.957,267.068 15.094,266.305 15.986 M237.762 21.506 C 237.520 21.668,237.205 22.282,237.061 22.871 C 236.917 23.460,236.507 24.000,236.149 24.071 C 235.589 24.182,235.509 24.828,235.571 28.700 L 235.643 33.200 233.407 33.200 L 231.170 33.200 231.223 38.772 C 231.281 44.940,231.216 44.800,234.033 44.800 L 235.600 44.800 235.600 53.013 C 235.600 59.783,235.701 61.264,236.175 61.446 C 236.506 61.573,236.646 61.935,236.507 62.299 C 236.358 62.687,236.428 62.830,236.688 62.669 C 236.972 62.494,237.128 63.429,237.159 65.489 C 237.193 67.790,237.359 68.657,237.811 68.910 C 238.144 69.097,238.295 69.446,238.147 69.686 C 237.984 69.950,238.061 70.009,238.342 69.836 C 238.861 69.515,239.610 71.097,239.311 71.883 C 239.209 72.153,239.586 72.482,240.164 72.627 C 240.734 72.770,241.200 73.131,241.200 73.429 C 241.200 74.530,242.858 74.796,250.115 74.858 C 259.644 74.939,259.089 75.306,259.103 68.913 C 259.116 63.083,259.261 63.269,254.579 63.117 C 251.213 63.007,250.992 62.946,250.872 62.100 C 250.790 61.522,250.468 61.200,249.972 61.200 C 249.234 61.200,249.200 60.835,249.200 53.000 L 249.200 44.800 253.786 44.800 C 259.373 44.800,259.150 45.058,259.143 38.579 C 259.136 32.882,259.472 33.214,253.700 33.206 L 249.200 33.200 249.137 28.300 C 249.102 25.605,249.088 23.140,249.106 22.821 C 249.182 21.422,239.553 20.305,237.762 21.506 M162.000 31.495 C 161.670 31.622,161.165 32.058,160.877 32.463 C 160.401 33.135,159.682 33.200,152.771 33.200 L 145.187 33.200 145.207 54.017 L 145.227 74.835 151.472 74.779 C 157.681 74.723,158.950 74.457,158.507 73.302 C 158.401 73.026,158.469 72.800,158.657 72.800 C 158.846 72.800,158.961 67.352,158.913 60.692 C 158.823 48.046,158.910 46.800,159.889 46.800 C 160.254 46.800,160.396 46.568,160.257 46.203 C 160.107 45.814,160.440 45.393,161.214 44.993 C 161.866 44.655,162.400 44.500,162.400 44.648 C 162.400 44.796,162.841 44.441,163.381 43.858 C 164.616 42.526,165.441 42.511,165.768 43.816 C 165.909 44.375,166.194 44.727,166.403 44.598 C 166.939 44.267,168.473 45.158,168.181 45.630 C 168.049 45.844,168.171 45.970,168.453 45.910 C 169.265 45.735,169.490 48.516,169.591 60.000 C 169.642 65.830,169.710 71.230,169.742 72.000 C 169.843 74.434,170.248 74.586,177.059 74.728 L 183.177 74.856 183.169 58.428 C 183.164 49.393,183.009 42.000,182.823 42.000 C 182.637 42.000,182.378 41.721,182.247 41.379 C 182.112 41.027,182.178 40.863,182.400 41.000 C 182.622 41.137,182.688 40.973,182.553 40.621 C 182.422 40.279,182.064 40.000,181.757 40.000 C 181.451 40.000,181.200 39.730,181.200 39.400 C 181.200 38.463,181.148 38.251,180.728 37.466 C 180.512 37.062,180.231 36.835,180.104 36.962 C 179.779 37.287,178.765 36.380,179.010 35.983 C 179.121 35.804,178.865 35.548,178.442 35.413 C 178.018 35.279,177.377 34.720,177.018 34.171 C 176.658 33.622,176.147 33.201,175.882 33.234 C 174.201 33.446,171.853 33.153,172.400 32.800 C 172.913 32.469,172.898 32.411,172.300 32.406 C 171.915 32.403,171.600 32.209,171.600 31.976 C 171.600 31.743,171.432 31.656,171.228 31.783 C 171.023 31.909,170.742 31.830,170.604 31.607 C 170.340 31.180,163.061 31.085,162.000 31.495 M203.783 31.874 C 203.458 32.199,203.295 32.630,203.420 32.832 C 203.545 33.035,202.829 33.200,201.820 33.200 C 200.462 33.200,199.813 33.413,199.296 34.028 C 198.913 34.483,197.829 35.211,196.886 35.644 C 195.944 36.078,195.280 36.605,195.410 36.817 C 195.541 37.028,195.190 37.376,194.631 37.588 C 193.851 37.885,193.553 38.351,193.356 39.588 C 193.164 40.783,192.910 41.200,192.372 41.200 C 191.454 41.200,191.257 41.532,191.139 43.277 C 191.060 44.458,190.918 44.651,190.260 44.479 C 189.733 44.341,189.569 44.426,189.761 44.737 C 189.918 44.992,189.871 45.200,189.655 45.200 C 189.412 45.200,189.255 48.320,189.243 53.400 C 189.229 59.591,189.344 61.602,189.712 61.606 C 190.055 61.610,190.038 61.715,189.657 61.956 C 189.273 62.200,189.246 62.381,189.564 62.578 C 189.811 62.730,189.922 63.002,189.811 63.182 C 189.700 63.362,189.922 63.755,190.304 64.055 C 190.948 64.560,190.956 64.541,190.400 63.800 C 189.844 63.058,189.851 63.040,190.500 63.549 C 190.920 63.878,191.200 64.638,191.200 65.449 C 191.200 66.613,191.334 66.800,192.172 66.800 C 192.876 66.800,193.180 67.049,193.272 67.700 C 193.354 68.278,193.722 68.646,194.300 68.728 C 194.951 68.820,195.200 69.124,195.200 69.828 C 195.200 70.591,195.409 70.800,196.172 70.800 C 196.876 70.800,197.180 71.049,197.272 71.700 C 197.354 72.278,197.722 72.646,198.300 72.728 C 198.867 72.808,199.200 73.132,199.200 73.604 C 199.200 74.774,199.321 74.788,210.052 74.798 C 218.917 74.806,221.112 74.729,222.000 74.383 C 222.110 74.340,222.335 74.327,222.500 74.353 C 222.665 74.379,222.800 74.040,222.800 73.600 C 222.800 72.973,223.067 72.800,224.033 72.800 C 224.823 72.800,225.208 72.625,225.105 72.314 C 225.016 72.047,225.451 71.400,226.072 70.878 C 226.694 70.355,227.107 69.773,226.990 69.584 C 226.783 69.249,227.809 68.516,228.588 68.442 C 229.804 68.326,229.100 63.917,227.778 63.365 C 227.052 63.062,226.339 62.437,226.193 61.977 C 226.046 61.516,225.826 61.241,225.702 61.364 C 225.579 61.488,225.100 61.086,224.639 60.470 C 223.336 58.733,220.071 58.668,218.392 60.346 C 217.636 61.102,216.887 61.494,216.383 61.397 C 215.940 61.312,215.684 61.412,215.813 61.621 C 215.942 61.829,215.789 62.000,215.473 62.000 C 215.157 62.000,214.674 62.270,214.400 62.600 C 213.688 63.458,206.606 63.484,206.934 62.627 C 207.084 62.236,206.779 61.971,205.977 61.795 C 205.330 61.653,204.800 61.360,204.800 61.145 C 204.800 60.929,204.592 60.881,204.338 61.038 C 204.044 61.220,203.985 61.147,204.177 60.837 C 204.347 60.563,204.171 60.010,203.777 59.575 C 203.085 58.810,203.244 58.800,216.218 58.800 C 226.143 58.800,229.247 58.687,228.899 58.339 C 228.313 57.753,228.969 56.400,229.838 56.400 C 230.173 56.400,230.344 56.232,230.217 56.028 C 230.091 55.823,230.170 55.542,230.393 55.404 C 230.872 55.108,230.943 52.936,230.484 52.652 C 230.310 52.544,230.211 53.118,230.265 53.928 L 230.363 55.400 230.059 53.986 C 229.891 53.209,229.639 52.387,229.499 52.160 C 229.359 51.933,229.199 50.004,229.145 47.873 C 229.049 44.084,229.023 43.989,227.961 43.519 C 227.047 43.114,226.895 42.827,226.999 41.709 C 227.114 40.468,226.576 39.464,225.619 39.136 C 225.401 39.061,225.164 38.606,225.091 38.125 C 224.900 36.864,223.173 35.293,221.806 35.135 C 221.036 35.047,220.557 34.722,220.416 34.194 C 220.297 33.750,219.885 33.368,219.500 33.344 C 219.115 33.320,218.384 33.277,217.876 33.250 C 217.369 33.223,216.604 32.917,216.176 32.570 C 215.749 32.224,215.653 32.072,215.962 32.232 C 216.334 32.425,216.426 32.366,216.234 32.055 C 216.075 31.798,215.790 31.683,215.600 31.800 C 215.410 31.917,215.137 31.822,214.993 31.589 C 214.562 30.891,204.511 31.146,203.783 31.874 M328.114 31.741 C 328.161 31.994,327.975 32.155,327.700 32.100 C 327.425 32.045,327.245 32.222,327.300 32.494 C 327.365 32.815,326.660 33.064,325.277 33.207 C 324.052 33.334,322.998 33.675,322.783 34.013 C 322.478 34.496,322.411 34.467,322.406 33.851 C 322.401 33.238,322.293 33.191,321.813 33.589 C 321.490 33.857,321.265 34.269,321.313 34.503 C 321.361 34.737,320.950 35.042,320.400 35.181 C 319.795 35.333,319.352 35.766,319.278 36.276 C 319.210 36.739,318.792 37.213,318.348 37.330 C 317.904 37.446,317.453 37.876,317.346 38.286 C 317.238 38.696,316.758 39.204,316.278 39.416 C 315.798 39.627,315.340 40.141,315.262 40.559 C 315.183 40.976,314.687 41.749,314.159 42.277 C 313.381 43.055,313.200 43.649,313.200 45.418 C 313.200 47.412,313.123 47.601,312.300 47.606 C 311.569 47.611,311.513 47.686,312.000 48.006 C 312.533 48.356,312.533 48.444,312.000 48.794 C 311.670 49.011,311.580 49.193,311.800 49.200 C 312.020 49.207,311.935 49.380,311.611 49.585 C 311.111 49.901,311.131 49.999,311.745 50.234 C 312.193 50.406,312.303 50.613,312.036 50.778 C 311.016 51.408,311.033 55.776,312.058 56.324 C 312.947 56.800,313.018 57.094,313.129 60.717 C 313.194 62.853,313.418 64.660,313.626 64.734 C 313.834 64.808,313.884 65.064,313.737 65.302 C 313.568 65.575,313.708 65.644,314.114 65.488 C 314.589 65.306,314.694 65.411,314.512 65.886 C 314.347 66.316,314.420 66.435,314.732 66.242 C 315.154 65.981,315.411 66.736,315.237 67.731 C 315.205 67.913,315.713 68.263,316.366 68.510 C 317.049 68.767,317.649 69.343,317.780 69.865 C 317.931 70.465,318.211 70.694,318.609 70.541 C 319.024 70.382,319.345 70.697,319.644 71.555 C 319.883 72.239,320.237 72.701,320.431 72.581 C 321.002 72.228,322.451 73.190,322.147 73.720 C 321.996 73.984,322.014 74.071,322.188 73.914 C 322.363 73.757,322.881 73.892,323.342 74.214 C 324.835 75.261,344.662 75.064,345.000 74.000 C 345.140 73.560,345.444 73.200,345.676 73.200 C 345.934 73.200,345.963 73.401,345.749 73.719 C 345.557 74.004,345.724 73.883,346.119 73.451 C 346.515 73.018,347.235 72.631,347.719 72.591 C 348.298 72.544,348.560 72.293,348.482 71.859 C 348.418 71.497,348.519 71.200,348.707 71.200 C 349.310 71.200,350.826 69.566,350.585 69.176 C 350.373 68.832,351.030 68.646,352.296 68.692 C 352.568 68.702,352.688 68.542,352.561 68.337 C 352.435 68.133,352.511 67.748,352.732 67.482 C 352.952 67.217,353.147 66.820,353.166 66.600 C 353.185 66.380,353.425 66.196,353.700 66.191 C 353.975 66.186,354.146 65.868,354.081 65.485 C 354.012 65.083,354.182 64.832,354.481 64.894 C 354.850 64.969,354.970 64.545,354.895 63.429 C 354.838 62.564,354.911 61.978,355.058 62.125 C 355.511 62.577,356.368 61.581,356.108 60.905 C 355.954 60.504,356.025 60.369,356.302 60.539 C 356.612 60.731,356.733 58.780,356.718 53.813 C 356.707 49.965,356.553 46.905,356.376 47.015 C 356.200 47.124,355.942 47.030,355.804 46.807 C 355.666 46.583,355.713 46.400,355.910 46.400 C 356.106 46.400,356.267 46.133,356.267 45.806 C 356.267 45.357,356.137 45.320,355.733 45.655 C 355.307 46.009,355.197 45.827,355.186 44.749 C 355.169 43.175,354.297 41.404,353.532 41.391 C 353.240 41.386,353.048 41.094,353.106 40.742 C 353.171 40.350,352.736 39.905,351.985 39.594 C 351.275 39.300,350.841 38.871,350.954 38.576 C 351.067 38.281,350.571 37.792,349.775 37.415 C 348.900 37.000,348.400 36.478,348.400 35.981 C 348.400 35.524,348.128 35.200,347.744 35.200 C 347.383 35.200,346.830 34.885,346.514 34.500 C 346.140 34.043,346.031 34.008,346.201 34.400 C 346.344 34.730,346.103 34.595,345.666 34.100 C 345.060 33.413,344.438 33.200,343.036 33.200 C 342.019 33.200,341.200 33.012,341.200 32.780 C 341.200 32.548,340.557 32.091,339.772 31.762 C 337.980 31.014,327.974 30.996,328.114 31.741 M357.003 33.991 C 356.862 34.436,356.617 34.800,356.459 34.800 C 356.301 34.800,356.171 35.140,356.171 35.555 C 356.171 35.970,356.378 36.230,356.630 36.133 C 356.911 36.025,357.175 36.596,357.309 37.601 C 357.435 38.535,357.880 39.549,358.340 39.948 C 358.786 40.334,359.206 40.905,359.275 41.216 C 359.440 41.960,360.233 42.800,360.771 42.800 C 361.007 42.800,361.200 43.250,361.200 43.800 C 361.200 44.600,361.400 44.800,362.200 44.800 C 363.013 44.800,363.209 45.006,363.246 45.900 C 363.335 48.019,363.407 48.203,364.300 48.595 C 364.795 48.812,365.200 49.326,365.200 49.737 C 365.200 50.148,365.650 50.839,366.200 51.271 C 368.034 52.714,367.531 55.568,365.500 55.247 C 365.335 55.221,365.221 55.335,365.247 55.500 C 365.411 56.537,365.106 57.200,364.467 57.200 C 364.063 57.200,363.703 57.425,363.666 57.700 C 363.291 60.495,363.044 61.196,362.359 61.413 C 361.942 61.545,361.492 62.090,361.358 62.624 C 361.224 63.158,360.968 63.504,360.790 63.394 C 359.989 62.899,358.964 64.774,359.179 66.340 C 359.220 66.637,359.061 66.762,358.827 66.617 C 358.592 66.471,358.400 66.543,358.400 66.776 C 358.400 67.009,358.130 67.200,357.800 67.200 C 357.428 67.200,357.200 67.577,357.200 68.192 C 357.200 68.917,356.931 69.252,356.200 69.436 C 355.650 69.574,355.200 69.858,355.200 70.067 C 355.200 70.276,355.408 70.319,355.662 70.162 C 355.979 69.966,356.013 70.052,355.770 70.438 C 355.324 71.145,355.199 74.448,355.628 74.183 C 355.802 74.075,356.052 74.161,356.183 74.373 C 356.600 75.047,369.847 74.867,370.417 74.179 C 370.682 73.861,370.764 73.600,370.600 73.600 C 370.436 73.600,370.530 73.326,370.808 72.990 C 371.086 72.655,371.205 72.271,371.071 72.138 C 370.646 71.713,371.638 70.329,372.210 70.549 C 372.553 70.680,372.682 70.557,372.552 70.220 C 372.439 69.924,372.530 69.567,372.755 69.428 C 372.981 69.288,373.052 68.881,372.915 68.522 C 372.732 68.047,372.810 67.959,373.200 68.200 C 373.597 68.446,373.666 68.349,373.466 67.829 C 373.274 67.328,373.428 67.066,373.998 66.916 C 374.439 66.801,374.800 66.468,374.800 66.177 C 374.800 65.886,375.008 65.519,375.262 65.362 C 375.547 65.185,375.615 65.252,375.439 65.536 C 375.269 65.812,375.570 66.186,376.187 66.467 C 376.755 66.726,377.324 67.356,377.453 67.869 C 377.588 68.408,377.987 68.800,378.400 68.800 C 379.067 68.800,379.272 69.364,379.666 72.300 C 379.703 72.575,380.051 72.800,380.439 72.800 C 380.866 72.800,381.195 73.155,381.272 73.700 C 381.442 74.896,395.067 75.276,396.226 74.117 C 396.740 73.603,396.759 73.420,396.330 73.148 C 395.898 72.874,395.897 72.811,396.324 72.806 C 396.612 72.803,396.734 72.617,396.596 72.393 C 396.458 72.170,396.190 72.083,396.000 72.200 C 395.521 72.496,395.238 71.930,395.125 70.455 C 395.058 69.572,394.826 69.200,394.342 69.200 C 393.674 69.200,393.176 68.241,392.992 66.600 C 392.837 65.217,392.808 65.148,392.471 65.356 C 392.291 65.468,391.842 65.208,391.475 64.780 C 391.108 64.351,390.941 63.994,391.104 63.987 C 391.267 63.980,391.051 63.710,390.624 63.387 C 390.063 62.964,390.008 62.796,390.424 62.787 C 390.828 62.777,390.747 62.562,390.152 62.064 C 389.685 61.674,389.192 61.004,389.055 60.574 C 388.919 60.144,388.401 59.608,387.904 59.382 C 387.407 59.156,387.051 58.734,387.114 58.444 C 387.176 58.154,386.726 57.486,386.114 56.960 C 385.501 56.433,384.982 55.597,384.960 55.101 C 384.887 53.428,384.801 53.152,384.428 53.383 C 384.223 53.509,383.924 53.385,383.764 53.107 C 383.603 52.828,383.612 52.726,383.783 52.881 C 384.219 53.274,385.198 52.207,385.209 51.329 C 385.214 50.928,385.570 50.150,386.000 49.600 C 386.430 49.050,386.786 48.195,386.791 47.700 C 386.796 47.193,387.062 46.778,387.400 46.750 C 387.730 46.723,388.225 46.678,388.499 46.650 C 388.774 46.623,389.017 46.330,389.039 46.000 C 389.134 44.556,389.239 44.371,389.900 44.482 C 390.377 44.563,390.563 44.377,390.482 43.900 C 390.418 43.515,390.542 43.200,390.759 43.200 C 390.977 43.200,391.085 42.844,391.002 42.408 C 390.918 41.973,391.000 41.658,391.185 41.708 C 391.369 41.759,391.549 41.620,391.584 41.400 C 391.619 41.180,391.994 40.872,392.417 40.715 C 392.840 40.559,393.095 40.191,392.982 39.897 C 392.869 39.604,393.271 38.935,393.874 38.410 C 394.587 37.791,394.793 37.398,394.464 37.288 C 394.098 37.166,394.145 36.982,394.635 36.624 C 395.161 36.240,395.251 35.799,395.038 34.664 L 394.764 33.200 388.000 33.200 C 380.548 33.200,379.200 33.664,379.200 36.228 C 379.200 36.919,378.895 37.336,378.197 37.601 C 377.645 37.811,377.217 38.121,377.244 38.291 C 377.539 40.098,377.143 41.200,376.200 41.200 C 375.310 41.200,375.009 40.829,375.150 39.907 C 375.175 39.746,374.746 39.501,374.198 39.364 C 373.239 39.123,373.029 38.783,373.170 37.700 C 373.206 37.425,373.028 37.200,372.775 37.200 C 372.522 37.200,372.409 36.952,372.526 36.650 C 372.648 36.330,372.351 35.924,371.818 35.681 C 371.213 35.405,370.916 34.944,370.950 34.331 L 371.000 33.400 364.130 33.291 C 357.536 33.186,357.250 33.214,357.003 33.991 M211.200 43.697 C 211.200 44.176,211.594 44.499,212.368 44.654 C 213.156 44.811,213.612 45.193,213.772 45.829 C 213.929 46.455,214.209 46.695,214.604 46.543 C 214.932 46.417,215.200 46.514,215.200 46.757 C 215.200 47.058,213.542 47.200,210.025 47.200 C 205.158 47.200,204.853 47.154,204.908 46.428 C 204.940 46.003,205.154 45.688,205.383 45.728 C 205.612 45.767,205.755 45.575,205.700 45.300 C 205.641 45.005,206.016 44.800,206.614 44.800 C 207.172 44.800,208.027 44.373,208.514 43.851 C 209.568 42.721,211.200 42.628,211.200 43.697 M289.761 43.304 C 290.038 43.581,290.186 44.043,290.090 44.331 C 289.994 44.619,290.159 44.821,290.458 44.780 C 292.348 44.520,293.289 44.815,293.083 45.605 C 292.943 46.140,293.132 46.550,293.647 46.825 C 294.074 47.053,294.300 47.439,294.149 47.682 C 293.991 47.938,294.058 48.011,294.311 47.855 C 294.943 47.464,295.141 47.991,295.277 50.426 C 295.395 52.530,295.886 53.706,296.495 53.337 C 296.658 53.239,296.672 53.467,296.527 53.845 C 296.349 54.311,296.415 54.438,296.732 54.242 C 297.004 54.074,297.200 54.187,297.200 54.512 C 297.200 54.820,296.760 55.272,296.223 55.517 C 295.415 55.885,295.224 56.296,295.123 57.881 C 295.027 59.384,294.855 59.789,294.332 59.750 C 293.959 59.722,293.746 59.914,293.850 60.186 C 294.018 60.623,292.875 61.943,292.539 61.700 C 292.115 61.395,291.623 61.697,291.400 62.400 C 290.960 63.785,283.317 63.604,282.964 62.200 C 282.807 61.574,282.430 61.200,281.957 61.200 C 281.280 61.200,280.955 60.351,281.153 59.100 C 281.179 58.935,281.001 58.800,280.757 58.800 C 280.514 58.800,280.422 58.521,280.553 58.179 C 280.684 57.838,280.639 57.652,280.454 57.766 C 280.269 57.881,279.863 57.755,279.551 57.487 C 278.919 56.944,278.969 50.210,279.603 50.602 C 280.149 50.939,280.687 49.840,280.958 47.834 C 281.015 47.413,281.469 46.918,281.968 46.733 C 282.467 46.549,282.969 46.038,283.084 45.599 C 283.200 45.157,283.630 44.800,284.047 44.800 C 284.461 44.800,284.800 44.609,284.800 44.376 C 284.800 44.143,284.974 44.060,285.187 44.192 C 285.400 44.323,285.803 44.064,286.083 43.616 C 286.668 42.678,288.942 42.485,289.761 43.304 M335.200 43.171 C 335.200 43.978,336.527 44.800,337.829 44.800 C 339.025 44.800,339.200 44.928,339.200 45.800 C 339.200 46.600,339.400 46.800,340.200 46.800 C 341.047 46.800,341.200 46.986,341.200 48.013 C 341.200 48.750,341.448 49.320,341.834 49.468 C 342.344 49.664,342.363 49.777,341.934 50.050 C 341.521 50.311,341.553 50.389,342.076 50.394 C 342.448 50.397,342.863 50.578,342.997 50.795 C 343.132 51.013,343.007 51.101,342.721 50.991 C 342.381 50.861,342.179 51.162,342.138 51.857 C 342.102 52.494,342.200 52.724,342.383 52.428 C 342.610 52.061,342.755 52.105,342.944 52.599 C 343.420 53.838,343.204 54.944,342.300 55.907 C 341.805 56.434,341.380 57.346,341.355 57.933 C 341.214 61.320,341.262 61.200,340.056 61.200 C 339.297 61.200,338.658 61.541,338.156 62.215 C 337.442 63.173,329.595 63.796,330.166 62.849 C 330.248 62.712,330.065 62.368,329.758 62.084 C 329.451 61.801,329.200 61.702,329.200 61.864 C 329.200 62.027,328.984 61.944,328.720 61.680 C 328.456 61.416,327.933 61.200,327.558 61.200 C 327.008 61.200,326.901 60.891,327.005 59.600 C 327.078 58.692,326.956 58.000,326.724 58.000 C 326.499 58.000,326.418 57.730,326.545 57.400 C 326.671 57.070,326.590 56.800,326.364 56.800 C 326.138 56.800,326.081 56.592,326.238 56.338 C 326.410 56.060,326.348 55.985,326.082 56.149 C 324.875 56.895,324.685 53.730,325.855 52.370 C 326.153 52.023,326.437 51.258,326.486 50.670 C 326.535 50.081,326.716 49.600,326.889 49.600 C 327.061 49.600,327.157 49.018,327.101 48.308 C 327.016 47.214,327.154 46.983,328.000 46.808 C 328.550 46.693,329.018 46.375,329.040 46.100 C 329.062 45.825,329.107 45.420,329.140 45.200 C 329.173 44.980,329.819 44.800,330.576 44.800 C 331.333 44.800,332.072 44.608,332.217 44.373 C 332.362 44.138,332.715 44.035,333.001 44.145 C 333.288 44.255,333.612 43.999,333.723 43.572 C 333.924 42.806,335.200 42.459,335.200 43.171 " stroke="none" fill="#0080ff" fill-rule="evenodd"></path><path id="path5" d="M49.223 10.228 C 49.480 10.538,49.862 10.685,50.072 10.556 C 50.538 10.268,50.192 9.875,49.366 9.754 C 48.884 9.683,48.854 9.783,49.223 10.228 M44.300 22.632 C 44.135 22.798,44.000 25.243,44.000 28.067 C 44.000 32.174,43.889 33.200,43.446 33.200 C 43.141 33.200,42.597 33.650,42.237 34.200 C 41.551 35.247,35.600 35.793,35.600 34.809 C 35.600 34.338,33.658 33.009,33.378 33.289 C 32.276 34.390,35.918 36.400,39.016 36.400 C 41.142 36.400,41.359 36.304,43.043 34.620 L 44.823 32.840 44.712 27.585 C 44.650 24.696,44.465 22.467,44.300 22.632 M35.257 42.129 C 34.418 42.614,34.783 42.677,38.601 42.700 C 41.810 42.720,42.772 42.612,42.430 42.270 C 41.741 41.581,36.389 41.476,35.257 42.129 M44.079 55.781 C 44.153 63.734,44.355 68.916,44.600 69.161 C 44.867 69.427,44.963 65.101,44.890 56.180 C 44.817 47.379,44.639 42.800,44.369 42.800 C 44.095 42.800,43.999 47.102,44.079 55.781 M98.399 70.202 C 97.637 71.012,97.584 71.200,98.116 71.200 C 98.477 71.200,98.973 70.825,99.218 70.366 C 99.874 69.140,99.472 69.059,98.399 70.202 M47.205 72.409 C 47.701 73.336,48.000 73.424,48.000 72.643 C 48.000 72.336,47.726 71.980,47.391 71.852 C 46.894 71.661,46.859 71.764,47.205 72.409 M75.386 75.900 C 75.936 77.321,76.090 80.365,75.672 81.564 C 75.336 82.530,75.355 82.800,75.759 82.800 C 77.626 82.800,78.389 77.798,76.784 76.075 C 75.802 75.021,75.006 74.921,75.386 75.900 M83.437 75.959 C 82.291 77.225,82.114 80.914,83.149 81.949 C 84.482 83.282,84.600 83.043,84.600 78.999 C 84.600 74.971,84.520 74.762,83.437 75.959 " stroke="none" fill="#40bfff" fill-rule="evenodd"></path><path id="path6" d="M35.200 2.000 C 34.965 2.440,34.913 2.827,35.086 2.860 C 35.259 2.893,34.590 3.028,33.600 3.160 C 32.261 3.339,31.701 3.627,31.412 4.284 C 31.199 4.770,30.659 5.220,30.212 5.284 C 29.438 5.395,29.395 5.713,29.290 12.108 C 29.165 19.760,29.306 20.280,31.613 20.648 L 33.200 20.902 33.200 26.987 L 33.200 33.072 34.211 33.532 C 34.767 33.786,35.327 34.265,35.454 34.597 C 35.898 35.752,41.432 35.429,42.237 34.200 C 42.597 33.650,43.141 33.200,43.446 33.200 C 43.889 33.200,44.000 32.167,44.000 28.024 C 44.000 24.915,44.164 22.746,44.411 22.593 C 44.636 22.454,44.771 22.044,44.711 21.683 C 44.635 21.233,44.979 20.952,45.800 20.791 C 46.460 20.661,46.955 20.341,46.900 20.078 C 46.845 19.815,46.991 19.600,47.224 19.600 C 47.457 19.600,47.536 19.420,47.400 19.200 C 47.264 18.980,47.523 18.800,47.976 18.800 C 48.470 18.800,48.825 18.520,48.863 18.100 C 48.897 17.715,48.960 16.926,49.002 16.346 C 49.045 15.767,49.479 14.732,49.967 14.046 C 50.455 13.361,50.692 12.800,50.494 12.800 C 50.296 12.800,50.165 12.395,50.203 11.900 C 50.242 11.405,49.965 10.781,49.589 10.514 C 49.156 10.207,48.972 9.680,49.087 9.077 C 49.192 8.528,49.001 7.858,48.635 7.492 C 48.286 7.143,48.000 6.684,48.000 6.471 C 48.000 6.259,47.727 5.981,47.394 5.853 C 47.061 5.725,46.619 5.176,46.412 4.632 C 46.139 3.914,45.622 3.565,44.527 3.360 C 43.672 3.199,42.699 2.671,42.280 2.138 C 41.244 0.821,35.887 0.716,35.200 2.000 M35.300 42.678 L 33.200 42.842 33.200 55.974 C 33.200 68.927,33.189 69.110,32.370 69.324 C 31.914 69.443,31.453 69.876,31.346 70.286 C 31.238 70.696,30.757 71.204,30.275 71.416 C 29.459 71.774,29.387 72.136,29.200 76.800 C 29.036 80.889,28.891 81.800,28.400 81.800 C 28.070 81.800,27.800 82.032,27.800 82.315 C 27.800 82.850,26.802 83.646,26.419 83.416 C 26.299 83.343,25.968 83.535,25.684 83.842 C 25.401 84.149,25.288 84.400,25.433 84.400 C 25.579 84.400,25.476 84.668,25.204 84.996 C 24.932 85.323,24.595 85.522,24.455 85.438 C 24.315 85.353,23.968 85.535,23.684 85.842 C 23.401 86.149,23.293 86.400,23.446 86.400 C 23.908 86.400,21.054 89.020,20.262 89.322 C 19.856 89.477,19.433 89.953,19.321 90.380 C 19.210 90.806,18.732 91.210,18.259 91.278 C 17.736 91.352,17.352 91.736,17.278 92.259 C 17.210 92.732,16.792 93.213,16.348 93.330 C 15.904 93.446,15.443 93.914,15.324 94.370 C 15.121 95.145,14.822 95.200,10.782 95.200 C 6.553 95.200,4.740 95.732,5.390 96.784 C 5.498 96.959,5.050 97.210,4.394 97.341 C 3.644 97.491,3.200 97.827,3.200 98.244 C 3.200 98.609,2.742 99.333,2.181 99.852 C 0.442 101.464,0.907 111.337,2.692 110.708 C 2.861 110.649,3.057 111.095,3.127 111.700 C 3.225 112.554,3.465 112.800,4.199 112.800 C 4.875 112.800,5.181 113.057,5.272 113.700 C 5.364 114.344,5.712 114.636,6.500 114.727 C 7.199 114.807,7.610 115.098,7.628 115.527 C 7.651 116.072,7.722 116.048,8.000 115.400 C 8.294 114.716,8.348 114.701,8.372 115.300 C 8.411 116.277,16.000 116.377,16.000 115.400 C 16.000 114.981,16.422 114.800,17.400 114.800 C 18.170 114.800,18.800 114.609,18.800 114.376 C 18.800 114.143,18.984 114.067,19.210 114.206 C 19.435 114.345,19.570 114.221,19.510 113.930 C 19.449 113.638,19.638 113.449,19.930 113.510 C 20.221 113.570,20.345 113.435,20.206 113.210 C 20.067 112.984,20.131 112.800,20.349 112.800 C 20.720 112.800,21.151 111.912,21.222 111.000 C 21.239 110.780,21.556 110.420,21.926 110.200 C 22.822 109.668,22.926 109.192,23.019 105.200 C 23.125 100.648,23.090 100.800,24.009 100.800 C 24.483 100.800,25.006 100.387,25.273 99.800 C 25.523 99.250,25.963 98.800,26.250 98.800 C 26.854 98.800,27.694 97.427,27.319 97.053 C 27.180 96.914,27.437 96.800,27.890 96.800 C 28.435 96.800,28.798 96.461,28.964 95.800 C 29.127 95.150,29.495 94.800,30.016 94.800 C 30.475 94.800,31.005 94.387,31.257 93.834 C 31.499 93.303,32.054 92.775,32.489 92.661 C 32.924 92.547,33.179 92.289,33.054 92.087 C 32.929 91.886,33.276 91.480,33.824 91.187 C 34.373 90.893,34.921 90.256,35.043 89.770 C 35.256 88.924,35.471 88.884,40.121 88.824 C 44.373 88.769,45.067 88.664,45.704 87.981 C 46.104 87.551,46.321 87.200,46.187 87.200 C 46.053 87.200,46.561 86.615,47.316 85.900 C 48.071 85.185,48.816 84.195,48.971 83.700 L 49.254 82.800 62.237 82.800 L 75.220 82.800 75.610 81.774 C 76.114 80.449,76.102 78.584,75.579 76.700 L 75.162 75.200 61.981 75.200 C 50.046 75.200,48.800 75.138,48.800 74.546 C 48.800 74.186,48.395 73.483,47.900 72.984 C 46.547 71.619,46.000 70.879,46.000 70.417 C 46.000 70.188,45.738 70.000,45.419 70.000 C 44.278 70.000,44.004 67.081,44.002 54.900 L 44.000 42.800 42.100 42.796 C 41.055 42.793,39.570 42.729,38.800 42.653 C 38.030 42.577,36.455 42.588,35.300 42.678 M103.553 67.547 C 103.527 67.686,103.524 67.929,103.548 68.086 C 103.571 68.243,103.351 68.279,103.059 68.167 C 102.767 68.055,102.297 68.242,102.015 68.582 C 101.733 68.922,101.103 69.200,100.615 69.200 C 100.057 69.200,99.559 69.571,99.273 70.200 C 99.006 70.787,98.483 71.200,98.009 71.200 C 97.284 71.200,96.973 71.836,97.163 72.930 C 97.194 73.111,97.050 73.154,96.842 73.026 C 96.365 72.731,95.200 73.869,95.200 74.629 C 95.200 75.094,94.246 75.200,90.047 75.200 C 84.141 75.200,84.416 75.002,84.405 79.267 C 84.397 82.941,84.172 82.800,90.016 82.800 C 94.795 82.800,95.163 82.855,95.400 83.600 C 95.540 84.040,96.002 84.400,96.427 84.400 C 96.979 84.400,97.200 84.678,97.200 85.373 C 97.200 86.000,97.489 86.438,98.013 86.604 C 98.460 86.746,99.262 87.298,99.795 87.831 C 101.677 89.713,112.800 89.149,112.800 87.171 C 112.800 86.967,113.250 86.800,113.800 86.800 C 114.593 86.800,114.800 86.598,114.800 85.827 C 114.800 85.214,115.088 84.762,115.580 84.606 C 117.283 84.066,117.673 74.874,116.048 73.558 C 115.562 73.165,115.173 72.744,115.182 72.622 C 115.239 71.904,115.084 71.634,113.953 70.476 C 113.109 69.613,112.324 69.200,111.529 69.200 C 110.882 69.200,110.459 69.028,110.589 68.817 C 111.029 68.106,108.624 67.289,106.100 67.292 C 104.725 67.293,103.579 67.408,103.553 67.547 " stroke="none" fill="#8fc7ff" fill-rule="evenodd"></path><path id="path7" d="M34.400 1.557 C 34.400 1.827,34.192 1.919,33.938 1.762 C 33.665 1.593,33.584 1.651,33.741 1.904 C 33.886 2.139,33.779 2.423,33.502 2.534 C 33.189 2.660,33.170 2.749,33.451 2.768 C 34.034 2.809,34.993 1.660,34.657 1.324 C 34.516 1.182,34.400 1.287,34.400 1.557 M99.338 1.817 C 98.991 2.721,99.302 2.769,100.100 1.933 C 100.692 1.313,100.706 1.200,100.187 1.200 C 99.851 1.200,99.468 1.478,99.338 1.817 M95.338 5.817 C 94.991 6.721,95.302 6.769,96.100 5.933 C 96.692 5.313,96.706 5.200,96.187 5.200 C 95.851 5.200,95.468 5.478,95.338 5.817 M94.800 15.533 C 94.800 15.790,94.665 15.955,94.500 15.900 C 94.335 15.845,94.170 15.960,94.134 16.155 C 94.098 16.351,93.828 16.663,93.534 16.849 C 93.236 17.038,93.194 17.190,93.438 17.194 C 94.041 17.202,95.390 15.657,95.064 15.331 C 94.919 15.186,94.800 15.277,94.800 15.533 M89.829 19.829 C 89.483 20.174,89.200 20.612,89.200 20.801 C 89.200 20.990,88.795 21.202,88.300 21.272 C 87.674 21.361,87.371 21.705,87.304 22.400 C 87.209 23.385,87.214 23.387,87.591 22.500 C 87.802 22.005,88.226 21.600,88.533 21.600 C 89.212 21.600,91.200 20.088,91.200 19.571 C 91.200 19.003,90.528 19.129,89.829 19.829 M235.680 21.680 C 235.416 21.944,235.214 22.619,235.232 23.180 C 235.250 23.788,235.352 23.958,235.482 23.600 C 235.603 23.270,236.070 22.595,236.521 22.100 C 237.409 21.123,236.628 20.732,235.680 21.680 M7.350 27.787 C 7.226 28.110,7.217 28.605,7.331 28.887 C 7.458 29.204,7.549 29.128,7.568 28.687 C 7.586 28.295,8.005 27.811,8.500 27.612 L 9.400 27.251 8.487 27.225 C 7.986 27.211,7.474 27.464,7.350 27.787 M19.900 29.933 C 20.698 30.769,21.009 30.721,20.662 29.817 C 20.532 29.478,20.149 29.200,19.813 29.200 C 19.294 29.200,19.308 29.313,19.900 29.933 M159.350 31.787 C 159.226 32.110,159.217 32.605,159.331 32.887 C 159.458 33.204,159.549 33.128,159.568 32.687 C 159.586 32.295,160.005 31.811,160.500 31.612 L 161.400 31.251 160.487 31.225 C 159.986 31.211,159.474 31.464,159.350 31.787 M281.338 31.817 C 280.991 32.721,281.302 32.769,282.100 31.933 C 282.692 31.313,282.706 31.200,282.187 31.200 C 281.851 31.200,281.468 31.478,281.338 31.817 M21.432 31.948 C 21.160 32.388,22.315 33.418,22.676 33.057 C 22.818 32.916,22.713 32.800,22.443 32.800 C 22.173 32.800,22.056 32.632,22.183 32.428 C 22.309 32.223,22.243 31.950,22.034 31.821 C 21.826 31.692,21.555 31.749,21.432 31.948 M172.800 32.600 C 172.800 32.930,173.092 33.200,173.449 33.200 C 173.980 33.200,174.008 33.091,173.600 32.600 C 173.326 32.270,173.034 32.000,172.951 32.000 C 172.868 32.000,172.800 32.270,172.800 32.600 M92.702 33.800 C 92.597 34.350,92.555 34.800,92.609 34.800 C 92.664 34.800,93.003 34.350,93.363 33.800 C 93.898 32.985,93.915 32.800,93.456 32.800 C 93.146 32.800,92.807 33.250,92.702 33.800 M177.658 34.182 C 178.176 34.723,178.662 34.987,178.738 34.769 C 178.933 34.208,178.015 33.200,177.309 33.200 C 176.880 33.200,176.976 33.471,177.658 34.182 M196.681 34.213 C 195.725 35.527,196.614 35.517,197.835 34.200 C 198.615 33.358,198.654 33.202,198.081 33.213 C 197.706 33.219,197.077 33.669,196.681 34.213 M221.658 34.182 C 222.176 34.723,222.662 34.987,222.738 34.769 C 223.006 33.998,222.413 33.200,221.571 33.200 C 220.722 33.200,220.722 33.206,221.658 34.182 M300.538 34.197 C 300.792 34.745,301.233 35.195,301.519 35.197 C 301.889 35.199,301.832 34.918,301.319 34.213 C 300.387 32.932,299.947 32.923,300.538 34.197 M346.571 33.829 C 346.917 34.174,347.200 34.624,347.200 34.829 C 347.200 35.033,347.470 35.200,347.800 35.200 C 348.673 35.200,348.535 34.540,347.511 33.823 C 346.359 33.016,345.762 33.020,346.571 33.829 M355.297 34.174 C 355.252 34.766,355.327 34.841,355.570 34.448 C 355.755 34.150,356.150 33.755,356.448 33.570 C 356.841 33.327,356.766 33.252,356.174 33.297 C 355.663 33.335,355.335 33.663,355.297 34.174 M179.900 35.933 C 180.698 36.769,181.009 36.721,180.662 35.817 C 180.532 35.478,180.149 35.200,179.813 35.200 C 179.294 35.200,179.308 35.313,179.900 35.933 M377.680 35.680 C 377.128 36.232,377.038 37.200,377.538 37.200 C 377.925 37.200,379.200 35.872,379.200 35.469 C 379.200 35.025,378.195 35.165,377.680 35.680 M303.432 35.948 C 303.160 36.388,304.315 37.418,304.676 37.057 C 304.818 36.916,304.713 36.800,304.443 36.800 C 304.173 36.800,304.056 36.632,304.183 36.428 C 304.309 36.223,304.243 35.950,304.034 35.821 C 303.826 35.692,303.555 35.749,303.432 35.948 M355.200 36.419 C 355.200 37.579,356.941 39.252,357.129 38.273 C 357.205 37.877,356.802 37.123,356.234 36.596 C 355.269 35.702,355.200 35.690,355.200 36.419 M372.825 36.274 C 372.774 37.239,373.586 38.765,374.378 39.188 C 375.142 39.597,375.165 39.561,374.733 38.613 C 374.479 38.056,374.115 37.600,373.923 37.600 C 373.731 37.600,373.411 37.195,373.212 36.700 C 373.013 36.205,372.839 36.013,372.825 36.274 M225.087 37.611 C 225.307 38.451,226.304 39.430,226.619 39.114 C 226.956 38.778,226.426 37.809,225.636 37.315 C 224.991 36.912,224.915 36.953,225.087 37.611 M181.083 38.103 C 181.199 38.706,181.527 39.200,181.813 39.200 C 182.099 39.200,182.424 39.425,182.535 39.700 C 182.681 40.063,182.746 40.069,182.768 39.722 C 182.786 39.460,182.367 38.741,181.837 38.125 L 180.874 37.005 181.083 38.103 M304.800 38.535 C 304.800 38.850,305.250 39.403,305.800 39.763 C 307.155 40.651,307.144 39.669,305.787 38.681 C 304.999 38.107,304.800 38.078,304.800 38.535 M191.350 39.787 C 190.891 40.981,191.445 41.217,192.378 40.224 L 193.339 39.200 192.457 39.200 C 191.972 39.200,191.474 39.464,191.350 39.787 M227.200 41.718 C 227.200 42.434,228.315 43.418,228.696 43.038 C 229.029 42.704,228.329 41.510,227.671 41.290 C 227.412 41.204,227.200 41.396,227.200 41.718 M391.900 42.067 C 391.308 42.687,391.294 42.800,391.813 42.800 C 392.149 42.800,392.532 42.522,392.662 42.183 C 393.009 41.279,392.698 41.231,391.900 42.067 M190.100 42.794 C 189.605 43.198,189.200 43.737,189.200 43.993 C 189.200 44.288,189.416 44.241,189.793 43.864 C 190.119 43.538,190.596 43.201,190.853 43.116 C 191.110 43.030,191.248 42.758,191.160 42.510 C 191.057 42.219,190.682 42.320,190.100 42.794 M69.310 43.596 C 69.368 44.238,69.684 44.642,70.200 44.732 C 70.924 44.859,70.938 44.821,70.346 44.336 C 69.986 44.041,69.586 43.530,69.457 43.200 C 69.327 42.870,69.261 43.048,69.310 43.596 M333.994 44.018 L 333.000 44.782 333.913 44.791 C 334.414 44.796,334.932 44.522,335.062 44.183 C 335.426 43.233,335.084 43.181,333.994 44.018 M312.100 44.960 C 311.233 46.066,310.880 47.613,311.500 47.587 C 312.116 47.562,313.248 45.548,313.126 44.696 C 313.004 43.841,312.971 43.850,312.100 44.960 M21.943 44.668 C 21.581 44.764,21.201 45.284,21.097 45.825 C 20.942 46.636,21.008 46.725,21.477 46.336 C 21.971 45.926,23.022 44.321,22.714 44.446 C 22.651 44.472,22.304 44.571,21.943 44.668 M209.300 44.676 C 209.685 44.776,210.315 44.776,210.700 44.676 C 211.085 44.575,210.770 44.493,210.000 44.493 C 209.230 44.493,208.915 44.575,209.300 44.676 M87.128 45.700 C 87.046 46.278,86.678 46.646,86.100 46.728 C 85.275 46.845,84.711 48.412,85.500 48.393 C 85.826 48.385,88.400 45.397,88.400 45.027 C 88.400 44.330,87.235 44.947,87.128 45.700 M291.310 45.596 C 291.368 46.238,291.684 46.642,292.200 46.732 C 292.924 46.859,292.938 46.821,292.346 46.336 C 291.986 46.041,291.586 45.530,291.457 45.200 C 291.327 44.870,291.261 45.048,291.310 45.596 M329.669 45.639 C 329.380 46.100,329.226 46.559,329.325 46.658 C 329.562 46.896,330.800 45.648,330.800 45.171 C 330.800 44.526,330.212 44.768,329.669 45.639 M337.271 45.457 C 337.425 46.243,338.645 47.089,339.045 46.688 C 339.362 46.372,338.083 44.800,337.509 44.800 C 337.307 44.800,337.200 45.096,337.271 45.457 M361.460 45.411 C 361.934 46.647,363.200 46.940,363.200 45.814 C 363.200 45.002,363.003 44.800,362.213 44.800 C 361.491 44.800,361.288 44.965,361.460 45.411 M167.200 45.700 C 167.200 46.059,167.392 46.471,167.627 46.616 C 168.313 47.040,168.380 46.661,167.767 45.823 C 167.293 45.174,167.200 45.154,167.200 45.700 M205.669 46.249 C 204.751 47.129,204.750 47.138,205.602 46.915 C 206.078 46.791,206.565 46.436,206.683 46.127 C 207.023 45.241,206.677 45.283,205.669 46.249 M388.100 46.682 C 387.537 46.791,387.200 47.145,387.200 47.628 C 387.200 48.692,387.780 48.595,388.563 47.400 C 388.924 46.850,389.169 46.425,389.109 46.454 C 389.049 46.484,388.595 46.587,388.100 46.682 M18.921 47.838 C 18.458 48.835,18.471 48.850,19.299 48.300 C 20.327 47.618,20.674 46.799,19.933 46.803 C 19.640 46.805,19.185 47.270,18.921 47.838 M73.200 47.627 C 73.200 48.066,73.464 48.526,73.787 48.650 C 74.860 49.062,75.011 48.611,74.100 47.714 C 73.230 46.858,73.200 46.855,73.200 47.627 M281.200 47.649 C 281.200 48.358,281.299 48.416,281.800 48.000 C 282.130 47.726,282.400 47.344,282.400 47.151 C 282.400 46.958,282.130 46.800,281.800 46.800 C 281.455 46.800,281.200 47.161,281.200 47.649 M327.200 47.649 C 327.200 48.358,327.299 48.416,327.800 48.000 C 328.130 47.726,328.400 47.344,328.400 47.151 C 328.400 46.958,328.130 46.800,327.800 46.800 C 327.455 46.800,327.200 47.161,327.200 47.649 M293.200 47.700 C 293.200 48.059,293.392 48.471,293.627 48.616 C 294.313 49.040,294.380 48.661,293.767 47.823 C 293.293 47.174,293.200 47.154,293.200 47.700 M229.802 50.002 C 230.598 50.882,231.034 50.788,230.662 49.817 C 230.532 49.478,230.122 49.200,229.751 49.200 C 229.135 49.200,229.140 49.270,229.802 50.002 M309.200 49.637 C 309.200 49.877,309.560 50.531,310.000 51.091 C 310.746 52.040,310.800 52.052,310.800 51.283 C 310.800 50.829,310.517 50.174,310.171 49.829 C 309.430 49.087,309.200 49.042,309.200 49.637 M341.324 53.800 C 341.326 55.120,341.401 55.612,341.490 54.893 C 341.579 54.174,341.577 53.094,341.486 52.493 C 341.395 51.892,341.322 52.480,341.324 53.800 M230.893 54.000 C 230.893 54.770,230.975 55.085,231.076 54.700 C 231.176 54.315,231.176 53.685,231.076 53.300 C 230.975 52.915,230.893 53.230,230.893 54.000 M295.200 53.424 C 295.200 53.767,295.380 53.936,295.600 53.800 C 296.104 53.489,296.110 53.847,295.617 54.768 C 295.292 55.376,295.375 55.456,296.177 55.302 C 297.096 55.127,297.102 55.095,296.459 53.964 C 295.733 52.688,295.200 52.459,295.200 53.424 M325.500 53.428 C 324.948 53.989,325.192 55.002,326.000 55.507 C 326.474 55.803,326.800 55.843,326.800 55.603 C 326.800 55.382,326.632 55.200,326.427 55.200 C 326.221 55.200,325.996 54.733,325.927 54.162 C 325.857 53.591,325.665 53.261,325.500 53.428 M366.080 54.080 C 365.375 54.785,365.493 55.200,366.400 55.200 C 366.933 55.200,367.200 54.933,367.200 54.400 C 367.200 53.493,366.785 53.375,366.080 54.080 M385.900 55.933 C 386.698 56.769,387.009 56.721,386.662 55.817 C 386.532 55.478,386.149 55.200,385.813 55.200 C 385.294 55.200,385.308 55.313,385.900 55.933 M279.200 56.400 C 279.200 56.938,279.467 57.200,280.014 57.200 C 280.704 57.200,280.763 57.078,280.400 56.400 C 280.165 55.960,279.798 55.600,279.586 55.600 C 279.374 55.600,279.200 55.960,279.200 56.400 M229.881 57.837 C 229.254 58.677,229.243 58.800,229.794 58.800 C 230.444 58.800,230.982 57.917,230.738 57.250 C 230.662 57.043,230.277 57.307,229.881 57.837 M311.244 58.900 C 311.208 60.787,311.361 61.361,312.100 62.100 L 313.000 63.000 313.132 62.068 C 313.206 61.547,312.983 60.929,312.627 60.668 C 312.277 60.410,311.832 59.390,311.639 58.400 L 311.288 56.600 311.244 58.900 M217.297 60.174 C 217.252 60.766,217.327 60.841,217.570 60.448 C 217.755 60.150,218.150 59.755,218.448 59.570 C 218.841 59.327,218.766 59.252,218.174 59.297 C 217.663 59.335,217.335 59.663,217.297 60.174 M327.200 60.400 C 327.200 60.938,327.467 61.200,328.014 61.200 C 328.704 61.200,328.763 61.078,328.400 60.400 C 328.165 59.960,327.798 59.600,327.586 59.600 C 327.374 59.600,327.200 59.960,327.200 60.400 M206.921 62.162 C 207.185 62.730,207.640 63.195,207.933 63.197 C 208.674 63.201,208.327 62.382,207.299 61.700 C 206.471 61.150,206.458 61.165,206.921 62.162 M214.800 61.600 C 214.800 61.820,214.665 61.955,214.500 61.900 C 214.335 61.845,214.170 61.960,214.134 62.155 C 214.098 62.351,213.828 62.663,213.534 62.849 C 213.240 63.035,213.194 63.191,213.430 63.194 C 213.667 63.197,214.283 62.750,214.800 62.200 C 215.317 61.650,215.528 61.200,215.270 61.200 C 215.011 61.200,214.800 61.380,214.800 61.600 M226.751 62.079 C 226.930 62.563,227.302 63.034,227.578 63.126 C 227.900 63.233,227.834 62.918,227.394 62.247 C 226.557 60.969,226.317 60.907,226.751 62.079 M251.658 62.182 C 252.176 62.723,252.662 62.987,252.738 62.769 C 252.933 62.208,252.015 61.200,251.309 61.200 C 250.880 61.200,250.976 61.471,251.658 62.182 M283.285 62.078 C 283.928 63.045,284.800 63.497,284.800 62.862 C 284.800 62.331,283.659 61.200,283.123 61.200 C 282.878 61.200,282.947 61.568,283.285 62.078 M390.806 62.630 C 390.803 62.867,391.250 63.483,391.800 64.000 C 392.642 64.791,392.800 64.832,392.800 64.257 C 392.800 63.882,392.485 63.459,392.100 63.317 C 391.715 63.175,391.268 62.865,391.106 62.629 C 390.897 62.324,390.810 62.324,390.806 62.630 M235.310 63.596 C 235.368 64.238,235.684 64.642,236.200 64.732 C 236.924 64.859,236.938 64.821,236.346 64.336 C 235.986 64.041,235.586 63.530,235.457 63.200 C 235.327 62.870,235.261 63.048,235.310 63.596 M357.350 65.787 C 356.938 66.860,357.389 67.011,358.286 66.100 C 359.142 65.230,359.145 65.200,358.373 65.200 C 357.934 65.200,357.474 65.464,357.350 65.787 M191.256 67.390 C 191.339 67.824,191.765 68.366,192.204 68.593 C 193.495 69.262,195.091 70.940,195.256 71.801 C 195.340 72.240,195.772 72.652,196.216 72.716 C 196.661 72.780,197.199 73.229,197.412 73.714 C 197.625 74.199,198.160 74.662,198.600 74.744 C 199.160 74.849,198.770 74.262,197.300 72.789 C 195.956 71.443,195.200 70.346,195.200 69.743 C 195.200 69.018,194.981 68.800,194.255 68.800 C 193.735 68.800,192.813 68.305,192.207 67.700 C 191.264 66.758,191.127 66.714,191.256 67.390 M393.802 68.002 C 394.598 68.882,395.034 68.788,394.662 67.817 C 394.532 67.478,394.122 67.200,393.751 67.200 C 393.135 67.200,393.140 67.270,393.802 68.002 M377.200 69.309 C 377.200 70.015,378.208 70.933,378.769 70.738 C 378.987 70.662,378.723 70.176,378.182 69.658 C 377.471 68.976,377.200 68.880,377.200 69.309 M237.200 69.700 C 237.200 70.059,237.392 70.471,237.627 70.616 C 238.313 71.040,238.380 70.661,237.767 69.823 C 237.293 69.174,237.200 69.154,237.200 69.700 M395.200 69.738 C 395.200 70.034,395.560 70.602,396.000 71.000 C 397.018 71.921,397.177 70.834,396.171 69.829 C 395.402 69.060,395.200 69.041,395.200 69.738 M226.600 70.706 C 225.837 71.267,225.104 72.400,225.505 72.400 C 225.727 72.400,226.203 71.950,226.563 71.400 C 227.251 70.350,227.258 70.223,226.600 70.706 M96.848 71.500 C 96.633 71.885,96.354 72.155,96.228 72.100 C 96.103 72.045,96.015 72.115,96.034 72.255 C 96.053 72.396,95.828 72.663,95.534 72.849 C 95.236 73.038,95.194 73.190,95.438 73.194 C 95.679 73.197,96.147 72.885,96.477 72.500 C 97.248 71.602,97.704 70.800,97.443 70.800 C 97.331 70.800,97.063 71.115,96.848 71.500 M169.310 73.596 C 169.368 74.238,169.684 74.642,170.200 74.732 C 170.924 74.859,170.938 74.821,170.346 74.336 C 169.986 74.041,169.586 73.530,169.457 73.200 C 169.327 72.870,169.261 73.048,169.310 73.596 M223.200 73.167 C 223.200 73.369,223.090 73.821,222.955 74.172 C 222.607 75.079,223.899 74.535,224.425 73.553 C 224.758 72.930,224.687 72.800,224.014 72.800 C 223.566 72.800,223.200 72.965,223.200 73.167 M379.600 73.120 C 379.600 73.534,380.466 74.400,380.880 74.400 C 381.056 74.400,381.200 74.040,381.200 73.600 C 381.200 73.067,380.933 72.800,380.400 72.800 C 379.960 72.800,379.600 72.944,379.600 73.120 M299.900 74.067 C 299.308 74.687,299.294 74.800,299.813 74.800 C 300.149 74.800,300.532 74.522,300.662 74.183 C 301.009 73.279,300.698 73.231,299.900 74.067 M321.200 73.700 C 321.200 74.059,321.392 74.471,321.627 74.616 C 322.313 75.040,322.380 74.661,321.767 73.823 C 321.293 73.174,321.200 73.154,321.200 73.700 M146.400 75.400 C 146.929 76.037,149.005 76.256,148.621 75.634 C 148.497 75.433,148.621 75.177,148.898 75.066 C 149.174 74.954,148.613 74.849,147.651 74.832 C 146.140 74.804,145.970 74.882,146.400 75.400 M153.333 75.400 C 153.333 75.752,153.698 76.000,154.218 76.000 C 154.704 76.000,155.326 75.730,155.600 75.400 C 156.026 74.886,155.899 74.800,154.716 74.800 C 153.754 74.800,153.333 74.982,153.333 75.400 M172.400 75.400 C 172.929 76.037,175.005 76.256,174.621 75.634 C 174.497 75.433,174.621 75.177,174.898 75.066 C 175.174 74.954,174.613 74.849,173.651 74.832 C 172.140 74.804,171.970 74.882,172.400 75.400 M203.600 75.101 C 203.600 75.951,204.724 76.329,208.060 76.604 C 211.720 76.904,216.536 76.544,216.197 75.995 C 216.086 75.815,216.221 75.577,216.498 75.466 C 216.774 75.354,214.548 75.249,211.550 75.232 C 208.553 75.214,205.538 75.088,204.850 74.950 C 204.115 74.803,203.600 74.865,203.600 75.101 M246.400 75.400 C 246.929 76.037,249.005 76.256,248.621 75.634 C 248.497 75.433,248.621 75.177,248.898 75.066 C 249.174 74.954,248.613 74.849,247.651 74.832 C 246.140 74.804,245.970 74.882,246.400 75.400 M255.333 75.400 C 255.333 75.752,255.698 76.000,256.218 76.000 C 256.704 76.000,257.326 75.730,257.600 75.400 C 258.026 74.886,257.899 74.800,256.716 74.800 C 255.754 74.800,255.333 74.982,255.333 75.400 M275.333 75.400 C 275.333 75.752,275.698 76.000,276.218 76.000 C 276.704 76.000,277.326 75.730,277.600 75.400 C 278.026 74.886,277.899 74.800,276.716 74.800 C 275.754 74.800,275.333 74.982,275.333 75.400 M281.600 75.157 C 281.600 77.142,293.102 77.466,295.294 75.543 L 296.200 74.749 293.620 75.003 C 292.200 75.143,290.689 75.445,290.262 75.674 C 289.722 75.963,289.044 75.960,288.042 75.665 C 286.072 75.085,281.600 74.733,281.600 75.157 M326.575 75.547 C 327.350 76.322,330.053 76.765,334.000 76.765 C 337.947 76.765,340.650 76.322,341.425 75.547 C 341.887 75.084,340.739 75.000,334.000 75.000 C 327.261 75.000,326.113 75.084,326.575 75.547 M356.400 75.400 C 356.929 76.037,359.005 76.256,358.621 75.634 C 358.497 75.433,358.621 75.177,358.898 75.066 C 359.174 74.954,358.613 74.849,357.651 74.832 C 356.140 74.804,355.970 74.882,356.400 75.400 M365.333 75.400 C 365.333 75.752,365.698 76.000,366.218 76.000 C 366.704 76.000,367.326 75.730,367.600 75.400 C 368.026 74.886,367.899 74.800,366.716 74.800 C 365.754 74.800,365.333 74.982,365.333 75.400 M251.945 75.558 C 252.406 75.849,252.406 75.937,251.945 76.120 C 251.645 76.239,252.086 76.351,252.924 76.368 C 253.762 76.386,254.345 76.235,254.221 76.034 C 254.097 75.833,254.221 75.577,254.498 75.466 C 254.774 75.354,254.190 75.252,253.200 75.238 C 252.043 75.221,251.595 75.336,251.945 75.558 M35.887 89.832 C 35.350 90.549,35.318 90.730,35.756 90.561 C 36.076 90.439,36.446 90.056,36.578 89.712 C 36.952 88.737,36.669 88.786,35.887 89.832 M71.479 95.500 C 71.386 95.665,71.193 96.294,71.048 96.898 C 70.904 97.501,70.654 97.951,70.493 97.898 C 70.332 97.844,70.170 97.960,70.134 98.155 C 70.098 98.351,69.828 98.663,69.534 98.849 C 69.237 99.037,69.194 99.190,69.437 99.194 C 69.678 99.197,70.634 98.300,71.561 97.200 C 72.999 95.495,73.130 95.200,72.447 95.200 C 72.007 95.200,71.571 95.335,71.479 95.500 M86.751 96.079 C 86.930 96.563,87.302 97.034,87.578 97.126 C 87.900 97.233,87.834 96.918,87.394 96.247 C 86.557 94.969,86.317 94.907,86.751 96.079 M4.400 96.600 C 3.992 97.091,4.020 97.200,4.551 97.200 C 4.908 97.200,5.200 96.930,5.200 96.600 C 5.200 96.270,5.132 96.000,5.049 96.000 C 4.966 96.000,4.674 96.270,4.400 96.600 M23.887 101.832 C 23.350 102.549,23.318 102.730,23.756 102.561 C 24.076 102.439,24.446 102.056,24.578 101.712 C 24.952 100.737,24.669 100.786,23.887 101.832 M21.693 111.600 C 21.416 112.043,21.367 112.400,21.583 112.400 C 21.797 112.400,22.165 112.040,22.400 111.600 C 22.635 111.160,22.685 110.800,22.510 110.800 C 22.335 110.800,21.968 111.160,21.693 111.600 M75.200 115.400 C 75.200 115.730,75.380 116.000,75.600 116.000 C 75.820 116.000,76.000 115.730,76.000 115.400 C 76.000 115.070,75.820 114.800,75.600 114.800 C 75.380 114.800,75.200 115.070,75.200 115.400 M82.800 115.400 C 82.800 115.730,83.070 116.000,83.400 116.000 C 83.730 116.000,84.000 115.730,84.000 115.400 C 84.000 115.070,83.730 114.800,83.400 114.800 C 83.070 114.800,82.800 115.070,82.800 115.400 " stroke="none" fill="#0000ff" fill-rule="evenodd"></path><path id="path8" d="" stroke="none" fill="#5555ff" fill-rule="evenodd"></path><path id="path9" d="M47.235 5.678 C 47.584 5.965,47.975 6.470,48.104 6.800 C 48.293 7.286,48.343 7.270,48.368 6.714 C 48.386 6.337,47.995 5.832,47.500 5.592 C 46.737 5.222,46.696 5.235,47.235 5.678 M47.700 19.300 C 47.755 19.575,47.605 19.765,47.367 19.722 C 47.128 19.679,46.933 19.905,46.933 20.224 C 46.933 20.702,47.060 20.689,47.657 20.148 C 48.055 19.788,48.285 19.337,48.167 19.147 C 47.852 18.637,47.585 18.725,47.700 19.300 M45.275 69.848 C 45.647 69.958,46.042 70.353,46.152 70.725 C 46.299 71.214,46.332 71.181,46.272 70.605 C 46.225 70.138,45.862 69.775,45.395 69.728 C 44.819 69.668,44.786 69.701,45.275 69.848 M31.630 93.364 C 31.309 93.750,31.294 94.011,31.581 94.188 C 31.811 94.331,32.014 94.392,32.031 94.324 C 32.419 92.755,32.324 92.528,31.630 93.364 M25.630 99.364 C 25.309 99.750,25.294 100.011,25.581 100.188 C 25.811 100.331,26.014 100.392,26.031 100.324 C 26.419 98.755,26.324 98.528,25.630 99.364 M21.781 110.326 C 21.571 110.477,21.345 110.855,21.277 111.168 C 21.173 111.653,21.259 111.655,21.877 111.181 C 22.275 110.876,22.657 110.593,22.727 110.553 C 22.796 110.513,22.698 110.384,22.508 110.266 C 22.317 110.149,21.990 110.176,21.781 110.326 " stroke="none" fill="#8080ff" fill-rule="evenodd"></path></g></svg>
