<svg id="svg" version="1.1" width="558" height="500" xmlns="http://www.w3.org/2000/svg" xmlns:xlink="http://www.w3.org/1999/xlink" style="display: block;"><g id="svgg"><path id="path0" d="M0.000 179.211 L 0.000 358.423 200.000 358.423 L 400.000 358.423 400.000 179.211 L 400.000 0.000 200.000 0.000 L 0.000 0.000 0.000 179.211 M111.881 123.335 C 113.835 124.727,115.447 127.411,116.473 130.985 C 117.741 135.401,112.562 141.219,107.363 141.219 C 104.157 141.219,103.605 141.478,101.264 144.086 C 99.848 145.663,98.259 146.953,97.732 146.953 C 97.205 146.953,96.774 147.264,96.774 147.643 C 96.774 148.598,90.626 154.839,89.685 154.839 C 89.158 154.839,89.177 155.403,89.745 156.650 C 90.371 158.024,90.367 158.665,89.730 159.303 C 89.267 159.765,88.889 160.825,88.889 161.658 C 88.889 162.491,87.921 164.100,86.738 165.233 L 84.588 167.293 84.588 181.496 L 84.588 195.699 90.502 195.699 C 96.390 195.699,96.425 195.688,98.397 193.216 C 104.364 185.737,115.054 189.389,115.054 198.907 C 115.054 208.527,104.269 212.202,98.302 204.616 C 97.034 203.004,96.443 202.867,90.757 202.867 L 84.588 202.867 84.588 209.181 C 84.588 214.987,84.744 215.682,86.525 217.833 C 90.175 222.239,90.752 229.606,87.530 230.680 C 87.095 230.825,86.738 231.268,86.738 231.665 C 86.738 235.072,77.178 236.418,73.796 233.487 C 68.460 228.861,67.886 222.573,72.401 218.193 L 75.268 215.412 75.268 209.140 L 75.269 202.867 61.665 202.867 L 48.062 202.867 46.863 204.696 C 45.179 207.267,42.219 208.602,38.207 208.602 C 33.253 208.602,21.120 220.513,21.890 224.620 C 22.169 226.108,22.043 227.266,21.570 227.559 C 21.140 227.824,20.789 228.607,20.789 229.299 C 20.789 234.171,10.217 236.849,6.132 233.012 C -1.075 226.241,2.634 216.500,12.605 216.012 C 17.907 215.753,29.391 204.861,29.391 200.092 C 29.391 196.352,30.217 194.302,32.916 191.347 L 35.125 188.928 35.125 176.261 C 35.125 161.687,35.703 162.724,27.591 162.724 C 22.545 162.724,20.072 163.660,20.072 165.570 C 20.072 166.589,14.398 169.176,12.162 169.176 C 9.006 169.176,4.923 166.683,3.072 163.626 C -3.038 153.533,12.138 143.100,19.758 152.155 C 21.950 154.761,30.286 155.944,33.674 154.131 C 35.869 152.957,35.640 142.458,33.383 140.808 C 25.795 135.259,29.479 123.297,38.776 123.297 C 48.293 123.297,52.093 135.055,44.356 140.565 C 42.389 141.966,42.294 142.288,42.294 147.576 C 42.294 155.100,41.787 154.839,56.355 154.839 L 68.696 154.839 71.404 151.981 C 74.441 148.776,77.143 147.649,81.362 147.827 C 85.998 148.022,95.709 138.223,95.506 133.554 C 95.322 129.317,98.473 123.297,100.876 123.297 C 101.380 123.297,101.792 122.975,101.792 122.581 C 101.792 121.175,109.675 121.765,111.881 123.335 M277.727 136.610 C 278.617 137.501,278.853 139.426,278.853 145.805 L 278.853 153.874 281.012 153.557 C 282.200 153.382,283.348 152.954,283.564 152.606 C 284.105 151.730,292.285 151.803,292.832 152.688 C 293.075 153.082,293.932 153.405,294.735 153.405 C 297.509 153.405,304.659 158.353,304.659 160.272 C 304.659 160.748,305.143 161.323,305.735 161.550 C 306.326 161.776,306.820 162.537,306.833 163.239 C 306.845 163.941,307.329 165.142,307.908 165.908 C 309.326 167.782,309.404 180.816,308.006 182.214 C 307.481 182.739,306.830 184.052,306.559 185.133 C 306.288 186.213,305.749 187.097,305.363 187.097 C 304.976 187.097,304.659 187.444,304.659 187.869 C 304.659 188.924,301.184 192.201,298.445 193.728 C 295.891 195.151,280.747 195.589,279.927 194.263 C 279.630 193.783,279.038 193.783,278.140 194.263 C 275.911 195.456,268.755 195.148,267.261 193.796 C 265.368 192.083,265.228 140.120,267.108 137.251 C 268.537 135.069,275.750 134.634,277.727 136.610 M248.310 143.069 C 248.550 143.693,248.746 146.274,248.746 148.804 L 248.746 153.405 252.630 153.405 C 258.504 153.405,258.781 153.632,258.781 158.448 C 258.781 163.841,257.793 164.875,252.637 164.875 L 248.746 164.875 248.746 173.169 C 248.746 182.750,249.128 183.513,253.927 183.513 C 258.020 183.513,258.781 184.412,258.781 189.247 C 258.781 194.549,258.215 194.982,251.279 194.982 C 244.709 194.982,241.122 193.588,239.567 190.429 C 239.052 189.385,238.326 188.530,237.954 188.530 C 237.555 188.530,237.276 183.671,237.276 176.746 L 237.276 164.961 234.588 164.739 L 231.900 164.516 231.690 158.961 L 231.481 153.405 234.378 153.405 L 237.276 153.405 237.276 148.148 C 237.276 145.257,237.491 142.676,237.754 142.413 C 238.828 141.339,247.862 141.901,248.310 143.069 M170.968 152.688 C 171.211 153.082,171.989 153.405,172.695 153.405 C 174.365 153.405,179.881 157.408,180.390 158.989 C 180.606 159.663,181.253 161.183,181.827 162.366 C 182.663 164.087,182.828 167.518,182.654 179.570 L 182.437 194.624 177.061 194.624 L 171.685 194.624 171.286 182.437 C 170.719 165.113,168.568 160.811,162.119 164.101 C 158.420 165.988,158.423 165.976,158.423 179.908 C 158.423 194.986,158.335 195.160,150.895 194.840 L 145.878 194.624 145.878 174.194 L 145.878 153.763 153.321 153.632 C 157.456 153.560,161.104 153.162,161.529 152.736 C 162.497 151.768,170.374 151.728,170.968 152.688 M214.695 152.688 C 214.939 153.082,215.886 153.405,216.800 153.405 C 217.715 153.405,218.864 153.889,219.355 154.480 C 219.846 155.072,220.620 155.556,221.075 155.556 C 224.405 155.556,228.767 165.324,228.523 172.235 L 228.315 178.136 215.771 178.538 C 201.926 178.981,202.867 178.866,202.867 180.114 C 202.867 184.036,214.350 185.176,218.170 181.634 C 220.690 179.297,222.077 179.483,225.627 182.635 C 229.933 186.457,229.169 188.804,222.187 193.212 C 218.610 195.470,204.519 195.860,200.502 193.813 C 197.626 192.347,191.398 185.802,191.398 184.246 C 191.398 183.606,190.995 182.679,190.502 182.186 C 189.342 181.026,189.291 168.611,190.437 166.238 C 190.894 165.291,191.456 164.032,191.687 163.441 C 192.795 160.597,197.158 155.556,198.511 155.556 C 198.936 155.556,199.283 155.248,199.283 154.871 C 199.283 154.495,200.416 153.974,201.800 153.715 C 203.184 153.455,204.494 152.956,204.710 152.607 C 205.252 151.730,214.148 151.802,214.695 152.688 M338.710 152.688 C 338.953 153.082,340.078 153.405,341.210 153.405 C 342.341 153.405,343.751 153.889,344.342 154.480 C 344.933 155.072,345.713 155.556,346.074 155.556 C 348.292 155.556,354.170 163.247,355.341 167.681 C 356.803 173.215,355.570 184.096,353.398 184.827 C 353.008 184.958,352.686 185.442,352.683 185.902 C 352.675 187.094,347.021 192.432,344.301 193.816 C 340.928 195.531,326.903 195.471,323.781 193.728 C 320.757 192.040,315.412 187.081,315.412 185.965 C 315.412 185.470,315.067 184.951,314.646 184.810 C 313.549 184.445,312.566 175.376,313.029 169.892 C 313.516 164.120,318.839 155.556,321.940 155.556 C 322.349 155.556,323.167 155.072,323.758 154.480 C 324.350 153.889,325.759 153.405,326.891 153.405 C 328.022 153.405,329.147 153.082,329.391 152.688 C 329.634 152.294,331.731 151.971,334.050 151.971 C 336.369 151.971,338.466 152.294,338.710 152.688 M370.883 155.866 C 371.915 157.220,372.760 158.506,372.760 158.725 C 372.760 160.981,376.644 162.698,377.347 160.753 C 379.524 154.730,381.501 153.405,388.306 153.405 C 394.646 153.405,396.786 154.614,394.023 156.634 C 393.368 157.114,392.832 157.850,392.832 158.272 C 392.832 158.693,392.428 159.469,391.935 159.996 C 391.443 160.523,390.453 162.105,389.736 163.511 C 389.020 164.918,387.689 166.872,386.778 167.854 C 385.868 168.836,384.900 170.341,384.628 171.199 C 384.356 172.058,383.847 172.760,383.498 172.760 C 382.944 172.760,384.688 176.800,385.663 177.777 C 385.860 177.975,388.056 181.154,390.542 184.842 C 396.599 193.827,396.470 194.558,388.778 194.831 L 382.933 195.038 381.251 192.695 C 379.013 189.577,377.896 187.718,377.347 186.201 C 376.642 184.249,372.760 186.220,372.760 188.530 C 372.760 188.925,372.459 189.247,372.091 189.247 C 371.724 189.247,371.202 189.973,370.931 190.860 C 369.873 194.333,368.585 194.982,362.756 194.982 C 354.479 194.982,354.223 193.783,360.657 185.156 C 362.188 183.103,363.441 181.265,363.441 181.070 C 363.441 180.876,364.419 179.267,365.615 177.495 C 367.667 174.455,368.057 170.609,366.314 170.609 C 366.009 170.609,365.569 170.045,365.337 169.355 C 364.738 167.570,363.235 165.331,362.186 164.660 C 361.694 164.344,361.290 163.777,361.290 163.399 C 361.290 163.021,360.323 161.376,359.140 159.743 C 355.297 154.438,356.004 153.405,363.475 153.405 C 368.933 153.405,369.030 153.437,370.883 155.866 M42.772 163.202 C 42.509 163.465,42.294 169.399,42.294 176.388 L 42.294 189.097 45.412 192.398 L 48.530 195.699 61.899 195.699 L 75.269 195.699 75.269 181.730 L 75.269 167.761 72.581 165.262 L 69.892 162.763 56.571 162.743 C 49.244 162.733,43.035 162.939,42.772 163.202 M283.730 164.507 C 282.287 165.488,280.900 166.940,280.648 167.733 C 280.396 168.526,279.889 169.176,279.522 169.176 C 277.074 169.176,279.247 179.539,282.377 182.796 C 285.216 185.750,295.341 183.276,295.341 179.628 C 295.341 179.069,295.896 177.642,296.576 176.459 C 297.744 174.422,297.744 174.168,296.576 171.717 C 295.896 170.292,295.341 168.815,295.341 168.434 C 295.341 167.569,292.694 164.875,291.844 164.875 C 291.498 164.875,290.813 164.391,290.323 163.799 C 289.022 162.232,286.714 162.479,283.730 164.507 M332.216 163.776 C 331.451 164.355,330.337 164.839,329.742 164.852 C 328.698 164.874,327.578 166.226,325.648 169.795 C 321.090 178.224,332.182 188.179,339.863 182.552 C 344.945 178.829,343.686 164.961,338.260 164.890 C 337.618 164.881,336.692 164.391,336.201 163.799 C 335.077 162.445,333.984 162.439,332.216 163.776 M206.510 164.534 C 202.337 166.825,203.129 167.742,209.283 167.742 C 215.667 167.742,216.956 166.612,212.939 164.535 C 210.437 163.241,208.864 163.241,206.510 164.534 " stroke="none" fill="#ffffff" fill-rule="evenodd"></path><path id="path1" d="M100.835 126.876 C 99.234 128.673,98.925 129.690,98.925 133.161 L 98.925 137.303 91.922 144.279 L 84.920 151.255 80.926 151.163 C 76.456 151.060,73.413 152.536,72.354 155.322 L 71.720 156.989 46.056 156.989 L 20.391 156.989 18.594 154.941 C 16.305 152.333,11.844 150.593,10.610 151.827 C 10.136 152.301,9.240 152.688,8.618 152.688 C 5.151 152.688,3.781 159.690,6.500 163.509 C 8.731 166.642,15.712 166.623,18.360 163.476 L 20.140 161.361 46.091 161.332 L 72.043 161.303 75.447 164.219 L 78.851 167.135 78.753 191.459 L 78.654 215.783 75.528 218.813 C 69.381 224.770,71.459 231.644,79.409 231.644 C 87.248 231.644,90.146 225.019,84.642 219.678 L 81.830 216.948 81.778 191.710 L 81.726 166.471 84.591 163.607 C 87.155 161.042,87.455 160.373,87.455 157.220 C 87.455 151.881,99.375 140.200,105.415 139.619 C 107.529 139.416,109.380 138.886,109.528 138.442 C 109.676 137.998,110.138 137.634,110.554 137.634 C 111.998 137.634,113.216 135.111,113.239 132.073 C 113.273 127.505,110.573 124.731,106.093 124.731 C 103.280 124.731,102.441 125.073,100.835 126.876 M268.817 165.591 L 268.817 192.115 271.807 192.115 C 273.608 192.115,275.330 191.633,276.136 190.904 C 277.399 189.761,277.696 189.801,281.405 191.620 C 285.380 193.570,291.926 194.297,292.797 192.887 C 293.022 192.523,294.201 192.006,295.418 191.739 C 296.642 191.470,298.958 189.879,300.607 188.173 C 305.429 183.182,305.216 183.625,306.568 175.774 C 306.997 173.282,305.448 164.875,304.560 164.875 C 304.274 164.875,303.814 164.149,303.538 163.262 C 302.965 161.414,298.305 156.991,296.931 156.990 C 296.426 156.989,295.827 156.505,295.600 155.914 C 295.278 155.075,293.852 154.839,289.119 154.839 C 284.682 154.839,282.763 155.128,281.976 155.914 C 280.684 157.206,278.034 157.317,276.846 156.129 C 276.278 155.561,275.986 152.513,275.986 147.168 L 275.986 139.068 272.401 139.068 L 268.817 139.068 268.817 165.591 M238.710 149.783 L 238.710 154.839 235.842 154.839 L 232.975 154.839 232.975 158.056 C 232.975 161.255,232.991 161.276,235.842 161.732 L 238.710 162.190 238.710 173.168 C 238.710 179.205,239.007 184.329,239.371 184.554 C 239.735 184.779,240.235 185.846,240.483 186.926 C 241.199 190.055,243.842 191.463,249.853 191.917 L 255.197 192.322 255.197 189.789 C 255.197 187.503,254.971 187.212,252.867 186.803 C 247.542 185.765,245.133 177.125,246.894 165.382 L 247.389 162.079 251.114 161.864 L 254.839 161.649 255.057 158.244 L 255.276 154.839 251.307 154.839 C 246.876 154.839,246.798 154.735,246.426 148.387 L 246.237 145.161 242.473 144.945 L 238.710 144.728 238.710 149.783 M148.387 173.141 C 148.387 193.389,148.217 192.710,153.052 191.803 L 155.556 191.333 155.556 178.782 L 155.556 166.230 157.697 163.940 C 160.595 160.838,167.873 160.533,170.910 163.387 L 172.760 165.124 172.760 178.184 C 172.760 192.443,172.658 192.115,177.061 192.115 C 181.417 192.115,181.362 192.271,181.362 179.894 C 181.362 173.651,181.076 168.367,180.726 168.151 C 180.377 167.935,179.866 166.558,179.591 165.092 C 178.960 161.730,175.771 157.198,173.656 156.657 C 172.769 156.431,172.043 155.929,172.043 155.542 C 172.043 154.305,160.795 154.662,160.314 155.914 C 160.078 156.529,159.009 156.989,157.816 156.989 C 156.669 156.989,155.330 156.505,154.839 155.914 C 154.326 155.296,152.763 154.839,151.167 154.839 L 148.387 154.839 148.387 173.141 M202.608 155.914 C 202.381 156.505,201.702 156.989,201.098 156.989 C 200.494 156.989,200.000 157.260,200.000 157.591 C 200.000 157.922,199.245 158.537,198.321 158.958 C 197.398 159.378,196.092 160.962,195.419 162.478 C 194.746 163.993,193.889 165.793,193.514 166.478 C 190.670 171.667,194.036 186.327,198.704 189.084 C 199.811 189.738,200.717 190.526,200.717 190.836 C 200.717 191.145,201.281 191.400,201.971 191.402 C 202.661 191.405,204.150 191.889,205.279 192.478 C 207.927 193.858,214.964 193.842,216.804 192.450 C 217.569 191.871,218.668 191.398,219.245 191.398 C 223.103 191.398,226.007 186.581,223.600 184.174 C 222.010 182.584,221.942 182.596,217.563 185.278 C 212.416 188.431,201.434 186.639,201.434 182.647 C 201.434 182.200,200.899 181.242,200.245 180.519 C 199.277 179.450,199.207 178.873,199.871 177.416 L 200.686 175.627 214.038 175.627 L 227.391 175.627 227.023 172.939 C 225.881 164.581,221.930 157.791,217.572 156.697 C 216.581 156.449,215.771 155.929,215.771 155.542 C 215.771 154.297,203.091 154.656,202.608 155.914 M326.882 155.516 C 326.882 156.154,324.262 157.872,321.864 158.807 C 320.512 159.334,316.846 164.405,316.846 165.748 C 316.846 166.300,316.372 167.377,315.793 168.143 C 313.821 170.751,314.390 177.527,317.025 182.796 C 319.619 187.983,320.126 188.502,324.731 190.679 C 326.505 191.518,328.517 192.507,329.202 192.877 C 330.784 193.730,338.138 193.757,338.661 192.911 C 338.877 192.560,339.859 192.072,340.842 191.825 C 344.797 190.832,348.969 187.577,350.525 184.269 C 351.370 182.473,352.364 180.443,352.733 179.759 C 353.782 177.816,353.526 170.288,352.334 168.003 C 351.745 166.874,351.261 165.443,351.259 164.824 C 351.251 162.835,346.831 158.735,342.832 157.005 C 341.944 156.622,341.219 155.977,341.219 155.573 C 341.219 155.121,338.467 154.839,334.050 154.839 C 330.025 154.839,326.882 155.136,326.882 155.516 M360.360 156.249 C 360.562 157.025,361.177 158.032,361.726 158.487 C 362.275 158.943,362.729 159.679,362.735 160.124 C 362.742 160.568,363.710 162.024,364.886 163.359 C 366.063 164.694,367.025 166.226,367.025 166.764 C 367.025 167.302,367.278 167.742,367.587 167.742 C 368.503 167.742,370.609 171.773,370.609 173.525 C 370.609 175.336,366.885 181.595,364.366 184.016 C 363.463 184.884,362.724 185.962,362.724 186.412 C 362.724 186.861,362.083 188.044,361.300 189.039 C 359.464 191.373,359.991 192.115,363.485 192.115 C 366.312 192.115,371.326 188.194,371.326 185.984 C 371.326 182.224,376.567 180.377,378.349 183.508 C 379.020 184.688,379.812 185.656,380.108 185.659 C 380.403 185.661,380.645 186.112,380.645 186.662 C 380.645 187.211,381.129 187.846,381.720 188.073 C 382.312 188.300,382.796 189.103,382.796 189.858 C 382.796 190.676,383.448 191.405,384.409 191.663 C 386.884 192.326,391.398 192.194,391.398 191.459 C 391.398 190.737,383.683 179.069,382.825 178.495 C 381.553 177.641,379.649 172.494,380.501 172.210 C 380.975 172.053,381.362 171.615,381.362 171.237 C 381.362 170.506,383.775 166.922,385.834 164.596 C 386.520 163.822,387.285 162.543,387.536 161.754 C 387.786 160.965,388.757 159.493,389.694 158.483 C 392.273 155.701,391.893 154.839,388.087 154.839 C 384.808 154.839,380.692 157.855,380.657 160.284 C 380.642 161.257,375.807 166.308,374.890 166.308 C 374.522 166.308,374.024 165.525,373.784 164.568 C 373.544 163.611,372.893 162.653,372.337 162.440 C 371.781 162.227,371.326 161.696,371.326 161.262 C 371.326 160.827,370.923 160.046,370.430 159.526 C 369.937 159.007,368.924 157.740,368.179 156.710 C 366.378 154.222,359.727 153.830,360.360 156.249 M216.652 164.228 C 217.952 165.781,218.618 167.318,218.486 168.459 L 218.280 170.251 209.677 170.251 L 201.075 170.251 201.186 167.874 C 201.496 161.231,212.060 158.741,216.652 164.228 M294.947 163.408 C 295.952 164.352,296.774 165.575,296.774 166.126 C 296.774 166.677,297.258 167.611,297.849 168.203 C 298.596 168.949,298.925 170.780,298.925 174.194 C 298.925 177.607,298.596 179.438,297.849 180.184 C 297.258 180.776,296.774 181.738,296.774 182.322 C 296.774 186.152,285.237 189.077,282.181 186.022 C 281.590 185.430,280.760 184.946,280.338 184.946 C 279.916 184.946,279.570 184.497,279.570 183.948 C 279.570 183.398,279.086 182.763,278.495 182.536 C 277.824 182.279,277.419 181.186,277.419 179.635 C 277.419 178.266,277.097 176.946,276.703 176.703 C 276.308 176.459,275.986 175.330,275.986 174.194 C 275.986 173.057,276.308 171.928,276.703 171.685 C 277.097 171.441,277.430 170.212,277.443 168.954 C 277.514 162.194,289.584 158.370,294.947 163.408 M339.321 162.366 C 342.450 163.998,344.777 166.496,344.790 168.237 C 344.797 169.101,345.125 170.007,345.520 170.251 C 345.914 170.495,346.237 172.269,346.237 174.194 C 346.237 176.118,345.914 177.893,345.520 178.136 C 345.125 178.380,344.803 179.156,344.803 179.861 C 344.803 184.771,335.525 188.712,329.426 186.394 C 326.922 185.441,323.297 181.628,323.297 179.946 C 323.297 179.194,322.975 178.380,322.581 178.136 C 322.186 177.893,321.864 176.118,321.864 174.194 C 321.864 172.269,322.186 170.495,322.581 170.251 C 322.975 170.007,323.303 169.101,323.310 168.237 C 323.335 164.989,329.047 161.299,334.050 161.299 C 335.824 161.299,338.196 161.779,339.321 162.366 " stroke="none" fill="#008ef8" fill-rule="evenodd"></path><path id="path2" d="M100.413 125.870 C 98.389 127.574,98.208 128.089,98.208 132.157 L 98.208 136.587 91.445 143.322 C 84.748 149.991,84.650 150.056,81.355 149.931 C 77.205 149.774,73.388 151.521,71.994 154.216 L 70.933 156.268 46.085 156.213 L 21.236 156.157 18.044 153.348 C 11.891 147.932,4.136 151.162,4.136 159.140 C 4.136 166.959,12.835 169.877,18.996 164.124 L 21.147 162.116 46.167 162.065 L 71.187 162.014 74.331 164.591 L 77.475 167.167 77.124 181.970 C 76.659 201.537,76.659 200.778,77.115 208.677 L 77.513 215.561 74.605 218.317 C 71.445 221.311,70.271 224.825,71.547 227.466 C 72.190 228.796,72.312 228.490,72.353 225.437 C 72.397 222.162,72.679 221.573,75.528 218.813 L 78.654 215.783 78.753 191.459 L 78.851 167.135 75.447 164.219 L 72.043 161.303 46.091 161.332 L 20.140 161.361 18.360 163.476 C 15.712 166.623,8.731 166.642,6.500 163.509 C 3.781 159.690,5.151 152.688,8.618 152.688 C 9.240 152.688,10.136 152.301,10.610 151.827 C 11.844 150.593,16.305 152.333,18.594 154.941 L 20.391 156.989 46.056 156.989 L 71.720 156.989 72.354 155.322 C 73.413 152.536,76.456 151.060,80.926 151.163 L 84.920 151.255 91.922 144.279 L 98.925 137.303 98.925 133.161 C 98.925 127.423,101.214 124.731,106.093 124.731 C 110.573 124.731,113.273 127.505,113.239 132.073 C 113.216 135.158,111.994 137.634,110.494 137.634 C 110.045 137.634,109.677 137.938,109.677 138.309 C 109.677 138.680,108.306 139.318,106.631 139.727 L 103.584 140.470 106.339 140.162 C 117.147 138.952,116.920 124.014,106.093 124.014 C 103.401 124.014,102.122 124.432,100.413 125.870 M268.578 138.112 C 267.981 138.709,267.940 190.863,268.535 192.414 C 269.061 193.784,273.029 193.933,276.410 192.710 C 278.309 192.024,279.294 192.088,281.861 193.069 C 300.761 200.287,316.049 175.299,302.307 159.649 C 300.432 157.514,295.341 154.544,295.341 155.586 C 295.341 155.983,296.066 156.591,296.953 156.937 C 299.273 157.842,302.953 161.377,303.538 163.262 C 303.814 164.149,304.274 164.875,304.560 164.875 C 305.448 164.875,306.997 173.282,306.568 175.774 C 305.216 183.625,305.429 183.182,300.607 188.173 C 298.958 189.879,296.642 191.470,295.418 191.739 C 294.201 192.006,293.022 192.523,292.797 192.887 C 291.926 194.297,285.380 193.570,281.405 191.620 C 277.696 189.801,277.399 189.761,276.136 190.904 C 275.330 191.633,273.608 192.115,271.807 192.115 L 268.817 192.115 268.817 165.591 L 268.817 139.068 272.401 139.068 L 275.986 139.068 275.986 147.168 C 275.986 152.513,276.278 155.561,276.846 156.129 C 278.024 157.307,280.680 157.210,281.946 155.944 C 282.648 155.243,284.962 154.819,288.987 154.657 L 294.982 154.414 288.869 154.268 C 284.261 154.158,282.356 154.402,281.130 155.261 C 277.957 157.484,277.419 156.339,277.419 147.360 C 277.419 139.946,277.280 139.044,276.033 138.376 C 274.490 137.551,269.323 137.368,268.578 138.112 M94.619 146.741 C 87.461 153.692,87.455 153.700,87.455 157.220 C 87.455 160.373,87.155 161.042,84.591 163.607 L 81.726 166.471 81.778 191.710 L 81.830 216.948 84.642 219.678 C 88.213 223.143,88.463 226.240,85.434 229.481 C 83.046 232.036,76.282 232.657,74.142 230.517 C 73.523 229.898,72.797 229.401,72.529 229.413 C 69.782 229.541,76.677 232.975,79.682 232.975 C 87.637 232.975,90.903 225.249,85.484 219.251 C 82.218 215.638,81.097 206.095,83.506 202.418 C 84.643 200.682,84.645 200.357,83.536 197.453 C 82.550 194.871,82.387 192.063,82.573 180.844 L 82.796 167.341 85.484 164.063 C 87.692 161.370,88.172 160.217,88.172 157.610 C 88.172 154.523,88.381 154.231,95.677 147.110 C 99.804 143.081,102.866 139.785,102.482 139.785 C 102.097 139.785,98.559 142.915,94.619 146.741 M242.294 144.740 L 246.237 145.161 246.426 148.387 C 246.798 154.735,246.876 154.839,251.307 154.839 L 255.276 154.839 255.057 158.244 L 254.839 161.649 251.114 161.864 L 247.389 162.079 246.894 165.382 C 245.133 177.125,247.542 185.765,252.867 186.803 C 254.971 187.212,255.197 187.503,255.197 189.789 L 255.197 192.322 249.853 191.917 C 243.842 191.463,241.199 190.055,240.483 186.926 C 240.040 184.995,238.710 183.452,238.710 184.870 C 238.710 190.606,251.837 196.622,255.771 192.688 C 258.340 190.119,256.449 185.663,252.789 185.663 C 248.530 185.663,248.029 184.338,248.029 173.078 L 248.029 162.724 251.196 162.724 C 256.125 162.724,256.631 162.324,256.631 158.423 C 256.631 154.522,256.125 154.122,251.196 154.122 L 248.029 154.122 248.029 150.943 C 248.029 145.019,247.248 144.069,242.491 144.203 L 238.351 144.320 242.294 144.740 M237.993 149.773 C 237.993 153.863,237.917 154.038,236.022 154.325 C 234.187 154.603,234.212 154.631,236.380 154.731 L 238.710 154.839 238.710 150.179 C 238.710 147.616,238.548 145.520,238.351 145.520 C 238.154 145.520,237.993 147.434,237.993 149.773 M150.000 154.616 C 150.690 154.796,151.819 154.796,152.509 154.616 C 153.199 154.436,152.634 154.288,151.254 154.288 C 149.875 154.288,149.310 154.436,150.000 154.616 M159.200 155.307 C 157.862 156.244,157.229 156.320,156.183 155.666 C 154.354 154.524,153.774 154.631,154.839 155.914 C 155.978 157.287,159.606 157.310,160.368 155.949 C 160.773 155.224,162.576 154.832,166.317 154.658 L 171.685 154.407 166.289 154.264 C 162.253 154.158,160.466 154.421,159.200 155.307 M209.221 154.657 C 213.246 154.819,215.560 155.243,216.262 155.944 C 216.836 156.519,217.740 156.989,218.270 156.989 C 221.477 156.989,225.960 165.157,227.023 172.939 L 227.391 175.627 214.038 175.627 L 200.686 175.627 199.871 177.416 C 199.207 178.873,199.277 179.450,200.245 180.519 C 200.899 181.242,201.434 182.200,201.434 182.647 C 201.434 186.639,212.416 188.431,217.563 185.278 C 221.942 182.596,222.010 182.584,223.600 184.174 C 226.007 186.581,223.103 191.398,219.245 191.398 C 218.668 191.398,217.569 191.871,216.804 192.450 C 214.964 193.842,207.927 193.858,205.279 192.478 C 204.150 191.889,202.661 191.405,201.971 191.402 C 201.281 191.400,200.717 191.145,200.717 190.836 C 200.717 190.526,199.811 189.738,198.704 189.084 C 194.036 186.327,190.670 171.667,193.514 166.478 C 193.889 165.793,194.746 163.993,195.419 162.478 C 196.092 160.962,197.398 159.378,198.321 158.958 C 199.245 158.537,200.000 157.960,200.000 157.675 C 200.000 157.390,200.645 156.988,201.434 156.782 C 202.222 156.575,202.867 156.050,202.867 155.614 C 202.867 152.973,195.558 159.568,193.399 164.158 C 183.888 184.376,206.816 203.477,224.071 189.709 C 227.012 187.362,227.041 187.105,224.667 184.284 C 222.409 181.600,221.550 181.555,217.957 183.932 C 212.327 187.658,204.395 186.396,201.791 181.360 C 199.665 177.249,200.149 177.061,212.834 177.061 C 228.996 177.061,229.626 176.609,226.745 167.088 C 224.027 158.109,218.429 154.037,209.118 154.268 L 203.226 154.414 209.221 154.657 M330.645 154.649 C 332.518 154.796,335.582 154.796,337.455 154.649 C 339.328 154.501,337.796 154.380,334.050 154.380 C 330.305 154.380,328.772 154.501,330.645 154.649 M363.799 154.647 C 366.525 154.916,366.946 155.223,370.452 159.498 C 370.775 159.892,371.256 160.780,371.519 161.470 C 371.782 162.159,372.296 162.724,372.660 162.724 C 373.024 162.724,373.524 163.530,373.771 164.516 C 374.018 165.502,374.522 166.308,374.890 166.308 C 375.818 166.308,380.645 161.249,380.645 160.277 C 380.645 159.841,381.452 158.614,382.437 157.551 C 384.332 155.508,384.622 154.839,383.612 154.839 C 383.273 154.839,381.662 156.900,380.033 159.420 C 376.117 165.475,375.536 165.602,372.508 161.072 C 368.406 154.935,367.368 154.106,363.951 154.242 L 360.932 154.363 363.799 154.647 M387.993 154.649 C 391.851 154.953,392.213 155.767,389.694 158.483 C 388.757 159.493,387.786 160.965,387.536 161.754 C 387.285 162.543,386.520 163.822,385.834 164.596 C 383.775 166.922,381.362 170.506,381.362 171.237 C 381.362 171.615,380.975 172.053,380.501 172.210 C 379.649 172.494,381.553 177.641,382.825 178.495 C 383.683 179.069,391.398 190.737,391.398 191.459 C 391.398 192.194,386.884 192.326,384.409 191.663 C 383.448 191.405,382.796 190.676,382.796 189.858 C 382.796 189.103,382.312 188.300,381.720 188.073 C 381.129 187.846,380.645 187.211,380.645 186.662 C 380.645 186.112,380.403 185.661,380.108 185.659 C 379.812 185.656,379.020 184.688,378.349 183.508 C 376.567 180.377,371.326 182.224,371.326 185.984 C 371.326 188.194,366.312 192.115,363.485 192.115 C 359.991 192.115,359.464 191.373,361.300 189.039 C 362.083 188.044,362.724 186.861,362.724 186.412 C 362.724 185.962,363.463 184.884,364.366 184.016 C 366.885 181.595,370.609 175.336,370.609 173.525 C 370.609 171.773,368.503 167.742,367.587 167.742 C 367.278 167.742,367.025 167.320,367.025 166.805 C 367.025 166.289,366.162 164.825,365.106 163.551 C 363.088 161.116,361.834 159.130,360.622 156.452 C 360.221 155.565,359.558 154.839,359.149 154.839 C 358.367 154.839,359.726 157.184,366.048 166.747 C 371.021 174.269,371.645 171.772,360.753 187.956 C 357.944 192.129,357.893 192.671,360.254 193.264 C 363.269 194.020,367.276 193.041,368.459 191.258 C 369.050 190.366,370.099 189.065,370.789 188.367 C 371.478 187.668,372.043 186.905,372.043 186.670 C 372.043 185.384,375.093 182.194,375.992 182.539 C 376.559 182.757,378.462 185.119,380.220 187.788 C 383.634 192.969,384.433 193.548,388.172 193.548 C 394.349 193.548,393.977 192.002,384.792 179.489 C 380.822 174.082,380.790 173.110,384.412 168.100 C 393.456 155.593,393.837 154.041,387.814 154.262 L 384.588 154.380 387.993 154.649 M146.953 173.451 C 146.953 194.421,146.894 194.211,152.549 193.293 C 156.152 192.709,156.249 192.335,156.261 179.083 L 156.272 167.127 158.687 164.567 C 161.976 161.080,166.729 160.883,169.948 164.103 L 172.043 166.198 172.054 178.619 C 172.067 193.006,172.130 193.190,177.061 193.190 C 181.942 193.190,182.055 192.898,182.068 180.228 C 182.082 166.540,180.714 161.255,176.148 157.346 C 173.154 154.784,172.043 154.295,172.043 155.542 C 172.043 155.929,172.769 156.431,173.656 156.657 C 175.771 157.198,178.960 161.730,179.591 165.092 C 179.866 166.558,180.377 167.935,180.726 168.151 C 181.076 168.367,181.362 173.651,181.362 179.894 C 181.362 192.271,181.417 192.115,177.061 192.115 C 172.658 192.115,172.760 192.443,172.760 178.184 L 172.760 165.124 170.910 163.387 C 167.873 160.533,160.595 160.838,157.697 163.940 L 155.556 166.230 155.556 178.782 L 155.556 191.333 153.052 191.803 C 148.217 192.710,148.387 193.389,148.387 173.141 C 148.387 161.417,148.129 154.839,147.670 154.839 C 147.211 154.839,146.953 161.521,146.953 173.451 M232.545 158.423 C 232.616 162.366,232.617 162.366,235.125 162.724 L 237.634 163.082 238.023 173.477 L 238.411 183.871 238.561 173.031 L 238.710 162.190 235.881 161.738 C 233.103 161.294,233.048 161.226,232.763 157.883 C 232.493 154.716,232.478 154.754,232.545 158.423 M324.014 156.352 C 306.245 166.349,313.621 194.265,334.031 194.265 C 354.605 194.265,362.079 166.046,344.053 156.424 C 342.494 155.592,341.219 155.225,341.219 155.609 C 341.219 155.994,341.944 156.622,342.832 157.005 C 346.831 158.735,351.251 162.835,351.259 164.824 C 351.261 165.443,351.745 166.874,352.334 168.003 C 353.526 170.288,353.782 177.816,352.733 179.759 C 352.364 180.443,351.370 182.473,350.525 184.269 C 348.969 187.577,344.797 190.832,340.842 191.825 C 339.859 192.072,338.877 192.560,338.661 192.911 C 338.138 193.757,330.784 193.730,329.202 192.877 C 328.517 192.507,326.505 191.518,324.731 190.679 C 320.126 188.502,319.619 187.983,317.025 182.796 C 314.390 177.527,313.821 170.751,315.793 168.143 C 316.372 167.377,316.846 166.300,316.846 165.748 C 316.846 164.405,320.512 159.334,321.864 158.807 C 324.262 157.872,326.882 156.154,326.882 155.516 C 326.882 154.690,327.061 154.638,324.014 156.352 M205.376 161.929 C 202.990 162.971,201.303 165.363,201.186 167.874 L 201.075 170.251 209.677 170.251 L 218.280 170.251 218.486 168.459 C 219.034 163.710,210.750 159.583,205.376 161.929 M281.720 162.475 C 278.766 164.585,277.465 166.545,277.508 168.817 L 277.549 170.968 278.209 168.817 C 281.910 156.768,298.208 161.150,298.208 174.194 C 298.208 187.008,281.637 191.475,278.181 179.592 L 277.549 177.419 277.484 179.772 C 277.443 181.247,277.820 182.278,278.495 182.536 C 279.086 182.763,279.570 183.398,279.570 183.948 C 279.570 184.497,279.916 184.946,280.338 184.946 C 280.760 184.946,281.590 185.430,282.181 186.022 C 285.237 189.077,296.774 186.152,296.774 182.322 C 296.774 181.738,297.258 180.776,297.849 180.184 C 298.596 179.438,298.925 177.607,298.925 174.194 C 298.925 170.780,298.596 168.949,297.849 168.203 C 297.258 167.611,296.774 166.677,296.774 166.126 C 296.774 162.201,285.822 159.544,281.720 162.475 M328.779 162.366 C 325.651 163.998,323.324 166.496,323.310 168.237 C 323.303 169.101,322.975 170.007,322.581 170.251 C 322.186 170.495,321.864 172.269,321.864 174.194 C 321.864 176.118,322.186 177.893,322.581 178.136 C 322.975 178.380,323.297 179.194,323.297 179.946 C 323.297 181.628,326.922 185.441,329.426 186.394 C 335.525 188.712,344.803 184.771,344.803 179.861 C 344.803 179.156,345.125 178.380,345.520 178.136 C 345.914 177.893,346.237 176.118,346.237 174.194 C 346.237 172.269,345.914 170.495,345.520 170.251 C 345.125 170.007,344.797 169.101,344.790 168.237 C 344.765 164.989,339.053 161.299,334.050 161.299 C 332.276 161.299,329.904 161.779,328.779 162.366 M215.444 164.500 C 219.569 168.875,218.481 169.892,209.677 169.892 C 200.821 169.892,199.592 168.723,203.909 164.406 C 207.417 160.898,212.082 160.936,215.444 164.500 M340.579 164.338 C 349.277 170.972,344.713 186.380,334.050 186.380 C 323.548 186.380,319.055 170.429,327.777 164.111 C 331.960 161.081,336.412 161.160,340.579 164.338 M276.464 171.804 C 275.722 172.546,275.901 176.207,276.703 176.703 C 277.135 176.970,277.419 175.993,277.419 174.236 C 277.419 171.264,277.302 170.966,276.464 171.804 " stroke="none" fill="#41acfa" fill-rule="evenodd"></path><path id="path3" d="M102.025 123.627 C 98.674 125.084,97.197 127.825,97.037 132.882 L 96.901 137.217 90.585 143.161 C 87.112 146.429,84.099 149.115,83.891 149.130 C 83.683 149.144,81.709 149.251,79.505 149.368 C 75.283 149.592,72.401 151.122,71.244 153.754 C 70.451 155.558,42.568 156.420,41.461 154.675 C 39.576 151.706,40.818 141.851,43.360 139.600 C 47.644 135.808,47.506 128.576,43.101 125.974 C 34.454 120.866,26.991 130.968,33.692 138.710 C 36.467 141.916,36.559 142.188,36.549 147.176 C 36.533 155.856,36.815 155.556,28.675 155.556 L 21.674 155.556 18.807 152.688 C 13.333 147.215,4.315 149.817,3.214 157.187 C 1.762 166.913,12.522 171.912,19.405 164.709 C 21.329 162.696,21.438 162.675,28.776 162.877 L 36.201 163.082 36.201 177.061 L 36.201 191.039 33.513 193.656 C 31.081 196.023,30.824 196.631,30.824 200.029 L 30.824 203.786 23.969 210.642 L 17.113 217.498 12.349 217.991 C 2.870 218.972,0.692 229.091,9.188 232.676 C 14.896 235.085,20.072 231.326,20.072 224.771 L 20.072 221.061 27.463 213.788 C 33.430 207.916,35.154 206.593,36.415 206.923 C 39.198 207.651,42.988 206.465,44.962 204.249 L 46.858 202.122 61.242 202.315 L 75.627 202.509 75.832 209.465 C 76.032 216.257,75.993 216.450,74.182 217.636 C 68.590 221.300,69.236 230.102,75.319 233.120 C 79.519 235.203,83.446 234.412,86.533 230.859 C 88.990 228.032,88.456 227.817,85.735 230.538 C 83.617 232.655,82.830 232.975,79.738 232.975 C 71.143 232.975,68.151 224.433,74.605 218.317 L 77.513 215.561 77.115 208.677 C 76.659 200.778,76.659 201.537,77.124 181.970 L 77.475 167.167 74.331 164.591 L 71.187 162.014 46.167 162.065 L 21.147 162.116 18.996 164.124 C 12.835 169.877,4.136 166.959,4.136 159.140 C 4.136 151.162,11.891 147.932,18.044 153.348 L 21.236 156.157 46.085 156.213 L 70.933 156.268 71.994 154.216 C 73.388 151.521,77.205 149.774,81.355 149.931 C 84.650 150.056,84.748 149.991,91.445 143.322 L 98.208 136.587 98.208 132.157 C 98.208 126.417,100.535 124.014,106.093 124.014 C 115.291 124.014,117.608 135.050,109.317 139.372 C 107.482 140.329,107.393 140.494,108.706 140.497 C 113.607 140.511,116.834 130.971,113.526 126.249 C 111.228 122.967,106.185 121.817,102.025 123.627 M268.244 137.778 C 267.605 138.416,267.384 145.596,267.384 165.647 C 267.384 196.395,267.030 194.694,273.277 193.964 C 278.708 193.330,280.414 193.303,282.437 193.821 C 283.554 194.107,283.300 193.851,281.764 193.140 C 280.253 192.441,278.587 192.187,277.463 192.484 C 267.413 195.137,268.008 196.970,268.259 164.158 L 268.459 137.993 271.478 137.774 C 277.061 137.369,277.419 137.947,277.419 147.360 C 277.419 156.339,277.957 157.484,281.130 155.261 C 282.398 154.373,282.494 154.122,281.564 154.122 C 280.908 154.122,280.151 154.479,279.881 154.915 C 278.790 156.681,278.158 153.461,278.147 146.083 C 278.137 139.229,277.987 138.322,276.750 137.660 C 274.855 136.645,269.299 136.723,268.244 137.778 M95.677 147.110 C 88.216 154.392,88.173 154.454,88.297 157.684 L 88.423 160.932 88.695 157.926 C 88.943 155.185,89.645 154.250,96.627 147.352 C 100.839 143.190,104.037 139.785,103.734 139.785 C 103.430 139.785,99.804 143.081,95.677 147.110 M238.166 144.200 C 237.608 144.758,237.324 146.841,237.405 149.785 C 237.520 153.943,237.562 154.070,237.772 150.896 C 238.220 144.124,238.247 144.086,242.689 144.086 C 246.106 144.086,246.734 144.304,247.328 145.699 C 248.004 147.288,248.012 147.286,247.842 145.520 C 247.643 143.439,239.973 142.393,238.166 144.200 M162.724 153.405 C 161.429 153.820,162.292 153.999,165.841 154.050 C 173.978 154.169,178.155 157.141,180.584 164.539 C 181.578 167.567,182.002 168.254,182.034 166.888 C 182.059 165.827,181.756 164.760,181.362 164.516 C 180.968 164.272,180.645 163.274,180.645 162.297 C 180.645 156.910,169.322 151.292,162.724 153.405 M205.735 153.405 C 204.521 153.794,205.792 153.979,209.677 153.979 C 213.563 153.979,214.834 153.794,213.620 153.405 C 212.634 153.089,210.860 152.831,209.677 152.831 C 208.495 152.831,206.720 153.089,205.735 153.405 M284.588 153.405 C 283.379 153.792,284.661 153.975,288.530 153.966 C 292.590 153.956,293.637 153.792,292.115 153.405 C 289.315 152.693,286.812 152.693,284.588 153.405 M330.108 153.405 C 328.624 153.782,329.847 153.952,334.050 153.952 C 338.253 153.952,339.476 153.782,337.993 153.405 C 336.810 153.104,335.036 152.858,334.050 152.858 C 333.065 152.858,331.290 153.104,330.108 153.405 M146.714 154.600 C 145.800 155.514,146.164 192.472,147.097 193.405 C 148.584 194.892,155.379 194.501,156.247 192.879 C 156.671 192.087,156.989 186.529,156.989 179.928 C 156.989 165.466,158.175 162.799,164.632 162.748 C 170.417 162.702,171.326 164.891,171.326 178.861 C 171.326 193.969,171.436 194.265,177.061 194.265 C 182.632 194.265,182.841 193.760,182.654 180.778 L 182.513 170.968 182.117 181.484 C 181.667 193.412,181.765 193.190,176.975 193.190 C 172.142 193.190,172.067 192.966,172.054 178.619 L 172.043 166.198 169.948 164.103 C 166.729 160.883,161.976 161.080,158.687 164.567 L 156.272 167.127 156.261 179.083 C 156.249 192.335,156.152 192.709,152.549 193.293 C 146.896 194.211,146.953 194.415,146.953 173.504 C 146.953 156.430,147.054 154.918,148.208 154.616 C 149.213 154.353,149.237 154.272,148.327 154.205 C 147.703 154.159,146.977 154.337,146.714 154.600 M155.335 155.283 C 157.421 156.312,157.768 156.310,159.258 155.267 C 160.382 154.479,160.552 154.122,159.801 154.122 C 159.201 154.122,158.359 154.473,157.930 154.901 C 157.369 155.462,157.016 155.462,156.669 154.901 C 156.405 154.473,155.481 154.129,154.617 154.138 C 153.296 154.152,153.409 154.333,155.335 155.283 M200.000 155.407 C 185.267 165.351,189.517 194.731,205.615 194.228 C 206.272 194.207,205.120 193.541,203.055 192.747 C 188.787 187.263,187.114 164.705,200.358 156.397 C 202.330 155.161,203.459 154.160,202.867 154.173 C 202.276 154.186,200.986 154.741,200.000 155.407 M216.888 155.174 C 217.653 155.753,218.667 156.237,219.140 156.250 C 222.137 156.329,227.920 167.537,227.946 173.315 C 227.961 176.648,226.297 177.061,212.834 177.061 C 200.149 177.061,199.665 177.249,201.791 181.360 C 204.395 186.396,212.327 187.658,217.957 183.932 C 221.550 181.555,222.409 181.600,224.667 184.284 C 227.415 187.550,225.650 190.030,218.515 192.926 C 216.809 193.618,215.937 194.203,216.579 194.225 C 222.732 194.436,229.153 186.868,225.509 183.700 C 222.029 180.674,221.321 180.592,217.986 182.832 C 212.461 186.542,205.400 185.829,202.628 181.280 C 200.728 178.164,202.096 177.778,215.047 177.778 L 227.271 177.778 228.062 176.042 C 228.941 174.113,228.293 166.601,227.190 165.919 C 226.823 165.692,226.523 165.058,226.523 164.510 C 226.523 162.687,222.249 157.147,219.667 155.623 C 216.763 153.910,214.796 153.592,216.888 155.174 M232.019 154.600 C 229.803 156.816,231.990 163.118,235.125 163.551 L 236.918 163.799 237.345 174.910 C 237.786 186.348,238.424 188.971,241.393 191.539 C 244.588 194.303,254.730 195.347,256.938 193.139 C 259.248 190.829,258.025 184.952,255.233 184.942 C 252.172 184.931,248.826 183.402,248.532 181.879 L 248.224 180.287 248.126 181.859 C 248.014 183.669,250.458 185.663,252.789 185.663 C 255.806 185.663,256.631 186.419,256.631 189.181 C 256.631 193.606,254.346 194.446,246.809 192.794 C 239.706 191.237,238.553 188.793,238.031 174.194 L 237.634 163.082 235.125 162.724 C 232.117 162.294,230.703 155.343,233.477 154.623 C 234.472 154.365,234.508 154.269,233.632 154.205 C 233.008 154.159,232.282 154.337,232.019 154.600 M255.735 154.553 C 256.271 154.795,256.631 156.342,256.631 158.406 C 256.631 162.325,256.129 162.724,251.196 162.724 C 248.636 162.724,248.040 162.965,248.085 163.978 C 248.119 164.728,248.287 164.872,248.503 164.337 C 248.721 163.797,250.213 163.441,252.252 163.441 C 257.110 163.441,258.206 162.400,257.931 158.047 C 257.746 155.118,257.454 154.463,256.272 154.320 C 255.484 154.225,255.242 154.330,255.735 154.553 M295.741 155.174 C 296.506 155.753,297.508 156.237,297.967 156.250 C 299.482 156.291,303.649 160.948,305.398 164.554 C 310.730 175.548,305.697 189.179,294.834 193.166 C 293.338 193.715,292.664 194.187,293.335 194.215 C 300.312 194.503,308.244 184.047,308.244 174.560 C 308.244 169.932,306.395 162.724,305.208 162.724 C 304.906 162.724,304.659 162.278,304.659 161.732 C 304.659 160.456,299.255 155.556,297.847 155.556 C 297.257 155.556,296.774 155.233,296.774 154.839 C 296.774 154.444,296.229 154.122,295.562 154.122 C 294.505 154.122,294.528 154.257,295.741 155.174 M322.193 156.565 C 317.653 159.542,313.902 164.956,314.019 168.362 C 314.041 169.007,314.639 168.103,315.348 166.354 C 317.131 161.957,320.348 158.342,324.277 156.321 C 326.104 155.382,327.599 154.503,327.599 154.368 C 327.599 153.581,325.348 154.495,322.193 156.565 M341.619 155.174 C 342.385 155.753,343.379 156.237,343.829 156.250 C 346.054 156.312,351.695 162.679,352.893 166.479 C 356.457 177.784,352.087 188.505,342.294 192.484 C 339.928 193.445,338.531 194.239,339.188 194.248 C 355.776 194.484,360.534 165.579,345.437 156.290 C 341.834 154.073,339.111 153.277,341.619 155.174 M358.039 154.880 C 357.781 155.297,360.033 159.335,363.042 163.854 C 369.811 174.017,369.592 173.380,367.408 176.598 C 366.409 178.071,365.591 179.425,365.591 179.609 C 365.591 179.792,363.796 182.370,361.602 185.336 C 356.540 192.182,356.540 193.810,361.601 194.131 C 367.029 194.474,367.933 193.972,371.683 188.533 C 375.670 182.751,375.818 182.730,378.939 187.502 C 383.150 193.942,383.623 194.265,388.821 194.265 C 391.386 194.265,393.679 193.917,393.945 193.487 C 394.462 192.650,392.152 187.814,391.235 187.814 C 390.930 187.814,390.681 187.525,390.681 187.172 C 390.681 186.820,388.746 183.695,386.380 180.228 C 381.170 172.593,380.942 174.729,388.112 163.993 C 394.037 155.122,394.453 154.111,392.174 154.133 C 391.348 154.141,391.281 154.297,391.927 154.707 C 392.890 155.319,390.244 160.035,384.412 168.100 C 380.790 173.110,380.822 174.082,384.792 179.489 C 393.977 192.002,394.349 193.548,388.172 193.548 C 384.433 193.548,383.634 192.969,380.220 187.788 C 378.462 185.119,376.559 182.757,375.992 182.539 C 375.093 182.194,372.043 185.384,372.043 186.670 C 372.043 186.905,371.478 187.668,370.789 188.367 C 370.099 189.065,369.050 190.366,368.459 191.258 C 367.276 193.041,363.269 194.020,360.254 193.264 C 357.893 192.671,357.944 192.129,360.753 187.956 C 371.645 171.772,371.021 174.269,366.048 166.747 C 363.934 163.548,361.362 159.582,360.334 157.932 L 358.464 154.933 360.057 154.625 L 361.649 154.317 360.078 154.219 C 359.214 154.166,358.297 154.463,358.039 154.880 M368.494 155.735 C 369.333 156.622,371.139 159.024,372.508 161.072 C 375.534 165.598,376.119 165.472,380.008 159.458 C 381.624 156.959,383.477 154.774,384.125 154.602 C 385.107 154.341,385.084 154.274,383.986 154.205 C 382.743 154.127,380.004 156.658,379.952 157.933 C 379.919 158.758,376.280 163.441,375.672 163.441 C 375.396 163.441,373.662 161.344,371.819 158.781 C 369.975 156.219,368.130 154.122,367.718 154.122 C 367.306 154.122,367.655 154.848,368.494 155.735 M85.245 164.337 L 82.796 167.383 82.573 180.864 C 82.387 192.065,82.550 194.872,83.536 197.453 C 84.645 200.357,84.643 200.682,83.506 202.418 C 81.097 206.095,82.218 215.638,85.484 219.251 C 86.962 220.888,88.172 221.878,88.172 221.452 C 88.172 221.027,87.193 219.699,85.997 218.503 C 83.839 216.345,83.823 216.271,84.025 209.418 L 84.229 202.509 91.039 202.308 C 97.742 202.110,97.887 202.142,100.223 204.279 C 105.574 209.175,113.978 205.986,113.978 199.060 C 113.978 191.049,105.792 188.356,99.582 194.322 C 96.658 197.131,96.655 197.133,90.699 197.133 C 83.346 197.133,83.871 198.375,83.871 180.970 L 83.871 167.075 86.117 164.517 C 87.352 163.110,88.213 161.809,88.029 161.625 C 87.845 161.441,86.592 162.662,85.245 164.337 M203.909 164.406 C 199.592 168.723,200.821 169.892,209.677 169.892 C 218.481 169.892,219.569 168.875,215.444 164.500 C 212.082 160.936,207.417 160.898,203.909 164.406 M282.346 163.214 C 275.662 167.363,276.012 182.037,282.873 185.293 C 290.486 188.906,298.208 183.316,298.208 174.194 C 298.208 164.834,289.475 158.790,282.346 163.214 M327.777 164.111 C 324.202 166.701,322.977 169.993,323.490 175.641 C 324.723 189.241,341.572 190.276,344.782 176.948 C 347.375 166.177,336.382 157.877,327.777 164.111 M73.452 165.073 L 76.016 167.422 75.822 182.098 L 75.627 196.774 61.741 196.969 L 47.855 197.164 44.358 193.667 L 40.860 190.169 40.860 176.924 C 40.860 169.640,41.075 163.465,41.338 163.202 C 41.601 162.939,48.357 162.724,56.352 162.724 L 70.888 162.724 73.452 165.073 M214.013 164.002 C 218.007 167.349,216.474 169.176,209.671 169.176 C 203.358 169.176,201.310 168.089,203.557 165.933 C 204.370 165.154,205.435 164.125,205.923 163.647 C 207.246 162.352,212.309 162.574,214.013 164.002 M293.190 164.372 C 300.847 171.223,297.183 185.663,287.788 185.663 C 281.131 185.663,277.186 179.442,278.459 170.953 C 279.521 163.875,288.266 159.968,293.190 164.372 M338.837 163.892 C 350.451 170.558,341.614 190.283,329.731 184.220 C 322.629 180.597,322.130 168.129,328.923 164.009 C 331.428 162.489,336.292 162.432,338.837 163.892 M313.457 174.194 C 313.457 175.968,313.597 176.694,313.768 175.806 C 313.938 174.919,313.938 173.468,313.768 172.581 C 313.597 171.694,313.457 172.419,313.457 174.194 M313.997 179.973 C 313.913 185.114,323.628 194.384,328.941 194.232 C 329.582 194.213,328.557 193.592,326.661 192.852 C 321.352 190.777,318.572 188.249,316.184 183.325 C 314.991 180.865,314.007 179.357,313.997 179.973 M209.153 194.785 C 210.441 194.944,212.377 194.941,213.454 194.777 C 214.531 194.614,213.477 194.483,211.111 194.487 C 208.746 194.491,207.864 194.625,209.153 194.785 M286.201 194.779 C 287.285 194.943,289.059 194.943,290.143 194.779 C 291.228 194.614,290.341 194.480,288.172 194.480 C 286.004 194.480,285.116 194.614,286.201 194.779 M332.079 194.779 C 333.163 194.943,334.937 194.943,336.022 194.779 C 337.106 194.614,336.219 194.480,334.050 194.480 C 331.882 194.480,330.995 194.614,332.079 194.779 M88.338 225.090 C 88.338 226.470,88.486 227.034,88.666 226.344 C 88.846 225.654,88.846 224.525,88.666 223.835 C 88.486 223.145,88.338 223.710,88.338 225.090 " stroke="none" fill="#8fcffb" fill-rule="evenodd"></path><path id="path4" d="M101.792 122.581 C 101.792 122.975,101.380 123.297,100.876 123.297 C 98.473 123.297,95.322 129.317,95.506 133.554 C 95.709 138.223,85.998 148.022,81.362 147.827 C 77.143 147.649,74.441 148.776,71.404 151.981 L 68.696 154.839 56.355 154.839 C 41.787 154.839,42.294 155.100,42.294 147.576 C 42.294 142.288,42.389 141.966,44.356 140.565 C 52.093 135.055,48.293 123.297,38.776 123.297 C 29.479 123.297,25.795 135.259,33.383 140.808 C 35.640 142.458,35.869 152.957,33.674 154.131 C 30.286 155.944,21.950 154.761,19.758 152.155 C 12.138 143.100,-3.038 153.533,3.072 163.626 C 4.923 166.683,9.006 169.176,12.162 169.176 C 14.398 169.176,20.072 166.589,20.072 165.570 C 20.072 165.244,20.579 164.470,21.198 163.850 C 21.818 163.231,22.024 162.724,21.657 162.724 C 21.290 162.724,20.400 163.509,19.680 164.468 C 15.438 170.116,6.057 168.858,3.559 162.305 C -0.033 152.882,11.639 145.520,18.807 152.688 L 21.674 155.556 28.675 155.556 C 36.815 155.556,36.533 155.856,36.549 147.176 C 36.559 142.188,36.467 141.916,33.692 138.710 C 26.991 130.968,34.454 120.866,43.101 125.974 C 47.506 128.576,47.644 135.808,43.360 139.600 C 40.818 141.851,39.576 151.706,41.461 154.675 C 42.568 156.420,70.451 155.558,71.244 153.754 C 72.401 151.122,75.283 149.592,79.505 149.368 C 81.709 149.251,83.683 149.144,83.891 149.130 C 84.099 149.115,87.112 146.429,90.585 143.161 L 96.901 137.217 97.040 132.787 C 97.264 125.707,101.665 121.725,107.962 122.906 C 117.926 124.775,117.055 140.502,106.988 140.502 C 104.119 140.502,103.324 140.884,100.284 143.728 C 98.388 145.502,97.253 146.953,97.763 146.953 C 98.272 146.953,99.848 145.663,101.264 144.086 C 103.605 141.478,104.157 141.219,107.363 141.219 C 112.562 141.219,117.741 135.401,116.473 130.985 C 114.563 124.335,111.672 121.864,105.803 121.864 C 103.597 121.864,101.792 122.186,101.792 122.581 M267.108 137.251 C 265.228 140.120,265.368 192.083,267.261 193.796 C 268.755 195.148,275.911 195.456,278.140 194.263 C 279.038 193.783,279.630 193.783,279.927 194.263 C 280.171 194.659,281.401 194.967,282.659 194.948 C 284.875 194.915,284.849 194.879,281.789 193.808 C 279.376 192.963,278.226 192.887,276.916 193.484 C 274.626 194.527,269.318 194.479,268.244 193.405 C 267.009 192.171,267.009 139.012,268.244 137.778 C 269.299 136.723,274.855 136.645,276.750 137.660 C 277.984 138.320,278.136 139.220,278.136 145.845 C 278.136 153.876,278.527 155.976,279.833 154.960 C 281.427 153.721,287.750 152.612,290.539 153.083 C 292.532 153.420,293.226 153.326,292.880 152.767 C 292.299 151.826,284.133 151.685,283.564 152.606 C 283.348 152.954,282.200 153.382,281.012 153.557 L 278.853 153.874 278.853 145.805 C 278.853 136.024,278.517 135.484,272.433 135.484 C 268.794 135.484,268.118 135.708,267.108 137.251 M237.754 142.413 C 236.728 143.439,237.222 145.023,238.291 144.136 C 238.889 143.639,241.021 143.383,243.488 143.511 L 247.670 143.728 248.029 148.746 L 248.387 153.763 253.047 154.122 L 257.706 154.480 257.931 158.041 C 258.207 162.409,257.113 163.441,252.206 163.441 C 247.998 163.441,247.872 163.771,248.207 173.835 L 248.445 181.004 248.595 172.939 L 248.746 164.875 252.637 164.875 C 257.793 164.875,258.781 163.841,258.781 158.448 C 258.781 153.632,258.504 153.405,252.630 153.405 L 248.746 153.405 248.746 148.804 C 248.746 142.021,248.674 141.935,243.054 141.935 C 240.402 141.935,238.017 142.151,237.754 142.413 M92.926 150.990 C 91.073 152.817,89.717 154.472,89.913 154.668 C 90.109 154.864,91.754 153.498,93.567 151.632 C 97.861 147.214,97.313 146.666,92.926 150.990 M161.529 152.736 C 161.104 153.162,157.456 153.560,153.321 153.632 L 145.878 153.763 145.878 174.194 L 145.878 194.624 150.895 194.840 C 158.354 195.161,158.423 195.022,158.423 179.627 C 158.423 166.344,158.533 165.907,162.366 163.905 C 164.063 163.018,164.214 162.780,163.082 162.777 C 161.411 162.771,158.985 164.636,157.811 166.828 C 157.291 167.802,156.989 172.603,156.989 179.928 C 156.989 193.868,156.842 194.265,151.675 194.265 C 146.025 194.265,146.186 194.903,146.404 173.389 L 146.595 154.480 151.138 154.265 C 153.713 154.143,156.092 154.391,156.630 154.838 C 157.151 155.271,157.754 155.342,157.968 154.995 C 160.277 151.258,172.727 152.824,177.486 157.450 C 179.224 159.138,180.645 160.072,180.645 159.524 C 180.645 158.117,175.657 154.126,173.283 153.633 C 172.190 153.406,171.123 152.939,170.911 152.596 C 170.359 151.703,162.443 151.822,161.529 152.736 M204.710 152.607 C 204.494 152.956,203.184 153.455,201.800 153.715 C 200.416 153.974,199.283 154.495,199.283 154.871 C 199.283 155.248,198.936 155.556,198.511 155.556 C 197.158 155.556,192.795 160.597,191.687 163.441 C 191.456 164.032,190.894 165.291,190.437 166.238 C 189.291 168.611,189.342 181.026,190.502 182.186 C 190.995 182.679,191.398 183.606,191.398 184.246 C 191.398 187.652,200.935 195.040,205.162 194.909 L 207.527 194.835 205.376 194.299 C 188.327 190.047,184.889 165.104,200.022 155.452 C 207.499 150.683,220.126 153.178,224.298 160.249 C 225.159 161.709,226.039 162.731,226.251 162.518 C 227.022 161.747,222.419 155.556,221.075 155.556 C 220.620 155.556,219.846 155.072,219.355 154.480 C 218.864 153.889,217.715 153.405,216.800 153.405 C 215.886 153.405,214.939 153.082,214.695 152.688 C 214.148 151.802,205.252 151.730,204.710 152.607 M329.482 152.541 C 329.288 152.854,331.344 153.110,334.050 153.110 C 336.756 153.110,338.812 152.854,338.618 152.541 C 338.425 152.227,336.369 151.971,334.050 151.971 C 331.731 151.971,329.675 152.227,329.482 152.541 M231.541 153.962 C 231.541 154.268,232.832 154.395,234.409 154.245 C 235.986 154.094,237.276 153.844,237.276 153.688 C 237.276 153.532,235.986 153.405,234.409 153.405 C 232.832 153.405,231.541 153.655,231.541 153.962 M295.161 153.911 C 296.048 154.082,296.774 154.522,296.774 154.889 C 296.774 155.255,297.257 155.556,297.847 155.556 C 298.438 155.556,300.212 156.722,301.790 158.148 C 303.368 159.574,304.659 160.441,304.659 160.074 C 304.659 158.321,297.224 153.329,294.871 153.503 C 293.884 153.576,293.957 153.679,295.161 153.911 M323.758 154.480 C 323.167 155.072,322.388 155.556,322.027 155.556 C 319.099 155.556,313.234 164.249,313.369 168.387 C 313.444 170.689,313.561 171.035,313.756 169.534 C 314.642 162.733,320.859 155.571,327.311 153.920 C 328.305 153.666,328.155 153.549,326.754 153.488 C 325.698 153.442,324.350 153.889,323.758 154.480 M340.790 153.920 C 360.674 159.008,359.087 189.973,338.710 194.497 C 337.845 194.689,338.215 194.849,339.641 194.899 C 343.489 195.034,352.665 188.704,352.683 185.902 C 352.686 185.442,353.008 184.958,353.398 184.827 C 355.570 184.096,356.803 173.215,355.341 167.681 C 354.170 163.247,348.292 155.556,346.074 155.556 C 345.713 155.556,344.933 155.072,344.342 154.480 C 343.751 153.889,342.403 153.442,341.347 153.488 C 339.945 153.549,339.795 153.666,340.790 153.920 M357.467 153.883 C 356.484 154.866,357.054 156.863,359.140 159.743 C 360.323 161.376,361.290 163.021,361.290 163.399 C 361.290 163.777,361.694 164.344,362.186 164.660 C 363.235 165.331,364.738 167.570,365.337 169.355 C 365.569 170.045,366.009 170.609,366.314 170.609 C 368.057 170.609,367.667 174.455,365.615 177.495 C 364.419 179.267,363.441 180.876,363.441 181.070 C 363.441 181.265,362.188 183.103,360.657 185.156 C 354.223 193.783,354.479 194.982,362.756 194.982 C 368.233 194.982,370.609 193.950,370.609 191.572 C 370.609 191.138,371.132 190.261,371.770 189.623 C 372.408 188.984,372.755 188.287,372.540 188.072 C 372.326 187.858,371.273 189.008,370.201 190.628 C 368.021 193.922,366.715 194.454,361.601 194.131 C 356.540 193.810,356.540 192.182,361.602 185.336 C 363.796 182.370,365.591 179.792,365.591 179.609 C 365.591 179.425,366.409 178.071,367.408 176.598 C 369.592 173.380,369.811 174.017,363.042 163.854 C 356.763 154.425,356.777 154.122,363.487 154.122 L 368.467 154.122 371.819 158.781 C 373.662 161.344,375.396 163.441,375.672 163.441 C 376.280 163.441,379.919 158.758,379.952 157.933 C 380.055 155.412,382.775 154.122,387.988 154.122 C 393.760 154.122,394.730 154.487,393.363 156.144 C 392.635 157.027,392.668 157.158,393.548 156.867 C 397.343 155.612,394.508 153.760,388.486 153.558 C 381.519 153.325,379.579 154.578,377.347 160.753 C 376.644 162.698,372.760 160.981,372.760 158.725 C 372.760 155.674,368.801 153.405,363.475 153.405 C 360.434 153.405,357.730 153.620,357.467 153.883 M88.937 157.670 C 88.900 159.555,89.088 159.944,89.726 159.307 C 90.344 158.688,90.357 158.043,89.774 156.833 C 89.034 155.297,88.983 155.348,88.937 157.670 M387.493 164.870 C 384.886 168.811,382.595 172.449,382.400 172.956 C 382.206 173.463,383.989 176.725,386.364 180.204 C 388.738 183.684,390.681 186.820,390.681 187.172 C 390.681 187.525,390.930 187.814,391.235 187.814 C 392.152 187.814,394.462 192.650,393.945 193.487 C 392.174 196.352,382.692 193.943,380.687 190.119 C 379.919 188.654,378.472 186.487,377.471 185.305 L 375.652 183.154 374.255 184.936 C 373.487 185.915,373.024 186.883,373.226 187.085 C 373.428 187.287,374.006 186.889,374.510 186.200 C 375.679 184.601,376.769 184.602,377.347 186.201 C 377.896 187.718,379.013 189.577,381.251 192.695 L 382.933 195.038 388.778 194.831 C 396.470 194.558,396.599 193.827,390.542 184.842 C 388.056 181.154,385.860 177.975,385.663 177.777 C 384.688 176.800,382.944 172.760,383.498 172.760 C 383.847 172.760,384.356 172.058,384.628 171.199 C 384.900 170.341,385.868 168.836,386.778 167.854 C 387.689 166.872,389.020 164.918,389.736 163.511 C 390.453 162.105,391.443 160.523,391.935 159.996 C 392.797 159.074,393.154 157.706,392.532 157.706 C 392.367 157.706,390.099 160.930,387.493 164.870 M88.255 161.196 C 88.209 161.735,87.204 163.279,86.022 164.626 L 83.871 167.075 83.871 180.970 C 83.871 198.375,83.346 197.133,90.699 197.133 C 96.655 197.133,96.658 197.131,99.582 194.322 C 105.792 188.356,113.978 191.049,113.978 199.060 C 113.978 205.986,105.574 209.175,100.223 204.279 C 97.887 202.142,97.742 202.110,91.039 202.308 L 84.229 202.509 84.025 209.418 L 83.821 216.327 86.139 218.646 C 90.565 223.071,88.897 231.021,83.025 233.489 C 73.132 237.649,65.238 223.496,74.182 217.636 C 75.993 216.450,76.032 216.257,75.832 209.465 L 75.627 202.509 61.242 202.315 L 46.858 202.122 44.962 204.249 C 42.988 206.465,39.198 207.651,36.415 206.923 C 35.154 206.593,33.430 207.916,27.463 213.788 L 20.072 221.061 20.072 224.771 C 20.072 231.326,14.896 235.085,9.188 232.676 C 0.692 229.091,2.870 218.972,12.349 217.991 L 17.113 217.498 23.969 210.642 L 30.824 203.786 30.824 200.029 C 30.824 196.631,31.081 196.023,33.513 193.656 L 36.201 191.039 36.201 177.072 C 36.201 163.642,36.146 163.098,34.767 162.927 C 33.978 162.829,33.737 162.932,34.229 163.155 C 34.897 163.457,35.125 166.791,35.125 176.244 L 35.125 188.928 32.916 191.347 C 30.217 194.302,29.391 196.352,29.391 200.092 C 29.391 204.861,17.907 215.753,12.605 216.012 C 2.634 216.500,-1.075 226.241,6.132 233.012 C 10.217 236.849,20.789 234.171,20.789 229.299 C 20.789 228.607,21.140 227.824,21.570 227.559 C 22.043 227.266,22.169 226.108,21.890 224.620 C 21.120 220.513,33.253 208.602,38.207 208.602 C 42.219 208.602,45.179 207.267,46.863 204.696 L 48.062 202.867 61.665 202.867 L 75.269 202.867 75.268 209.140 L 75.268 215.412 72.401 218.193 C 67.886 222.573,68.460 228.861,73.796 233.487 C 77.178 236.418,86.738 235.072,86.738 231.665 C 86.738 231.268,87.095 230.825,87.530 230.680 C 90.752 229.606,90.175 222.239,86.525 217.833 C 84.744 215.682,84.588 214.987,84.588 209.181 L 84.588 202.867 90.757 202.867 C 96.443 202.867,97.034 203.004,98.302 204.616 C 104.269 212.202,115.054 208.527,115.054 198.907 C 115.054 189.389,104.364 185.737,98.397 193.216 C 96.425 195.688,96.390 195.699,90.502 195.699 L 84.588 195.699 84.588 181.575 L 84.588 167.452 86.806 165.164 C 88.203 163.722,88.897 162.384,88.681 161.545 C 88.492 160.814,88.301 160.656,88.255 161.196 M180.668 162.401 C 180.655 163.210,180.947 164.177,181.317 164.552 C 181.686 164.927,182.114 166.685,182.267 168.459 C 182.536 171.576,182.549 171.550,182.670 167.700 C 182.751 165.135,182.421 163.219,181.743 162.323 C 180.707 160.954,180.690 160.955,180.668 162.401 M304.659 162.007 C 304.659 162.401,304.906 162.724,305.208 162.724 C 307.401 162.724,309.246 177.433,307.469 180.754 C 306.564 182.444,307.286 183.617,308.272 182.058 C 309.360 180.337,309.109 167.881,307.942 165.702 C 307.381 164.656,306.746 163.235,306.530 162.545 C 306.114 161.214,304.659 160.796,304.659 162.007 M231.657 163.082 C 231.850 164.172,232.573 164.571,234.665 164.743 C 236.480 164.892,237.258 164.709,236.947 164.205 C 236.687 163.785,235.752 163.441,234.868 163.441 C 233.985 163.441,232.843 163.038,232.332 162.545 C 231.580 161.820,231.451 161.923,231.657 163.082 M41.338 163.202 C 41.075 163.465,40.860 169.640,40.860 176.924 L 40.860 190.169 44.358 193.667 L 47.855 197.164 61.741 196.969 L 75.627 196.774 75.822 182.098 L 76.016 167.422 73.411 165.035 C 71.977 163.722,70.669 162.783,70.504 162.949 C 70.338 163.115,71.343 164.251,72.736 165.474 L 75.269 167.698 75.269 181.699 L 75.269 195.699 61.899 195.699 L 48.530 195.699 45.382 192.366 L 42.234 189.034 42.443 175.878 C 42.640 163.485,42.513 162.027,41.338 163.202 M167.204 163.984 C 168.289 164.657,169.190 165.535,169.208 165.937 C 169.226 166.338,169.683 167.634,170.225 168.817 L 171.210 170.968 171.268 169.051 C 171.336 166.823,168.181 162.715,166.424 162.743 C 165.607 162.756,165.852 163.146,167.204 163.984 M205.923 163.647 C 205.435 164.125,204.370 165.154,203.557 165.933 C 201.310 168.089,203.358 169.176,209.671 169.176 C 216.474 169.176,218.007 167.349,214.013 164.002 C 212.309 162.574,207.246 162.352,205.923 163.647 M281.472 165.267 C 278.901 167.764,278.197 169.176,279.522 169.176 C 279.889 169.176,280.396 168.526,280.648 167.733 C 280.900 166.940,282.287 165.488,283.730 164.507 C 285.193 163.513,285.854 162.724,285.223 162.724 C 284.600 162.724,282.912 163.869,281.472 165.267 M290.323 163.799 C 290.813 164.391,291.543 164.875,291.944 164.875 C 292.345 164.875,293.086 165.439,293.590 166.128 C 294.094 166.817,294.731 167.156,295.006 166.882 C 295.627 166.261,291.759 162.778,290.414 162.747 C 289.621 162.728,289.603 162.932,290.323 163.799 M328.874 164.036 C 326.775 165.307,324.124 169.524,324.922 170.322 C 325.189 170.589,325.728 170.038,326.120 169.096 C 327.145 166.633,328.678 164.878,329.828 164.852 C 330.376 164.839,331.451 164.355,332.216 163.776 C 334.288 162.210,331.538 162.423,328.874 164.036 M336.201 163.799 C 336.692 164.391,337.618 164.881,338.260 164.890 C 342.147 164.941,344.728 174.502,342.184 179.426 C 339.172 185.255,330.428 185.801,326.902 180.381 C 325.927 178.883,325.010 178.017,324.863 178.457 C 324.086 180.788,330.434 185.678,334.201 185.651 C 344.333 185.579,347.851 169.066,338.837 163.892 C 336.259 162.413,335.014 162.369,336.201 163.799 M212.939 164.535 C 216.956 166.612,215.667 167.742,209.283 167.742 C 204.245 167.742,203.593 167.599,204.144 166.614 C 205.719 163.800,209.699 162.859,212.939 164.535 M226.546 164.194 C 226.534 164.805,226.819 165.611,227.179 165.986 C 227.540 166.360,227.980 167.473,228.157 168.459 C 228.443 170.050,228.490 170.006,228.576 168.058 C 228.630 166.852,228.200 165.239,227.621 164.474 C 226.786 163.369,226.564 163.311,226.546 164.194 M295.391 168.459 C 295.391 169.050,295.852 170.341,296.416 171.326 C 297.008 172.362,297.440 172.664,297.440 172.043 C 297.440 171.452,296.979 170.161,296.416 169.176 C 295.824 168.140,295.391 167.837,295.391 168.459 M278.341 173.835 C 278.347 175.806,278.486 176.528,278.651 175.438 C 278.815 174.349,278.811 172.736,278.641 171.854 C 278.471 170.972,278.336 171.864,278.341 173.835 M324.210 174.194 C 324.210 175.968,324.349 176.694,324.520 175.806 C 324.691 174.919,324.691 173.468,324.520 172.581 C 324.349 171.694,324.210 172.419,324.210 174.194 M312.711 174.194 C 312.711 175.573,312.859 176.138,313.039 175.448 C 313.219 174.758,313.219 173.629,313.039 172.939 C 312.859 172.249,312.711 172.814,312.711 174.194 M227.710 176.672 C 227.350 177.609,225.417 177.778,215.054 177.778 C 202.095 177.778,200.728 178.163,202.628 181.280 C 205.400 185.829,212.461 186.542,217.986 182.832 C 221.321 180.592,222.029 180.674,225.509 183.700 C 229.269 186.969,224.998 192.187,216.846 194.282 L 214.695 194.835 217.039 194.909 C 220.748 195.025,228.674 189.232,228.674 186.405 C 228.674 184.981,222.919 179.931,221.295 179.929 C 220.588 179.929,219.181 180.696,218.170 181.634 C 215.130 184.453,208.394 184.674,204.480 182.085 C 200.155 179.222,202.606 178.495,216.569 178.495 C 227.680 178.495,230.463 177.895,228.493 175.924 C 228.295 175.727,227.943 176.063,227.710 176.672 M296.234 177.044 C 295.743 177.831,295.353 179.044,295.369 179.739 C 295.390 180.639,295.713 180.423,296.490 178.989 C 297.769 176.630,297.547 174.942,296.234 177.044 M313.583 180.615 C 313.700 182.767,314.160 184.648,314.604 184.796 C 315.049 184.945,315.412 185.470,315.412 185.965 C 315.412 188.595,324.762 195.021,328.426 194.909 L 330.824 194.835 328.674 194.282 C 320.795 192.257,314.875 186.151,313.712 178.853 C 313.523 177.670,313.465 178.463,313.583 180.615 M278.921 178.853 C 278.848 181.965,283.680 185.652,287.841 185.658 C 290.525 185.663,297.388 181.477,294.838 181.391 C 294.365 181.375,293.662 181.927,293.276 182.616 C 292.720 183.610,291.607 183.871,287.924 183.871 C 283.111 183.871,282.416 183.493,279.791 179.451 C 279.322 178.728,278.930 178.459,278.921 178.853 M248.746 182.762 C 248.746 183.450,253.165 184.935,255.233 184.942 C 258.025 184.952,259.248 190.829,256.938 193.139 C 254.562 195.514,244.456 194.265,241.039 191.174 C 240.152 190.371,239.427 190.071,239.427 190.507 C 239.427 192.775,244.059 194.623,250.377 194.875 C 258.170 195.186,258.781 194.781,258.781 189.303 C 258.781 184.342,258.042 183.513,253.620 183.513 C 251.728 183.513,250.179 183.190,250.179 182.796 C 250.179 182.401,249.857 182.079,249.462 182.079 C 249.068 182.079,248.746 182.386,248.746 182.762 M237.374 185.766 C 237.309 187.494,237.640 188.517,238.351 188.790 C 239.547 189.248,239.784 188.472,238.770 187.419 C 238.409 187.045,237.970 185.932,237.793 184.946 C 237.552 183.602,237.447 183.807,237.374 185.766 M304.790 186.300 C 302.547 190.292,298.101 193.341,292.832 194.500 C 291.986 194.686,292.382 194.850,293.796 194.899 C 297.320 195.021,304.659 190.272,304.659 187.869 C 304.659 187.444,304.960 187.097,305.328 187.097 C 305.696 187.097,306.209 186.427,306.469 185.609 C 307.280 183.052,306.416 183.408,304.790 186.300 M171.513 192.832 C 171.679 194.569,171.850 194.624,177.061 194.624 C 182.272 194.624,182.443 194.569,182.609 192.832 C 182.779 191.066,182.771 191.063,182.095 192.652 C 181.490 194.072,180.888 194.265,177.061 194.265 C 173.234 194.265,172.631 194.072,172.027 192.652 C 171.350 191.063,171.343 191.066,171.513 192.832 " stroke="none" fill="#d5edfd" fill-rule="evenodd"></path></g></svg>
