<svg id="svg" version="1.1" width="500" height="500" xmlns="http://www.w3.org/2000/svg" xmlns:xlink="http://www.w3.org/1999/xlink" style="display: block;"><g id="svgg"><path id="path0" d="M252.609 70.058 C 252.293 70.374,249.597 70.926,246.617 71.285 C 233.118 72.913,228.302 73.681,227.011 74.413 C 226.247 74.846,224.918 75.200,224.058 75.200 C 223.198 75.200,222.288 75.535,222.035 75.944 C 221.782 76.353,219.600 76.935,217.187 77.236 C 214.774 77.538,212.800 78.103,212.800 78.492 C 212.800 78.881,212.101 79.200,211.247 79.200 C 210.393 79.200,209.472 79.560,209.200 80.000 C 208.928 80.440,208.097 80.802,207.353 80.805 C 206.609 80.808,204.969 81.348,203.709 82.005 C 202.448 82.662,200.918 83.200,200.309 83.200 C 199.699 83.200,199.200 83.544,199.200 83.964 C 199.200 84.384,197.936 84.965,196.391 85.254 C 194.846 85.544,193.385 86.101,193.144 86.491 C 192.903 86.881,192.007 87.200,191.153 87.200 C 190.299 87.200,189.600 87.481,189.600 87.825 C 189.600 88.168,188.610 88.879,187.400 89.404 C 186.190 89.928,183.040 91.644,180.400 93.215 C 177.760 94.787,174.610 96.495,173.400 97.012 C 172.190 97.528,171.200 98.232,171.200 98.575 C 171.200 98.919,170.660 99.200,170.000 99.200 C 169.340 99.200,168.800 99.536,168.800 99.946 C 168.800 100.356,167.990 100.945,167.000 101.254 C 166.010 101.563,165.020 102.053,164.800 102.343 C 164.311 102.989,154.355 109.600,153.872 109.600 C 153.683 109.600,152.627 110.500,151.527 111.600 C 150.427 112.700,149.136 113.600,148.657 113.600 C 148.179 113.600,147.205 114.259,146.494 115.064 C 145.782 115.869,144.623 116.859,143.917 117.264 C 137.822 120.759,105.729 152.764,100.261 160.800 C 99.512 161.900,98.157 163.520,97.250 164.400 C 96.342 165.280,94.946 167.014,94.147 168.253 C 93.348 169.492,92.200 171.112,91.596 171.853 C 90.664 172.997,89.384 174.605,84.154 181.200 C 83.805 181.640,82.830 183.170,81.988 184.600 C 81.145 186.030,80.215 187.200,79.921 187.200 C 79.627 187.200,79.175 187.830,78.917 188.600 C 78.414 190.097,76.710 192.941,75.921 193.600 C 75.658 193.820,73.870 196.520,71.948 199.600 C 70.025 202.680,68.171 205.320,67.826 205.467 C 67.482 205.613,67.200 206.423,67.200 207.267 C 67.200 208.110,66.847 208.800,66.415 208.800 C 65.984 208.800,65.405 209.700,65.129 210.800 C 64.852 211.900,64.306 212.800,63.913 212.800 C 63.521 212.800,63.200 213.167,63.200 213.616 C 63.200 214.065,62.322 215.822,61.249 217.522 C 52.218 231.828,49.667 239.417,51.946 245.200 C 52.292 246.080,53.213 248.960,53.992 251.600 C 54.771 254.240,56.261 258.300,57.304 260.622 C 58.347 262.944,59.200 265.090,59.200 265.392 C 59.200 266.407,66.912 281.312,68.000 282.400 C 68.808 283.208,70.460 286.039,70.917 287.400 C 71.175 288.170,71.627 288.800,71.921 288.800 C 72.215 288.800,73.136 289.970,73.967 291.400 C 74.799 292.830,75.707 294.180,75.986 294.400 C 76.265 294.620,77.012 295.553,77.646 296.474 C 82.186 303.062,96.424 317.927,97.536 317.239 C 97.925 316.999,98.493 314.642,98.800 312.000 C 99.107 309.358,99.682 306.997,100.079 306.751 C 100.475 306.506,100.800 305.268,100.800 304.000 C 100.800 302.732,101.160 301.472,101.600 301.200 C 102.040 300.928,102.400 300.048,102.400 299.245 C 102.400 297.606,104.586 289.901,105.619 287.898 C 105.988 287.183,106.536 285.289,106.836 283.690 C 107.136 282.091,107.701 280.585,108.091 280.344 C 108.481 280.103,108.800 279.048,108.800 278.000 C 108.800 276.952,109.160 275.872,109.600 275.600 C 110.040 275.328,110.400 274.371,110.400 273.474 C 110.400 272.022,111.762 268.278,113.566 264.774 C 113.913 264.099,114.450 262.393,114.760 260.983 C 115.070 259.572,115.655 258.213,116.062 257.962 C 116.468 257.711,116.800 256.807,116.800 255.953 C 116.800 255.099,117.160 254.400,117.600 254.400 C 118.040 254.400,118.400 253.682,118.400 252.805 C 118.400 250.834,120.954 244.800,121.789 244.800 C 122.125 244.800,122.400 244.102,122.400 243.248 C 122.400 242.394,123.480 239.614,124.800 237.070 C 126.120 234.526,127.200 231.984,127.200 231.422 C 127.200 230.860,127.475 230.400,127.811 230.400 C 128.454 230.400,131.200 224.561,131.200 223.195 C 131.200 222.758,131.470 222.396,131.800 222.391 C 132.130 222.386,133.113 220.856,133.985 218.991 C 134.856 217.126,136.669 213.800,138.013 211.600 C 139.357 209.400,141.164 206.226,142.029 204.546 C 142.893 202.866,144.140 200.877,144.800 200.124 C 145.460 199.372,146.687 197.416,147.526 195.778 C 148.365 194.140,149.355 192.800,149.726 192.800 C 150.097 192.800,150.400 192.346,150.400 191.792 C 150.400 191.237,151.300 189.813,152.400 188.627 C 153.500 187.440,154.400 186.250,154.400 185.982 C 154.400 185.374,158.385 179.886,159.614 178.800 C 160.113 178.360,161.213 176.920,162.060 175.600 C 162.907 174.280,164.222 172.480,164.983 171.600 C 165.744 170.720,168.068 168.020,170.149 165.600 C 174.007 161.112,190.395 144.742,195.377 140.400 C 201.699 134.889,213.209 126.400,214.357 126.400 C 214.821 126.400,215.200 126.091,215.200 125.714 C 215.200 125.336,216.910 124.126,219.000 123.024 C 225.851 119.413,228.393 118.006,228.799 117.600 C 229.836 116.565,234.385 114.400,235.523 114.400 C 236.226 114.400,236.800 114.128,236.800 113.795 C 236.800 113.227,237.860 112.701,244.800 109.826 C 246.340 109.188,248.186 108.360,248.902 107.987 C 249.617 107.615,251.511 107.064,253.110 106.764 C 254.709 106.464,256.215 105.899,256.456 105.509 C 256.697 105.119,257.752 104.800,258.800 104.800 C 259.848 104.800,260.912 104.465,261.165 104.056 C 261.418 103.647,263.604 103.065,266.023 102.762 C 268.442 102.460,270.618 101.895,270.858 101.507 C 271.098 101.118,272.557 100.800,274.100 100.800 C 275.643 100.800,277.519 100.471,278.270 100.069 C 279.021 99.668,286.827 99.096,295.618 98.800 C 315.467 98.131,318.400 97.345,318.400 92.691 C 318.400 90.991,318.101 89.600,317.735 89.600 C 317.370 89.600,316.589 88.700,316.000 87.600 C 315.411 86.500,314.477 85.600,313.923 85.600 C 313.369 85.600,312.208 84.700,311.343 83.600 C 310.478 82.500,309.359 81.600,308.857 81.600 C 307.990 81.600,304.053 79.357,303.200 78.377 C 302.980 78.125,301.000 77.249,298.800 76.432 C 296.600 75.615,294.620 74.692,294.400 74.381 C 294.180 74.071,291.480 73.392,288.400 72.873 C 285.320 72.355,280.820 71.557,278.400 71.100 C 272.932 70.067,253.389 69.277,252.609 70.058 M280.410 109.394 C 278.656 109.573,276.856 109.993,276.410 110.328 C 275.965 110.663,273.440 111.564,270.800 112.330 C 265.875 113.759,264.912 114.110,259.879 116.318 C 258.273 117.023,256.203 117.600,255.279 117.600 C 254.356 117.600,253.600 117.872,253.600 118.205 C 253.600 118.537,252.430 119.302,251.000 119.904 C 249.570 120.507,247.355 121.494,246.077 122.100 C 244.799 122.705,243.269 123.200,242.677 123.200 C 242.085 123.200,241.600 123.531,241.600 123.936 C 241.600 124.341,240.520 124.910,239.200 125.200 C 237.880 125.490,236.800 125.978,236.800 126.284 C 236.800 126.591,235.183 127.552,233.208 128.421 C 231.232 129.289,229.612 130.270,229.608 130.600 C 229.603 130.930,229.034 131.200,228.341 131.200 C 225.070 131.200,227.761 133.988,231.608 134.584 C 233.803 134.924,236.225 135.562,236.989 136.001 C 237.753 136.441,239.103 136.800,239.989 136.800 C 240.875 136.800,241.600 137.120,241.600 137.511 C 241.600 137.902,242.904 138.467,244.498 138.766 C 246.093 139.065,247.983 139.615,248.698 139.987 C 250.621 140.989,255.187 142.871,258.600 144.069 C 260.250 144.648,261.600 145.369,261.600 145.672 C 261.600 145.974,262.834 146.453,264.342 146.736 C 265.850 147.019,267.200 147.509,267.342 147.825 C 267.484 148.141,269.670 149.433,272.200 150.695 C 274.730 151.958,276.800 153.308,276.800 153.695 C 276.800 154.083,277.250 154.406,277.800 154.413 C 278.350 154.420,280.060 155.501,281.600 156.814 C 283.140 158.128,285.821 160.372,287.557 161.802 C 294.755 167.725,303.250 176.877,305.007 180.600 C 305.475 181.590,306.159 182.400,306.528 182.400 C 306.898 182.400,307.200 182.940,307.200 183.600 C 307.200 184.260,307.506 184.800,307.879 184.800 C 308.253 184.800,309.227 186.420,310.043 188.400 C 310.860 190.380,311.740 192.000,311.998 192.000 C 312.257 192.000,313.125 194.070,313.927 196.600 C 314.729 199.130,315.702 201.920,316.088 202.800 C 319.942 211.577,319.925 232.761,316.058 241.200 C 315.654 242.080,314.687 244.330,313.908 246.200 C 313.129 248.070,312.201 249.600,311.846 249.600 C 311.491 249.600,311.200 250.094,311.200 250.699 C 311.200 253.685,294.932 272.016,291.242 273.187 C 290.339 273.473,289.600 273.968,289.600 274.286 C 289.600 274.604,287.800 275.915,285.600 277.200 C 283.400 278.485,281.600 279.792,281.600 280.104 C 281.600 280.417,280.520 280.910,279.200 281.200 C 277.880 281.490,276.800 282.059,276.800 282.464 C 276.800 282.869,276.080 283.200,275.200 283.200 C 274.320 283.200,273.600 283.556,273.600 283.991 C 273.600 284.425,272.160 285.011,270.400 285.293 C 268.640 285.574,267.200 286.118,267.200 286.502 C 267.200 286.886,266.300 287.200,265.200 287.200 C 264.100 287.200,263.200 287.548,263.200 287.972 C 263.200 288.397,261.392 288.985,259.182 289.278 C 256.972 289.571,254.971 290.123,254.735 290.505 C 254.499 290.887,252.959 291.200,251.313 291.200 C 249.667 291.200,247.870 291.650,247.320 292.200 C 246.564 292.956,240.389 293.200,222.000 293.200 C 203.611 293.200,197.436 292.956,196.680 292.200 C 196.130 291.650,194.333 291.200,192.687 291.200 C 191.041 291.200,189.498 290.882,189.258 290.493 C 189.018 290.105,186.836 289.539,184.411 289.236 C 181.985 288.933,180.000 288.351,180.000 287.942 C 180.000 287.534,178.941 287.200,177.647 287.200 C 176.353 287.200,175.072 286.840,174.800 286.400 C 174.528 285.960,173.697 285.598,172.953 285.595 C 172.209 285.592,170.569 285.052,169.309 284.395 C 168.048 283.738,166.518 283.200,165.909 283.200 C 165.299 283.200,164.800 282.886,164.800 282.502 C 164.800 282.118,163.360 281.574,161.600 281.293 C 159.840 281.011,158.400 280.510,158.400 280.179 C 158.400 279.561,152.567 276.800,151.261 276.800 C 150.861 276.800,150.413 276.530,150.267 276.200 C 150.120 275.870,147.930 274.567,145.400 273.305 C 142.870 272.042,140.800 270.731,140.800 270.391 C 140.800 270.052,139.900 269.548,138.800 269.271 C 137.700 268.995,136.800 268.416,136.800 267.985 C 136.800 267.553,136.260 267.200,135.600 267.200 C 134.940 267.200,134.400 266.864,134.400 266.454 C 134.400 266.044,133.770 265.506,133.000 265.259 C 132.230 265.012,130.545 263.900,129.255 262.787 L 126.910 260.765 125.855 263.274 C 125.275 264.654,124.800 266.462,124.800 267.292 C 124.800 268.121,124.440 268.800,124.000 268.800 C 122.042 268.800,123.254 273.740,125.778 276.045 C 127.196 277.340,128.620 278.400,128.942 278.400 C 129.264 278.400,130.427 279.300,131.527 280.400 C 132.627 281.500,133.683 282.400,133.872 282.400 C 134.355 282.400,144.311 289.011,144.800 289.657 C 145.020 289.947,145.947 290.417,146.859 290.701 C 147.771 290.986,149.212 291.844,150.061 292.609 C 150.910 293.374,155.924 296.105,161.202 298.677 C 166.481 301.249,171.425 303.679,172.189 304.077 C 172.953 304.475,174.123 304.800,174.789 304.800 C 175.455 304.800,176.000 305.128,176.000 305.530 C 176.000 305.931,177.438 306.502,179.196 306.799 C 180.954 307.096,182.595 307.668,182.843 308.070 C 183.091 308.471,184.173 308.800,185.247 308.800 C 186.321 308.800,187.200 309.083,187.200 309.428 C 187.200 310.015,192.787 311.456,199.200 312.524 C 200.740 312.780,202.505 313.397,203.123 313.895 C 204.802 315.247,250.762 315.159,252.120 313.800 C 252.670 313.250,254.647 312.800,256.513 312.800 C 258.379 312.800,260.122 312.450,260.386 312.023 C 260.650 311.596,262.659 311.008,264.851 310.718 C 267.043 310.427,269.029 309.877,269.265 309.495 C 269.501 309.113,270.732 308.800,272.000 308.800 C 273.268 308.800,274.528 308.440,274.800 308.000 C 275.072 307.560,275.849 307.200,276.526 307.200 C 277.204 307.200,278.983 306.660,280.479 306.000 C 281.976 305.340,284.424 304.260,285.921 303.600 C 287.417 302.940,289.037 302.400,289.521 302.400 C 290.004 302.400,290.400 302.040,290.400 301.600 C 290.400 301.160,290.777 300.800,291.238 300.800 C 291.700 300.800,294.047 299.540,296.454 298.000 C 298.861 296.460,301.025 295.200,301.262 295.200 C 301.711 295.200,307.180 291.032,309.923 288.600 C 310.791 287.830,311.758 287.200,312.072 287.200 C 312.824 287.200,326.400 273.427,326.400 272.664 C 326.400 272.339,327.257 271.216,328.304 270.169 C 329.351 269.121,330.456 267.485,330.758 266.532 C 331.060 265.580,331.644 264.800,332.054 264.800 C 332.464 264.800,332.800 264.260,332.800 263.600 C 332.800 262.940,333.136 262.400,333.546 262.400 C 333.956 262.400,334.545 261.590,334.854 260.600 C 335.163 259.610,335.656 258.620,335.950 258.400 C 336.692 257.843,339.200 252.350,339.200 251.279 C 339.200 250.796,339.560 250.400,340.000 250.400 C 340.440 250.400,340.800 249.500,340.800 248.400 C 340.800 247.300,341.128 246.400,341.530 246.400 C 341.931 246.400,342.502 244.962,342.799 243.204 C 343.096 241.446,343.668 239.805,344.070 239.557 C 344.471 239.309,344.800 238.222,344.800 237.142 C 344.800 236.062,345.151 234.553,345.579 233.789 C 348.562 228.472,348.469 188.000,345.474 188.000 C 345.103 188.000,344.800 186.560,344.800 184.800 C 344.800 183.040,344.440 181.600,344.000 181.600 C 343.560 181.600,343.200 180.844,343.200 179.921 C 343.200 178.997,342.623 176.927,341.918 175.321 C 341.214 173.714,340.348 171.680,339.994 170.800 C 338.365 166.744,333.939 157.973,333.400 157.733 C 333.070 157.587,332.800 156.957,332.800 156.333 C 332.800 155.710,332.447 155.200,332.015 155.200 C 331.584 155.200,331.005 154.300,330.729 153.200 C 330.452 152.100,329.983 151.200,329.686 151.200 C 329.388 151.200,328.478 150.070,327.662 148.689 C 326.846 147.309,325.680 145.599,325.069 144.889 C 321.926 141.236,319.898 138.818,317.474 135.833 C 313.616 131.081,304.958 122.453,300.788 119.206 C 298.815 117.669,297.080 116.139,296.933 115.806 C 296.787 115.473,296.157 115.200,295.533 115.200 C 294.910 115.200,294.400 114.847,294.400 114.415 C 294.400 113.984,293.500 113.405,292.400 113.129 C 291.300 112.852,290.400 112.347,290.400 112.004 C 290.400 111.290,285.300 108.732,284.279 108.934 C 283.906 109.008,282.165 109.215,280.410 109.394 " stroke="none" fill="#ffffff" fill-rule="evenodd"></path><path id="path1" d="M87.000 0.571 C 82.270 0.727,78.400 1.159,78.400 1.532 C 78.400 1.906,75.340 2.466,71.600 2.777 C 67.860 3.089,64.800 3.671,64.800 4.072 C 64.800 4.472,63.540 4.800,62.000 4.800 C 60.460 4.800,59.200 5.114,59.200 5.498 C 59.200 5.882,57.760 6.426,56.000 6.707 C 54.240 6.989,52.800 7.575,52.800 8.009 C 52.800 8.444,52.260 8.800,51.600 8.800 C 50.940 8.800,50.400 9.160,50.400 9.600 C 50.400 10.040,49.526 10.400,48.457 10.400 C 47.389 10.400,45.974 10.940,45.314 11.600 C 44.654 12.260,43.729 12.800,43.257 12.800 C 42.786 12.800,42.400 13.160,42.400 13.600 C 42.400 14.040,41.730 14.400,40.912 14.400 C 40.094 14.400,38.748 15.300,37.922 16.400 C 37.096 17.500,35.982 18.400,35.446 18.400 C 34.911 18.400,33.616 19.257,32.569 20.304 C 31.521 21.351,29.903 22.450,28.973 22.745 C 28.043 23.040,27.065 23.965,26.800 24.800 C 26.535 25.635,25.635 26.535,24.800 26.800 C 23.965 27.065,23.035 28.061,22.732 29.013 C 22.430 29.965,20.972 31.920,19.491 33.358 C 18.011 34.796,16.800 36.480,16.800 37.100 C 16.800 37.721,16.260 38.436,15.600 38.689 C 14.940 38.943,14.400 39.881,14.400 40.775 C 14.400 41.669,14.040 42.400,13.600 42.400 C 13.160 42.400,12.800 42.940,12.800 43.600 C 12.800 44.260,12.447 44.800,12.015 44.800 C 11.584 44.800,11.005 45.700,10.729 46.800 C 10.452 47.900,9.906 48.800,9.513 48.800 C 9.121 48.800,8.800 49.340,8.800 50.000 C 8.800 50.660,8.462 51.200,8.049 51.200 C 7.636 51.200,7.055 52.820,6.758 54.800 C 6.461 56.780,5.899 58.400,5.509 58.400 C 5.119 58.400,4.800 59.480,4.800 60.800 C 4.800 62.120,4.477 63.200,4.081 63.200 C 3.686 63.200,3.103 65.810,2.785 69.000 C 2.468 72.190,1.801 75.057,1.304 75.371 C -0.004 76.196,0.009 324.615,1.317 325.429 C 1.821 325.743,2.493 328.430,2.810 331.400 C 3.127 334.370,3.704 336.800,4.093 336.800 C 4.482 336.800,4.800 337.880,4.800 339.200 C 4.800 340.520,5.119 341.600,5.509 341.600 C 5.899 341.600,6.461 343.220,6.758 345.200 C 7.055 347.180,7.636 348.800,8.049 348.800 C 8.462 348.800,8.800 349.340,8.800 350.000 C 8.800 350.660,9.144 351.200,9.564 351.200 C 9.984 351.200,10.562 352.448,10.848 353.973 C 11.154 355.608,11.951 356.930,12.789 357.196 C 13.570 357.444,14.425 358.723,14.687 360.037 C 14.955 361.376,16.707 363.924,18.672 365.834 C 20.601 367.708,22.427 370.024,22.730 370.980 C 23.034 371.936,23.965 372.935,24.800 373.200 C 25.635 373.465,26.535 374.365,26.800 375.200 C 27.065 376.035,28.061 376.965,29.013 377.268 C 29.965 377.570,31.920 379.028,33.358 380.509 C 34.796 381.989,36.480 383.200,37.100 383.200 C 37.721 383.200,38.436 383.740,38.689 384.400 C 38.943 385.060,39.881 385.600,40.775 385.600 C 41.669 385.600,42.400 385.960,42.400 386.400 C 42.400 386.840,42.940 387.200,43.600 387.200 C 44.260 387.200,44.800 387.553,44.800 387.985 C 44.800 388.416,45.700 388.995,46.800 389.271 C 47.900 389.548,48.800 390.094,48.800 390.487 C 48.800 390.879,49.700 391.200,50.800 391.200 C 51.900 391.200,52.800 391.556,52.800 391.991 C 52.800 392.425,54.240 393.011,56.000 393.293 C 57.760 393.574,59.200 394.118,59.200 394.502 C 59.200 394.886,60.460 395.200,62.000 395.200 C 63.540 395.200,64.800 395.523,64.800 395.919 C 64.800 396.314,67.410 396.897,70.600 397.215 C 73.790 397.532,76.657 398.199,76.971 398.696 C 77.796 400.002,321.414 399.991,322.229 398.685 C 322.543 398.181,325.590 397.509,329.000 397.191 C 332.410 396.872,335.200 396.294,335.200 395.906 C 335.200 395.518,336.460 395.200,338.000 395.200 C 339.540 395.200,340.800 394.886,340.800 394.502 C 340.800 394.118,342.240 393.574,344.000 393.293 C 345.760 393.011,347.200 392.425,347.200 391.991 C 347.200 391.556,347.920 391.200,348.800 391.200 C 349.680 391.200,350.400 390.840,350.400 390.400 C 350.400 389.960,351.094 389.600,351.943 389.600 C 352.791 389.600,354.026 389.060,354.686 388.400 C 355.346 387.740,356.451 387.200,357.143 387.200 C 357.834 387.200,358.400 386.879,358.400 386.487 C 358.400 386.094,359.276 385.554,360.347 385.285 C 361.417 385.016,362.522 384.077,362.801 383.198 C 363.080 382.319,363.875 381.600,364.567 381.600 C 365.260 381.600,366.859 380.520,368.120 379.200 C 369.382 377.880,370.951 376.800,371.607 376.800 C 372.263 376.800,372.800 376.087,372.800 375.215 C 372.800 374.192,373.509 373.453,374.800 373.129 C 375.900 372.852,376.800 372.119,376.800 371.499 C 376.800 370.879,378.060 369.148,379.600 367.653 C 381.140 366.157,382.400 364.541,382.400 364.061 C 382.400 363.582,383.273 362.430,384.340 361.503 C 385.406 360.575,386.088 359.318,385.854 358.708 C 385.620 358.099,385.827 357.600,386.314 357.600 C 386.801 357.600,387.200 357.225,387.200 356.767 C 387.200 356.308,387.920 355.160,388.800 354.215 C 389.681 353.271,390.344 352.116,390.274 351.649 C 390.135 350.716,391.216 347.834,391.942 347.200 C 393.269 346.042,394.542 342.637,394.956 339.139 C 395.213 336.973,395.696 335.200,396.031 335.200 C 396.365 335.200,396.853 333.490,397.114 331.400 C 397.376 329.310,397.810 326.520,398.080 325.200 C 401.077 310.521,400.632 74.712,397.602 71.682 C 397.161 71.241,396.800 69.512,396.800 67.840 C 396.800 66.168,396.440 64.800,396.000 64.800 C 395.560 64.800,395.200 63.727,395.200 62.416 C 395.200 60.055,393.017 53.571,391.963 52.800 C 391.437 52.415,390.121 49.012,390.039 47.826 C 390.018 47.510,389.406 46.559,388.681 45.711 C 387.956 44.864,387.135 43.454,386.857 42.579 C 386.579 41.703,385.310 39.897,384.037 38.565 C 382.765 37.233,381.903 35.964,382.123 35.744 C 382.754 35.112,365.789 18.400,364.515 18.400 C 363.886 18.400,363.162 17.855,362.906 17.188 C 362.650 16.521,361.532 15.630,360.421 15.208 C 359.309 14.785,358.400 14.071,358.400 13.620 C 358.400 13.169,357.680 12.800,356.800 12.800 C 355.920 12.800,355.200 12.469,355.200 12.064 C 355.200 11.659,354.120 11.090,352.800 10.800 C 351.480 10.510,350.400 9.941,350.400 9.536 C 350.400 9.131,349.680 8.800,348.800 8.800 C 347.920 8.800,347.200 8.444,347.200 8.009 C 347.200 7.575,345.760 6.989,344.000 6.707 C 342.240 6.426,340.800 5.882,340.800 5.498 C 340.800 5.114,339.360 4.800,337.600 4.800 C 335.840 4.800,334.400 4.477,334.400 4.081 C 334.400 3.686,331.790 3.106,328.600 2.792 C 325.410 2.479,322.295 1.812,321.677 1.311 C 320.616 0.450,110.788 -0.212,87.000 0.571 M283.288 69.587 C 291.511 71.736,295.699 72.927,297.200 73.542 C 302.519 75.721,305.583 77.276,305.591 77.800 C 305.596 78.130,305.966 78.400,306.413 78.400 C 308.309 78.400,317.335 85.892,319.000 88.847 C 324.118 97.933,320.993 99.515,295.355 100.821 C 286.250 101.285,277.720 101.998,276.400 102.405 C 275.080 102.813,271.300 103.739,268.000 104.464 C 258.120 106.635,250.080 109.500,238.716 114.899 C 235.590 116.385,232.620 117.600,232.116 117.600 C 231.612 117.600,231.196 117.870,231.191 118.200 C 231.186 118.530,229.656 119.515,227.791 120.388 C 225.926 121.261,224.220 122.161,224.000 122.388 C 223.780 122.615,222.340 123.488,220.800 124.329 C 218.048 125.832,202.087 137.048,200.297 138.737 C 199.794 139.212,196.932 141.760,193.937 144.400 C 180.211 156.499,167.656 170.637,155.603 187.570 C 152.301 192.208,149.600 196.125,149.600 196.274 C 149.600 196.424,147.616 199.573,145.191 203.273 C 141.618 208.723,124.822 241.303,122.339 247.600 C 121.992 248.480,121.107 250.640,120.373 252.400 C 119.002 255.683,118.786 256.227,116.400 262.400 C 115.635 264.380,114.730 266.720,114.389 267.600 C 114.048 268.480,113.163 271.000,112.422 273.200 C 111.682 275.400,110.783 277.920,110.425 278.800 C 109.628 280.756,106.823 290.303,104.665 298.400 C 103.786 301.700,102.782 305.120,102.435 306.000 C 102.088 306.880,101.154 310.409,100.358 313.842 C 98.416 322.221,98.489 322.228,89.228 312.726 C 75.685 298.832,67.808 287.613,59.511 270.400 C 56.128 263.382,55.339 261.640,53.536 257.200 C 53.179 256.320,52.288 253.440,51.556 250.800 C 50.825 248.160,49.909 245.380,49.520 244.623 C 47.979 241.614,48.528 236.490,50.829 232.400 C 52.067 230.200,53.998 226.600,55.120 224.400 C 56.243 222.200,57.369 220.220,57.622 220.000 C 57.876 219.780,58.705 218.340,59.464 216.800 C 60.223 215.260,61.181 213.460,61.592 212.800 C 62.004 212.140,65.030 207.231,68.318 201.890 C 86.690 172.045,112.265 141.189,133.211 123.600 C 135.831 121.400,138.700 118.936,139.587 118.124 C 141.689 116.199,160.640 102.400,161.181 102.400 C 161.409 102.400,163.307 101.193,165.398 99.718 C 167.489 98.243,170.280 96.501,171.600 95.846 C 172.920 95.192,177.202 92.799,181.115 90.529 C 185.028 88.258,188.424 86.400,188.662 86.400 C 188.900 86.400,190.559 85.716,192.347 84.879 C 196.094 83.127,199.695 81.605,204.800 79.613 C 206.780 78.840,209.120 77.909,210.000 77.542 C 217.466 74.432,235.648 70.196,247.600 68.782 C 255.072 67.898,278.881 68.435,283.288 69.587 M289.072 108.728 C 313.388 122.386,338.990 155.529,346.291 182.800 C 350.988 200.344,350.994 222.404,346.307 238.800 C 342.690 251.455,336.937 262.301,327.239 274.748 C 323.353 279.735,309.362 292.653,306.906 293.520 C 306.408 293.696,305.820 294.094,305.600 294.404 C 305.154 295.034,292.218 303.200,291.667 303.200 C 291.474 303.200,288.620 304.446,285.323 305.968 C 282.027 307.491,278.311 308.959,277.065 309.231 C 275.819 309.502,274.080 310.028,273.200 310.399 C 269.374 312.011,263.539 313.600,261.447 313.600 C 260.199 313.600,258.553 313.931,257.789 314.337 C 250.624 318.135,205.405 318.133,198.211 314.334 C 197.447 313.930,195.981 313.600,194.953 313.600 C 193.275 313.600,187.882 312.107,183.600 310.456 C 179.882 309.023,176.282 307.811,174.600 307.426 C 173.610 307.199,172.800 306.695,172.800 306.307 C 172.800 305.918,172.238 305.600,171.552 305.600 C 170.406 305.600,156.921 299.343,156.000 298.384 C 155.780 298.155,154.700 297.533,153.600 297.002 C 152.500 296.471,150.160 295.130,148.400 294.023 C 146.640 292.917,144.660 291.757,144.000 291.446 C 143.340 291.135,142.440 290.582,142.000 290.217 C 141.560 289.852,138.491 287.674,135.179 285.377 C 120.954 275.509,119.416 273.750,121.548 269.789 C 121.959 269.025,122.927 266.150,123.699 263.400 C 125.157 258.207,126.693 257.062,128.799 259.599 C 130.271 261.372,138.906 267.372,144.400 270.440 C 152.212 274.802,164.589 280.800,165.777 280.800 C 166.384 280.800,167.222 281.087,167.640 281.439 C 168.058 281.790,170.380 282.720,172.800 283.507 C 175.220 284.293,177.920 285.236,178.800 285.603 C 179.680 285.970,182.920 286.865,186.000 287.592 C 189.080 288.320,192.860 289.231,194.400 289.617 C 205.214 292.330,248.377 292.226,250.073 289.483 C 250.305 289.107,251.332 288.800,252.355 288.800 C 254.366 288.800,261.929 286.708,264.189 285.526 C 264.953 285.127,265.945 284.800,266.392 284.800 C 268.584 284.800,282.906 277.118,288.488 272.949 C 307.539 258.719,316.813 242.139,316.791 222.348 C 316.780 213.117,313.386 196.951,311.170 195.582 C 310.747 195.320,310.400 194.583,310.400 193.944 C 310.400 190.093,291.059 164.836,288.077 164.793 C 287.815 164.789,286.328 163.580,284.774 162.107 C 279.116 156.742,263.221 147.200,259.944 147.200 C 259.535 147.200,259.200 146.928,259.200 146.595 C 259.200 146.262,257.670 145.514,255.800 144.933 C 253.930 144.351,251.320 143.408,250.000 142.835 C 248.680 142.263,245.800 141.183,243.600 140.435 C 241.400 139.688,238.880 138.774,238.000 138.406 C 235.676 137.433,225.950 135.200,224.036 135.200 C 221.443 135.200,221.985 132.366,224.800 131.200 C 226.120 130.653,227.200 129.959,227.200 129.657 C 227.200 129.355,228.730 128.441,230.600 127.625 C 232.470 126.810,234.180 125.930,234.401 125.671 C 235.168 124.768,240.138 122.400,241.265 122.400 C 241.889 122.400,242.400 122.040,242.400 121.600 C 242.400 121.160,242.750 120.800,243.178 120.800 C 243.606 120.800,245.856 119.948,248.178 118.907 C 250.500 117.866,254.020 116.383,256.000 115.611 C 257.980 114.840,260.320 113.920,261.200 113.566 C 262.080 113.213,264.600 112.318,266.800 111.578 C 269.000 110.837,271.520 109.950,272.400 109.607 C 278.971 107.044,285.465 106.702,289.072 108.728 " stroke="none" fill="#8ebf34" fill-rule="evenodd"></path><path id="path2" d="M257.833 68.594 C 260.822 68.748,265.502 68.747,268.233 68.591 C 270.965 68.436,268.520 68.309,262.800 68.311 C 257.080 68.312,254.845 68.440,257.833 68.594 M241.600 69.621 C 240.383 70.024,241.791 70.107,245.200 69.832 C 248.280 69.584,250.950 69.250,251.133 69.091 C 251.793 68.516,243.555 68.974,241.600 69.621 M274.467 69.089 C 274.650 69.248,276.960 69.589,279.600 69.848 C 282.649 70.147,283.816 70.062,282.800 69.616 C 281.286 68.950,273.758 68.475,274.467 69.089 M232.800 71.200 C 231.216 71.707,231.133 71.841,232.400 71.841 C 233.280 71.841,234.900 71.552,236.000 71.200 C 237.584 70.693,237.667 70.559,236.400 70.559 C 235.520 70.559,233.900 70.848,232.800 71.200 M286.800 71.200 C 287.680 71.578,289.120 71.888,290.000 71.888 L 291.600 71.888 290.000 71.200 C 289.120 70.822,287.680 70.512,286.800 70.512 L 285.200 70.512 286.800 71.200 M222.400 73.611 C 221.556 74.165,222.030 74.245,224.000 73.884 C 227.450 73.251,228.101 72.796,225.533 72.812 C 224.470 72.819,223.060 73.178,222.400 73.611 M299.540 75.103 C 299.779 75.490,300.791 76.012,301.788 76.264 C 303.536 76.704,303.545 76.680,302.047 75.560 C 300.327 74.275,298.864 74.009,299.540 75.103 M178.200 92.054 C 176.550 92.926,175.200 93.817,175.200 94.035 C 175.200 94.254,176.640 93.698,178.400 92.800 C 180.160 91.902,181.600 90.995,181.600 90.784 C 181.600 90.260,181.594 90.263,178.200 92.054 M319.837 92.850 C 320.028 94.151,319.692 95.841,319.092 96.607 C 318.104 97.868,318.133 97.896,319.400 96.902 C 320.824 95.786,321.339 91.627,320.145 90.889 C 319.784 90.667,319.646 91.549,319.837 92.850 M167.586 98.112 C 163.383 100.898,162.202 102.095,165.200 100.529 C 168.771 98.664,172.516 96.011,171.586 96.005 C 171.138 96.002,169.338 96.950,167.586 98.112 M308.600 99.765 C 309.590 99.955,311.210 99.955,312.200 99.765 C 313.190 99.574,312.380 99.418,310.400 99.418 C 308.420 99.418,307.610 99.574,308.600 99.765 M284.400 100.766 C 282.640 101.062,286.420 101.143,292.800 100.946 C 299.180 100.748,304.550 100.455,304.733 100.293 C 305.305 99.790,287.773 100.198,284.400 100.766 M273.600 102.400 L 271.600 103.041 273.600 103.108 C 274.700 103.145,276.140 102.827,276.800 102.400 C 278.328 101.413,276.683 101.413,273.600 102.400 M158.000 104.500 C 156.680 105.623,156.320 106.177,157.200 105.730 C 159.591 104.515,162.113 102.450,161.200 102.454 C 160.760 102.456,159.320 103.377,158.000 104.500 M263.600 104.800 C 261.561 105.676,263.665 105.676,266.400 104.800 C 268.008 104.285,268.086 104.155,266.800 104.136 C 265.920 104.123,264.480 104.422,263.600 104.800 M280.800 107.647 C 283.773 108.293,287.851 108.407,287.497 107.833 C 287.282 107.485,285.417 107.242,283.353 107.293 C 281.289 107.344,280.140 107.503,280.800 107.647 M145.069 113.812 C 141.476 116.555,138.656 118.920,138.802 119.066 C 139.046 119.312,148.505 112.272,151.171 109.860 C 153.913 107.379,151.142 109.174,145.069 113.812 M272.380 109.632 C 272.043 110.178,272.646 110.277,274.133 109.920 C 277.198 109.183,277.488 108.800,274.981 108.800 C 273.833 108.800,272.663 109.174,272.380 109.632 M288.867 109.059 C 289.050 109.202,290.460 110.131,292.000 111.125 L 294.800 112.932 292.400 110.870 C 291.080 109.736,289.670 108.806,289.267 108.804 C 288.863 108.802,288.683 108.917,288.867 109.059 M305.456 121.282 C 308.677 124.317,313.537 129.166,316.256 132.058 C 318.975 134.950,320.308 136.210,319.217 134.858 C 315.669 130.460,306.078 120.741,302.800 118.222 C 301.040 116.870,302.235 118.247,305.456 121.282 M245.404 119.877 C 243.756 120.605,242.406 121.477,242.404 121.816 C 242.401 122.327,248.445 119.687,249.533 118.702 C 250.254 118.049,248.252 118.619,245.404 119.877 M134.800 122.135 C 128.560 127.556,124.628 131.293,124.901 131.544 C 125.065 131.696,128.074 129.161,131.586 125.910 C 137.716 120.237,139.791 117.800,134.800 122.135 M210.514 130.352 C 208.157 132.057,205.817 133.908,205.314 134.465 C 204.310 135.577,212.487 129.981,214.371 128.266 C 216.515 126.315,214.850 127.215,210.514 130.352 M224.200 131.376 C 221.540 132.659,221.817 135.229,224.600 135.091 C 226.486 134.998,226.543 134.933,225.000 134.635 C 224.010 134.445,223.200 133.998,223.200 133.642 C 223.200 133.286,224.010 132.430,225.000 131.740 C 227.088 130.283,226.768 130.138,224.200 131.376 M232.000 136.800 C 234.735 137.676,236.839 137.676,234.800 136.800 C 233.920 136.422,232.480 136.123,231.600 136.136 C 230.314 136.155,230.392 136.285,232.000 136.800 M198.339 139.736 L 196.400 141.872 198.575 140.336 C 199.771 139.491,200.761 138.530,200.775 138.200 C 200.816 137.215,200.377 137.491,198.339 139.736 M324.000 141.600 C 325.394 143.360,326.714 144.800,326.934 144.800 C 327.154 144.800,326.194 143.360,324.800 141.600 C 323.406 139.840,322.086 138.400,321.866 138.400 C 321.646 138.400,322.606 139.840,324.000 141.600 M242.400 139.865 C 243.060 140.273,244.500 140.847,245.600 141.141 C 246.990 141.513,247.234 141.450,246.400 140.935 C 245.740 140.527,244.300 139.953,243.200 139.659 C 241.810 139.287,241.566 139.350,242.400 139.865 M109.629 146.681 L 106.058 150.800 110.229 146.830 C 112.523 144.647,114.400 142.757,114.400 142.630 C 114.400 141.703,112.677 143.166,109.629 146.681 M191.353 146.118 L 187.600 149.837 191.600 146.382 C 193.800 144.482,195.750 142.809,195.933 142.664 C 196.117 142.519,196.006 142.400,195.687 142.400 C 195.368 142.400,193.418 144.073,191.353 146.118 M259.208 146.210 C 259.217 146.832,265.693 149.774,266.118 149.349 C 266.254 149.213,264.753 148.319,262.782 147.361 C 260.812 146.404,259.204 145.886,259.208 146.210 M101.600 155.719 C 92.823 166.554,92.789 167.290,101.542 157.000 C 104.255 153.810,106.188 151.217,105.837 151.238 C 105.487 151.259,103.580 153.275,101.600 155.719 M331.870 152.400 C 333.085 154.791,335.150 157.313,335.146 156.400 C 335.144 155.960,334.223 154.520,333.100 153.200 C 331.977 151.880,331.423 151.520,331.870 152.400 M274.400 153.836 C 274.400 153.997,276.110 155.299,278.200 156.728 C 281.076 158.696,281.417 158.816,279.600 157.224 C 277.184 155.107,274.400 153.293,274.400 153.836 M282.400 159.495 C 282.400 160.170,286.712 164.001,288.718 165.107 C 289.464 165.519,289.666 165.518,289.200 165.105 C 288.760 164.715,287.050 163.156,285.400 161.641 C 283.750 160.126,282.400 159.160,282.400 159.495 M174.400 162.800 C 172.907 164.340,172.027 165.574,172.443 165.542 C 173.164 165.487,178.107 160.000,177.436 160.000 C 177.259 160.000,175.893 161.260,174.400 162.800 M90.689 169.400 C 86.635 174.504,86.141 175.200,86.574 175.200 C 86.777 175.200,88.621 173.040,90.671 170.400 C 92.721 167.760,94.243 165.600,94.053 165.600 C 93.863 165.600,92.349 167.310,90.689 169.400 M167.550 171.000 C 165.436 173.530,163.176 176.230,162.529 177.000 C 161.882 177.770,161.565 178.400,161.825 178.400 C 162.085 178.400,164.503 175.700,167.200 172.400 C 169.897 169.100,171.943 166.400,171.749 166.400 C 171.554 166.400,169.664 168.470,167.550 171.000 M297.993 174.600 C 300.145 177.130,302.047 179.200,302.220 179.200 C 302.766 179.200,297.858 173.271,295.929 171.600 C 294.912 170.720,295.841 172.070,297.993 174.600 M343.326 174.800 C 343.324 175.240,343.807 176.860,344.400 178.400 C 344.993 179.940,345.489 180.660,345.503 180.000 C 345.517 179.340,345.033 177.720,344.429 176.400 C 343.824 175.080,343.328 174.360,343.326 174.800 M84.646 177.400 C 83.236 179.041,82.179 180.800,82.602 180.800 C 82.766 180.800,83.698 179.720,84.674 178.400 C 86.602 175.792,86.584 175.143,84.646 177.400 M157.773 183.400 C 154.428 187.966,152.834 190.529,154.168 189.200 C 155.581 187.791,161.666 179.200,161.250 179.200 C 161.030 179.200,159.466 181.090,157.773 183.400 M304.761 183.812 C 306.178 186.116,307.509 188.000,307.720 188.000 C 308.346 188.000,304.550 181.589,303.319 180.567 C 302.695 180.049,303.343 181.509,304.761 183.812 M346.088 184.400 C 346.746 187.342,347.204 187.980,347.188 185.933 C 347.181 185.090,346.810 183.860,346.363 183.200 C 345.770 182.324,345.696 182.647,346.088 184.400 M74.586 191.800 C 72.515 194.791,71.841 196.000,72.246 196.000 C 72.434 196.000,73.540 194.560,74.705 192.800 C 77.072 189.223,76.969 188.358,74.586 191.800 M151.200 192.800 C 150.260 194.120,149.671 195.200,149.891 195.200 C 150.111 195.200,151.060 194.120,152.000 192.800 C 152.940 191.480,153.529 190.400,153.309 190.400 C 153.089 190.400,152.140 191.480,151.200 192.800 M348.554 196.400 C 348.799 199.040,349.135 201.350,349.300 201.533 C 349.836 202.129,349.429 196.468,348.759 194.000 C 348.331 192.422,348.260 193.244,348.554 196.400 M314.512 204.800 C 314.512 205.460,314.822 206.720,315.200 207.600 C 315.633 208.609,315.888 208.756,315.888 208.000 C 315.888 207.340,315.578 206.080,315.200 205.200 C 314.767 204.191,314.512 204.044,314.512 204.800 M317.096 222.400 C 317.096 227.020,317.228 228.910,317.390 226.600 C 317.551 224.290,317.551 220.510,317.390 218.200 C 317.228 215.890,317.096 217.780,317.096 222.400 M130.358 228.885 C 127.687 234.211,125.695 238.761,125.929 238.996 C 126.163 239.230,126.699 238.518,127.119 237.414 C 127.539 236.309,129.712 231.759,131.948 227.303 C 134.185 222.846,135.834 219.200,135.613 219.200 C 135.393 219.200,133.028 223.558,130.358 228.885 M348.492 225.292 C 348.199 227.786,348.119 229.986,348.314 230.180 C 348.509 230.375,348.921 228.508,349.231 226.031 C 349.540 223.554,349.621 221.354,349.409 221.143 C 349.198 220.931,348.785 222.799,348.492 225.292 M314.857 237.257 C 314.563 238.430,314.476 239.543,314.665 239.732 C 314.854 239.920,315.249 239.115,315.543 237.943 C 315.837 236.770,315.924 235.657,315.735 235.468 C 315.546 235.280,315.151 236.085,314.857 237.257 M48.800 241.819 C 48.800 242.967,49.174 244.137,49.632 244.420 C 50.178 244.757,50.277 244.154,49.920 242.667 C 49.183 239.602,48.800 239.312,48.800 241.819 M342.534 247.959 C 342.066 249.302,341.853 250.400,342.061 250.400 C 342.601 250.400,344.111 246.244,343.715 245.848 C 343.533 245.667,343.002 246.617,342.534 247.959 M50.512 247.200 C 50.512 247.860,50.822 249.120,51.200 250.000 C 51.633 251.009,51.888 251.156,51.888 250.400 C 51.888 249.740,51.578 248.480,51.200 247.600 C 50.767 246.591,50.512 246.444,50.512 247.200 M120.134 251.159 C 119.666 252.502,119.453 253.600,119.661 253.600 C 120.201 253.600,121.711 249.444,121.315 249.048 C 121.133 248.867,120.602 249.817,120.134 251.159 M339.361 254.818 C 338.404 256.788,337.789 258.400,337.994 258.400 C 338.536 258.400,341.769 251.902,341.407 251.540 C 341.239 251.372,340.319 252.847,339.361 254.818 M124.448 260.494 C 124.159 261.646,124.076 262.743,124.265 262.932 C 124.454 263.120,124.838 262.358,125.119 261.237 C 125.744 258.748,126.335 258.708,129.292 260.950 L 131.600 262.701 129.661 260.550 C 127.181 257.801,125.129 257.779,124.448 260.494 M297.979 265.000 L 292.400 270.800 298.200 265.221 C 303.587 260.040,304.365 259.200,303.779 259.200 C 303.657 259.200,301.047 261.810,297.979 265.000 M331.957 267.388 C 330.001 270.131,328.267 272.741,328.105 273.188 C 327.733 274.213,334.256 265.689,335.290 263.800 C 336.805 261.032,335.450 262.490,331.957 267.388 M112.089 272.089 C 111.596 273.503,111.333 274.799,111.504 274.971 C 111.675 275.142,112.218 274.125,112.711 272.711 C 113.204 271.297,113.467 270.001,113.296 269.829 C 113.125 269.658,112.582 270.675,112.089 272.089 M121.333 270.133 C 120.019 271.448,120.953 274.873,123.025 276.336 L 125.200 277.872 123.302 275.780 C 121.900 274.235,121.538 273.155,121.917 271.644 C 122.439 269.565,122.289 269.177,121.333 270.133 M144.000 270.784 C 144.000 270.995,145.440 271.902,147.200 272.800 C 151.167 274.824,151.400 274.348,147.554 272.079 C 144.623 270.350,144.000 270.123,144.000 270.784 M288.000 273.310 C 283.645 276.730,283.106 277.280,285.200 276.164 C 286.943 275.236,292.650 270.460,292.000 270.474 C 291.780 270.478,289.980 271.755,288.000 273.310 M153.200 275.854 C 155.807 277.427,158.400 278.525,158.400 278.056 C 158.400 277.667,152.115 274.399,151.375 274.403 C 151.059 274.405,151.880 275.058,153.200 275.854 M321.658 280.200 C 317.043 285.481,316.976 285.606,320.903 281.600 C 325.393 277.020,327.634 274.400,327.061 274.400 C 326.877 274.400,324.445 277.010,321.658 280.200 M126.329 278.669 C 127.498 280.125,132.000 283.554,132.000 282.988 C 132.000 282.812,130.470 281.452,128.600 279.966 C 126.730 278.480,125.708 277.896,126.329 278.669 M66.400 283.656 C 66.400 284.264,71.186 291.200,71.605 291.200 C 71.786 291.200,70.815 289.400,69.447 287.200 C 67.094 283.415,66.400 282.607,66.400 283.656 M134.588 284.981 C 136.963 287.000,141.600 289.895,141.600 289.358 C 141.600 289.176,139.530 287.698,137.000 286.074 C 134.470 284.450,133.384 283.958,134.588 284.981 M174.400 284.692 C 176.348 285.852,179.717 286.695,178.800 285.793 C 178.360 285.361,176.920 284.775,175.600 284.492 C 174.033 284.157,173.617 284.226,174.400 284.692 M313.539 287.736 L 311.600 289.872 313.775 288.336 C 314.971 287.491,315.961 286.530,315.975 286.200 C 316.016 285.215,315.577 285.491,313.539 287.736 M182.000 287.200 C 182.880 287.578,184.140 287.888,184.800 287.888 C 185.556 287.888,185.409 287.633,184.400 287.200 C 183.520 286.822,182.260 286.512,181.600 286.512 C 180.844 286.512,180.991 286.767,182.000 287.200 M189.667 289.085 C 189.850 289.242,191.260 289.601,192.800 289.884 C 194.770 290.245,195.244 290.165,194.400 289.611 C 193.315 288.900,188.873 288.407,189.667 289.085 M250.089 289.455 C 249.867 289.816,250.745 289.955,252.042 289.764 C 253.339 289.574,254.400 289.279,254.400 289.109 C 254.400 288.500,250.486 288.814,250.089 289.455 M308.555 291.668 C 307.321 292.731,306.601 293.588,306.955 293.573 C 307.842 293.537,311.501 290.434,311.113 290.048 C 310.941 289.876,309.790 290.605,308.555 291.668 M201.200 291.246 C 205.252 292.084,208.527 292.047,205.200 291.200 C 203.880 290.864,201.720 290.588,200.400 290.587 C 198.382 290.584,198.509 290.689,201.200 291.246 M238.800 291.200 C 235.473 292.047,238.748 292.084,242.800 291.246 C 245.491 290.689,245.618 290.584,243.600 290.587 C 242.280 290.588,240.120 290.864,238.800 291.200 M72.728 293.466 C 73.160 294.272,74.148 295.442,74.925 296.066 C 75.927 296.871,75.808 296.445,74.514 294.600 C 72.539 291.783,71.461 291.099,72.728 293.466 M217.033 292.594 C 220.022 292.748,224.702 292.747,227.433 292.591 C 230.165 292.436,227.720 292.309,222.000 292.311 C 216.280 292.312,214.045 292.440,217.033 292.594 M104.499 295.631 C 104.224 296.346,104.031 297.531,104.069 298.265 C 104.107 298.999,104.455 298.538,104.842 297.240 C 105.596 294.715,105.330 293.466,104.499 295.631 M302.400 296.071 C 301.072 297.158,300.937 297.430,302.000 296.880 C 304.609 295.532,306.056 294.424,305.200 294.430 C 304.760 294.433,303.500 295.172,302.400 296.071 M78.498 300.800 C 81.394 305.079,96.939 320.887,97.928 320.558 C 98.408 320.398,98.887 319.577,98.993 318.734 C 99.174 317.302,99.140 317.306,98.487 318.800 C 97.760 320.464,89.373 312.822,80.049 302.000 C 77.898 299.503,77.315 299.052,78.498 300.800 M102.493 302.935 C 102.442 303.449,102.167 304.529,101.882 305.335 C 101.481 306.472,101.587 306.595,102.357 305.885 C 102.903 305.382,103.178 304.302,102.968 303.485 C 102.758 302.668,102.544 302.421,102.493 302.935 M168.000 304.400 C 169.100 305.029,170.360 305.543,170.800 305.543 C 171.240 305.543,170.700 305.029,169.600 304.400 C 168.500 303.771,167.240 303.257,166.800 303.257 C 166.360 303.257,166.900 303.771,168.000 304.400 M278.000 308.428 C 276.000 309.392,275.933 309.503,277.600 309.095 C 279.867 308.541,282.415 307.243,281.200 307.260 C 280.760 307.267,279.320 307.792,278.000 308.428 M100.400 311.200 C 100.096 312.583,100.015 313.881,100.218 314.085 C 100.422 314.289,100.819 313.306,101.100 311.900 C 101.767 308.565,101.121 307.919,100.400 311.200 M190.800 312.800 C 191.680 313.178,192.940 313.488,193.600 313.488 C 194.356 313.488,194.209 313.233,193.200 312.800 C 192.320 312.422,191.060 312.112,190.400 312.112 C 189.644 312.112,189.791 312.367,190.800 312.800 M262.800 312.800 L 261.200 313.488 262.800 313.488 C 263.680 313.488,265.120 313.178,266.000 312.800 L 267.600 312.112 266.000 312.112 C 265.120 312.112,263.680 312.422,262.800 312.800 M255.200 314.400 L 253.200 315.041 255.353 315.120 C 256.537 315.164,257.728 314.840,258.000 314.400 C 258.562 313.491,258.040 313.491,255.200 314.400 M210.400 316.826 C 214.010 317.483,223.759 317.854,223.133 317.310 C 222.950 317.151,219.200 316.829,214.800 316.595 C 209.453 316.311,207.994 316.388,210.400 316.826 M232.400 316.800 L 223.600 317.284 231.600 317.372 C 236.000 317.420,241.400 317.179,243.600 316.837 C 248.569 316.063,245.966 316.054,232.400 316.800 " stroke="none" fill="#a4ca65" fill-rule="evenodd"></path><path id="path3" d="M257.037 69.395 C 260.467 69.546,265.867 69.545,269.037 69.393 C 272.206 69.242,269.400 69.119,262.800 69.120 C 256.200 69.121,253.606 69.245,257.037 69.395 M239.681 70.484 C 233.435 71.395,232.764 72.205,238.841 71.497 C 243.971 70.900,248.874 69.715,246.000 69.766 C 245.120 69.782,242.276 70.105,239.681 70.484 M279.200 70.361 C 281.199 71.040,286.163 71.465,285.533 70.903 C 285.350 70.739,283.400 70.397,281.200 70.143 C 278.502 69.831,277.851 69.902,279.200 70.361 M228.400 72.800 L 226.800 73.488 228.400 73.464 C 229.280 73.451,230.900 73.152,232.000 72.800 L 234.000 72.159 232.000 72.136 C 230.900 72.123,229.280 72.422,228.400 72.800 M290.800 72.800 C 291.680 73.178,292.940 73.488,293.600 73.488 C 294.356 73.488,294.209 73.233,293.200 72.800 C 292.320 72.422,291.060 72.112,290.400 72.112 C 289.644 72.112,289.791 72.367,290.800 72.800 M221.000 74.495 C 219.570 74.908,218.400 75.406,218.400 75.603 C 218.400 76.110,223.364 75.111,224.800 74.314 C 226.476 73.385,224.525 73.477,221.000 74.495 M295.200 73.868 C 295.200 74.074,296.362 74.648,297.782 75.143 C 299.202 75.638,300.012 75.714,299.582 75.312 C 298.671 74.459,295.200 73.315,295.200 73.868 M214.000 76.800 C 212.991 77.233,212.844 77.488,213.600 77.488 C 214.260 77.488,215.520 77.178,216.400 76.800 C 217.409 76.367,217.556 76.112,216.800 76.112 C 216.140 76.112,214.880 76.422,214.000 76.800 M306.896 79.957 C 310.432 82.133,314.512 85.103,315.963 86.557 C 317.822 88.420,318.334 88.684,317.699 87.450 C 316.772 85.651,303.018 76.000,301.381 76.000 C 300.878 76.000,303.360 77.780,306.896 79.957 M208.400 78.828 C 206.400 79.792,206.333 79.903,208.000 79.495 C 210.267 78.941,212.815 77.643,211.600 77.660 C 211.160 77.667,209.720 78.192,208.400 78.828 M198.800 82.828 C 196.790 83.796,196.725 83.906,198.400 83.502 C 199.500 83.237,200.742 82.701,201.160 82.310 C 202.197 81.341,201.627 81.466,198.800 82.828 M188.081 87.232 C 186.145 88.110,184.725 88.992,184.925 89.191 C 185.303 89.570,192.000 86.470,192.000 85.916 C 192.000 85.460,191.945 85.479,188.081 87.232 M318.921 92.088 C 319.287 94.425,319.013 95.332,317.487 96.838 L 315.600 98.700 317.600 97.459 C 319.788 96.102,320.583 92.877,319.286 90.620 C 318.662 89.535,318.576 89.882,318.921 92.088 M173.383 95.620 C 169.982 97.610,167.200 99.452,167.200 99.712 C 167.200 99.971,168.010 99.655,169.000 99.008 C 169.990 98.362,172.870 96.666,175.400 95.240 C 179.330 93.025,180.716 92.000,179.783 92.000 C 179.664 92.000,176.784 93.629,173.383 95.620 M300.000 99.200 L 293.200 99.702 299.600 99.764 C 303.120 99.798,308.160 99.558,310.800 99.231 L 315.600 98.635 311.200 98.667 C 308.780 98.684,303.740 98.924,300.000 99.200 M162.137 102.475 C 158.070 105.169,157.015 106.508,160.653 104.360 C 163.490 102.684,166.949 100.041,166.337 100.018 C 166.083 100.008,164.193 101.114,162.137 102.475 M277.748 100.819 C 275.409 101.159,273.277 101.656,273.011 101.922 C 272.535 102.398,276.884 101.946,284.000 100.779 C 289.168 99.931,283.598 99.967,277.748 100.819 M267.200 103.200 C 265.672 104.187,267.317 104.187,270.400 103.200 L 272.400 102.559 270.400 102.492 C 269.300 102.455,267.860 102.773,267.200 103.200 M257.600 105.787 C 254.740 106.710,252.760 107.582,253.200 107.725 C 253.640 107.868,256.520 107.110,259.600 106.040 C 266.445 103.661,264.824 103.457,257.600 105.787 M152.150 109.279 C 149.428 111.302,147.200 113.132,147.200 113.347 C 147.200 113.763,154.811 108.450,156.771 106.666 C 159.224 104.434,156.906 105.745,152.150 109.279 M249.200 108.773 C 248.320 109.142,246.560 109.849,245.289 110.344 C 244.018 110.840,243.152 111.419,243.365 111.632 C 243.578 111.845,245.698 111.135,248.076 110.055 C 252.021 108.264,252.956 107.197,249.200 108.773 M278.000 108.837 C 276.885 109.343,277.370 109.415,279.600 109.075 C 281.360 108.807,282.950 108.456,283.133 108.294 C 283.821 107.688,279.536 108.142,278.000 108.837 M290.273 110.979 C 300.305 116.914,318.387 133.601,322.234 140.474 C 322.699 141.306,323.289 141.778,323.545 141.522 C 325.920 139.147,291.143 108.000,286.116 108.000 C 285.632 108.000,287.503 109.341,290.273 110.979 M271.312 110.518 C 269.834 110.943,268.774 111.441,268.957 111.624 C 269.361 112.028,275.200 110.474,275.200 109.962 C 275.200 109.491,274.565 109.582,271.312 110.518 M264.800 112.800 C 263.733 113.489,263.733 113.575,264.800 113.575 C 265.460 113.575,266.540 113.227,267.200 112.800 C 268.267 112.111,268.267 112.025,267.200 112.025 C 266.540 112.025,265.460 112.373,264.800 112.800 M137.657 120.576 C 125.275 130.915,99.758 156.895,102.118 156.761 C 102.493 156.740,104.420 154.733,106.400 152.302 C 112.128 145.269,128.436 129.222,137.800 121.404 C 145.377 115.078,146.984 113.586,146.200 113.605 C 146.090 113.608,142.246 116.745,137.657 120.576 M234.612 115.357 C 232.749 116.311,231.364 117.231,231.535 117.401 C 231.905 117.771,238.400 114.538,238.400 113.984 C 238.400 113.428,238.328 113.454,234.612 115.357 M258.002 115.308 C 253.643 117.075,252.012 118.165,255.197 117.183 C 258.138 116.276,263.729 113.715,262.800 113.700 C 262.360 113.693,260.201 114.417,258.002 115.308 M225.601 120.053 C 223.182 121.387,220.842 122.860,220.401 123.327 C 219.548 124.231,228.675 119.403,229.960 118.270 C 231.310 117.080,230.094 117.577,225.601 120.053 M248.400 119.547 C 246.200 120.607,244.624 121.502,244.898 121.537 C 245.632 121.630,252.800 118.387,252.800 117.963 C 252.800 117.433,252.759 117.447,248.400 119.547 M214.589 126.821 C 212.285 128.373,210.400 129.817,210.400 130.029 C 210.400 130.242,212.380 129.102,214.800 127.495 C 218.645 124.942,219.774 124.000,218.989 124.000 C 218.873 124.000,216.893 125.270,214.589 126.821 M231.783 127.620 C 228.382 129.610,225.600 131.452,225.600 131.712 C 225.600 131.971,226.410 131.659,227.400 131.016 C 228.390 130.374,231.360 128.664,234.000 127.216 C 239.399 124.255,239.773 124.000,238.717 124.000 C 238.304 124.000,235.184 125.629,231.783 127.620 M204.461 134.021 C 201.854 135.990,200.021 137.600,200.387 137.600 C 201.086 137.600,209.600 131.226,209.600 130.703 C 209.600 130.174,209.296 130.371,204.461 134.021 M228.000 135.200 C 231.083 136.187,232.728 136.187,231.200 135.200 C 230.540 134.773,229.100 134.455,228.000 134.492 L 226.000 134.559 228.000 135.200 M234.800 136.800 C 235.680 137.178,236.940 137.488,237.600 137.488 C 238.356 137.488,238.209 137.233,237.200 136.800 C 236.320 136.422,235.060 136.112,234.400 136.112 C 233.644 136.112,233.791 136.367,234.800 136.800 M240.000 138.265 C 240.660 138.673,242.100 139.247,243.200 139.541 C 244.590 139.913,244.834 139.850,244.000 139.335 C 243.340 138.927,241.900 138.353,240.800 138.059 C 239.410 137.687,239.166 137.750,240.000 138.265 M192.512 144.000 C 189.133 147.080,186.646 149.584,186.984 149.565 C 187.728 149.523,199.801 138.439,199.128 138.416 C 198.868 138.407,195.891 140.920,192.512 144.000 M248.403 141.482 C 250.165 142.299,252.505 143.200,253.603 143.485 C 254.701 143.770,254.159 143.334,252.397 142.518 C 250.635 141.701,248.295 140.800,247.197 140.515 C 246.099 140.230,246.641 140.666,248.403 141.482 M327.263 146.800 C 331.251 152.485,332.787 154.180,330.807 150.711 C 330.025 149.342,328.151 146.822,326.641 145.111 C 324.233 142.382,324.309 142.590,327.263 146.800 M261.667 146.705 C 262.482 147.451,272.000 151.981,272.000 151.623 C 272.000 151.174,262.758 146.400,261.889 146.400 C 261.584 146.400,261.483 146.537,261.667 146.705 M183.600 152.000 C 182.804 152.880,182.512 153.600,182.952 153.600 C 183.392 153.600,184.404 152.880,185.200 152.000 C 185.996 151.120,186.288 150.400,185.848 150.400 C 185.408 150.400,184.396 151.120,183.600 152.000 M332.697 154.800 C 333.129 155.680,334.069 157.120,334.786 158.000 L 336.088 159.600 335.303 158.000 C 334.871 157.120,333.931 155.680,333.214 154.800 L 331.912 153.200 332.697 154.800 M176.695 159.537 C 172.077 164.521,166.452 171.275,169.313 168.400 C 174.798 162.888,181.813 155.157,181.532 154.935 C 181.350 154.791,179.173 156.862,176.695 159.537 M276.800 154.635 C 276.800 154.840,278.691 156.436,281.003 158.181 C 291.591 166.175,303.545 179.182,307.558 187.074 C 308.306 188.545,309.112 189.555,309.349 189.318 C 309.960 188.707,303.261 178.832,298.672 173.578 C 293.271 167.396,276.800 153.130,276.800 154.635 M99.200 159.600 C 98.167 160.700,97.654 161.589,98.061 161.575 C 98.745 161.552,102.041 157.600,101.377 157.600 C 101.213 157.600,100.233 158.500,99.200 159.600 M336.000 160.600 C 336.000 160.982,336.522 161.993,337.160 162.847 C 338.280 164.345,338.304 164.336,337.864 162.588 C 337.409 160.782,336.000 159.279,336.000 160.600 M93.909 166.163 C 92.214 168.232,91.244 169.667,91.755 169.352 C 92.843 168.679,97.909 162.400,97.364 162.400 C 97.160 162.400,95.605 164.093,93.909 166.163 M340.436 169.800 C 340.735 170.790,341.309 171.952,341.712 172.382 C 342.114 172.812,342.038 172.002,341.543 170.582 C 340.530 167.676,339.595 167.015,340.436 169.800 M85.405 177.400 C 77.999 187.520,69.170 200.800,69.848 200.800 C 70.037 200.800,73.297 196.210,77.094 190.600 C 80.890 184.990,85.639 178.150,87.645 175.400 C 89.652 172.650,91.122 170.400,90.911 170.400 C 90.700 170.400,88.223 173.550,85.405 177.400 M163.600 174.580 C 159.288 180.122,158.246 181.600,158.653 181.600 C 158.842 181.600,161.018 179.080,163.489 176.000 C 165.960 172.920,167.716 170.415,167.391 170.434 C 167.066 170.453,165.360 172.319,163.600 174.580 M344.500 180.800 C 344.779 182.340,345.323 184.320,345.708 185.200 C 346.188 186.298,346.249 185.922,345.900 184.000 C 345.621 182.460,345.077 180.480,344.692 179.600 C 344.212 178.502,344.151 178.878,344.500 180.800 M156.000 184.800 C 155.060 186.120,154.471 187.200,154.691 187.200 C 154.911 187.200,155.860 186.120,156.800 184.800 C 157.740 183.480,158.329 182.400,158.109 182.400 C 157.889 182.400,156.940 183.480,156.000 184.800 M346.589 188.800 C 346.589 189.900,346.864 191.880,347.200 193.200 C 347.745 195.341,347.811 195.384,347.811 193.600 C 347.811 192.500,347.536 190.520,347.200 189.200 C 346.655 187.059,346.589 187.016,346.589 188.800 M151.375 191.400 C 148.444 195.727,147.823 196.800,148.246 196.800 C 148.538 196.800,151.761 192.314,153.840 189.015 C 155.507 186.370,153.401 188.407,151.375 191.400 M348.400 211.200 C 348.400 219.780,348.643 225.180,348.941 223.200 C 349.238 221.220,349.481 215.820,349.481 211.200 C 349.481 206.580,349.238 201.180,348.941 199.200 C 348.643 197.220,348.400 202.620,348.400 211.200 M146.705 198.600 C 143.951 203.272,143.772 203.671,145.174 202.000 C 146.799 200.064,148.200 197.600,147.675 197.600 C 147.466 197.600,147.029 198.050,146.705 198.600 M314.108 201.200 C 314.948 205.006,316.095 207.293,315.512 204.000 C 315.239 202.460,314.693 200.660,314.297 200.000 C 313.827 199.216,313.762 199.631,314.108 201.200 M64.838 208.413 C 59.474 217.494,54.788 226.192,55.794 225.200 C 56.240 224.760,57.785 222.240,59.228 219.600 C 60.672 216.960,62.625 213.540,63.571 212.000 C 67.164 206.144,69.652 201.600,69.265 201.600 C 69.043 201.600,67.051 204.666,64.838 208.413 M142.705 205.000 C 139.951 209.672,139.772 210.071,141.174 208.400 C 142.799 206.464,144.200 204.000,143.675 204.000 C 143.466 204.000,143.029 204.450,142.705 205.000 M316.151 208.400 C 316.172 209.280,316.464 211.080,316.800 212.400 L 317.411 214.800 317.449 212.400 C 317.470 211.080,317.178 209.280,316.800 208.400 L 316.112 206.800 316.151 208.400 M317.869 222.400 C 317.869 225.700,318.010 227.050,318.183 225.400 C 318.355 223.750,318.355 221.050,318.183 219.400 C 318.010 217.750,317.869 219.100,317.869 222.400 M131.960 224.078 C 131.041 225.880,130.426 227.492,130.593 227.660 C 130.761 227.828,131.681 226.353,132.639 224.382 C 134.819 219.895,134.229 219.630,131.960 224.078 M51.711 231.895 C 50.110 234.941,48.831 238.101,48.869 238.917 C 48.916 239.931,49.139 239.736,49.574 238.297 C 49.923 237.141,51.346 234.124,52.735 231.594 C 54.123 229.063,55.116 226.849,54.941 226.674 C 54.765 226.499,53.312 228.848,51.711 231.895 M346.836 230.836 C 346.530 232.877,346.444 234.710,346.644 234.910 C 346.844 235.110,347.258 233.604,347.564 231.564 C 347.870 229.523,347.956 227.690,347.756 227.490 C 347.556 227.290,347.142 228.796,346.836 230.836 M127.960 232.078 C 127.041 233.880,126.426 235.492,126.593 235.660 C 126.761 235.828,127.681 234.353,128.639 232.382 C 130.819 227.895,130.229 227.630,127.960 232.078 M316.444 233.244 C 316.143 234.850,316.077 236.343,316.297 236.563 C 316.517 236.783,316.943 235.650,317.244 234.044 C 317.546 232.439,317.612 230.945,317.392 230.725 C 317.172 230.505,316.746 231.639,316.444 233.244 M344.133 241.333 C 343.224 244.311,342.617 246.884,342.784 247.051 C 342.951 247.218,343.838 244.925,344.756 241.956 C 345.673 238.986,346.280 236.413,346.105 236.238 C 345.929 236.063,345.042 238.356,344.133 241.333 M124.037 240.502 C 122.302 244.426,121.901 246.141,123.268 243.792 C 124.564 241.567,126.459 236.800,126.048 236.800 C 125.843 236.800,124.938 238.466,124.037 240.502 M314.560 240.560 C 313.376 244.417,313.949 244.990,315.200 241.200 C 315.728 239.601,316.004 238.137,315.814 237.947 C 315.624 237.757,315.059 238.933,314.560 240.560 M49.736 241.600 C 49.777 243.679,51.036 247.093,51.064 245.200 C 51.077 244.320,50.778 242.880,50.400 242.000 C 49.979 241.020,49.722 240.865,49.736 241.600 M120.930 247.634 C 119.590 250.576,119.845 251.204,121.295 248.529 C 121.971 247.280,122.376 246.109,122.193 245.926 C 122.010 245.743,121.441 246.512,120.930 247.634 M340.930 250.034 C 339.590 252.976,339.845 253.604,341.295 250.929 C 341.971 249.680,342.376 248.509,342.193 248.326 C 342.010 248.143,341.441 248.912,340.930 250.034 M52.082 250.400 C 52.091 251.787,55.088 259.203,55.155 258.000 C 55.179 257.560,54.496 255.400,53.637 253.200 C 52.778 251.000,52.078 249.740,52.082 250.400 M305.999 256.453 C 304.312 258.903,299.842 263.827,296.066 267.397 C 292.290 270.966,290.280 273.129,291.600 272.202 C 296.599 268.694,310.389 253.323,309.414 252.347 C 309.223 252.156,307.686 254.004,305.999 256.453 M116.050 259.650 C 115.040 262.087,114.383 264.250,114.590 264.456 C 114.796 264.663,115.746 262.793,116.700 260.300 C 118.954 254.410,118.436 253.893,116.050 259.650 M334.123 263.000 C 332.074 266.410,331.283 268.134,332.364 266.831 C 334.354 264.432,338.774 256.800,338.173 256.800 C 337.994 256.800,336.171 259.590,334.123 263.000 M55.259 259.347 C 55.165 260.219,59.394 269.673,59.729 269.338 C 59.895 269.171,58.971 266.732,57.675 263.918 C 56.379 261.103,55.292 259.046,55.259 259.347 M130.875 263.065 C 137.135 267.445,141.422 270.182,140.739 269.364 C 139.782 268.218,126.774 259.200,126.077 259.200 C 125.677 259.200,127.836 260.939,130.875 263.065 M112.889 268.089 C 112.396 269.503,112.133 270.799,112.304 270.971 C 112.475 271.142,113.018 270.125,113.511 268.711 C 114.004 267.297,114.267 266.001,114.096 265.829 C 113.925 265.658,113.382 266.675,112.889 268.089 M122.545 268.945 C 122.070 270.817,121.820 272.486,121.988 272.655 C 122.157 272.824,122.702 271.449,123.200 269.600 C 123.698 267.751,123.949 266.082,123.757 265.891 C 123.566 265.699,123.021 267.074,122.545 268.945 M109.689 277.289 C 108.760 280.247,108.141 282.807,108.312 282.978 C 108.483 283.150,109.383 280.869,110.311 277.911 C 111.240 274.953,111.859 272.393,111.688 272.222 C 111.517 272.050,110.617 274.331,109.689 277.289 M323.572 277.000 C 321.470 279.310,317.633 283.090,315.045 285.400 C 309.313 290.516,309.699 291.006,315.534 286.021 C 319.411 282.709,328.568 272.800,327.751 272.800 C 327.554 272.800,325.674 274.690,323.572 277.000 M63.450 277.200 C 64.562 279.400,66.057 281.920,66.771 282.800 C 67.485 283.680,66.915 282.240,65.505 279.600 C 62.325 273.649,60.688 271.737,63.450 277.200 M148.800 273.967 C 148.800 274.187,150.240 275.102,152.000 276.000 C 153.760 276.898,155.200 277.453,155.200 277.233 C 155.200 277.013,153.760 276.098,152.000 275.200 C 150.240 274.302,148.800 273.747,148.800 273.967 M125.200 277.155 C 128.304 279.911,138.809 287.496,137.200 285.820 C 136.760 285.362,133.160 282.585,129.200 279.650 C 125.240 276.715,123.440 275.593,125.200 277.155 M281.392 278.315 C 276.520 281.174,275.438 282.288,279.600 280.161 C 282.689 278.582,286.420 276.035,285.600 276.066 C 285.380 276.074,283.486 277.086,281.392 278.315 M270.800 283.617 C 268.600 284.654,267.340 285.508,268.000 285.515 C 268.660 285.522,270.820 284.660,272.800 283.600 C 277.400 281.137,276.041 281.148,270.800 283.617 M171.200 284.338 C 172.300 285.001,173.740 285.545,174.400 285.547 C 176.005 285.553,174.103 284.433,171.200 283.663 L 169.200 283.133 171.200 284.338 M106.947 285.106 C 106.646 285.890,106.423 287.131,106.451 287.865 C 106.484 288.749,106.762 288.548,107.274 287.269 C 107.698 286.206,107.921 284.964,107.770 284.509 C 107.618 284.054,107.248 284.322,106.947 285.106 M68.483 285.800 C 70.461 289.226,77.952 299.369,80.744 302.402 C 82.566 304.381,81.417 302.560,78.190 298.356 C 74.963 294.152,71.501 289.382,70.496 287.756 C 68.851 285.094,67.085 283.378,68.483 285.800 M177.268 286.344 C 178.040 287.069,183.888 288.482,183.200 287.777 C 182.980 287.552,181.391 286.982,179.668 286.512 C 177.945 286.041,176.865 285.966,177.268 286.344 M259.600 287.613 C 256.520 288.629,254.560 289.492,255.245 289.530 C 256.618 289.607,266.400 286.447,266.400 285.927 C 266.400 285.430,265.664 285.613,259.600 287.613 M138.400 286.631 C 138.400 287.256,150.288 294.736,154.400 296.699 C 158.715 298.759,157.679 298.014,149.200 292.961 C 145.680 290.864,141.810 288.488,140.600 287.682 C 139.390 286.876,138.400 286.403,138.400 286.631 M185.200 288.800 C 186.080 289.178,187.520 289.488,188.400 289.488 L 190.000 289.488 188.400 288.800 C 187.520 288.422,186.080 288.112,185.200 288.112 L 183.600 288.112 185.200 288.800 M104.880 292.480 C 104.420 294.147,104.187 295.654,104.363 295.830 C 104.539 296.006,105.060 294.787,105.520 293.120 C 105.980 291.453,106.213 289.946,106.037 289.770 C 105.861 289.594,105.340 290.813,104.880 292.480 M192.000 290.295 C 192.660 290.695,195.540 291.226,198.400 291.474 C 202.948 291.869,203.149 291.834,200.000 291.193 C 193.193 289.806,190.739 289.530,192.000 290.295 M245.600 290.850 L 240.400 291.906 245.600 291.464 C 248.460 291.221,251.340 290.713,252.000 290.335 C 253.659 289.386,252.263 289.499,245.600 290.850 M306.800 292.470 L 304.400 294.532 307.000 292.812 C 308.430 291.865,309.600 290.936,309.600 290.746 C 309.600 290.147,309.261 290.355,306.800 292.470 M208.400 292.930 C 210.600 293.221,216.720 293.460,222.000 293.460 C 227.280 293.460,233.400 293.221,235.600 292.930 C 237.800 292.638,231.680 292.400,222.000 292.400 C 212.320 292.400,206.200 292.638,208.400 292.930 M298.600 297.692 C 295.873 299.438,294.991 300.611,297.400 299.287 C 299.236 298.278,302.111 296.054,301.600 296.039 C 301.380 296.032,300.030 296.776,298.600 297.692 M102.947 298.706 C 102.646 299.490,102.423 300.731,102.451 301.465 C 102.484 302.349,102.762 302.148,103.274 300.869 C 103.698 299.806,103.921 298.564,103.770 298.109 C 103.618 297.654,103.248 297.922,102.947 298.706 M161.600 300.315 C 161.600 300.541,162.950 301.342,164.600 302.097 C 166.250 302.852,167.870 303.610,168.200 303.782 C 168.530 303.954,168.800 303.910,168.800 303.685 C 168.800 303.459,167.450 302.658,165.800 301.903 C 164.150 301.148,162.530 300.390,162.200 300.218 C 161.870 300.046,161.600 300.090,161.600 300.315 M169.600 304.268 C 169.600 304.474,170.762 305.048,172.182 305.543 C 173.602 306.038,174.412 306.114,173.982 305.712 C 173.071 304.859,169.600 303.715,169.600 304.268 M282.581 305.766 C 280.261 306.681,278.506 307.572,278.681 307.748 C 279.073 308.140,285.709 305.620,286.760 304.680 C 287.789 303.759,287.452 303.847,282.581 305.766 M100.500 308.100 C 99.833 311.435,100.479 312.081,101.200 308.800 C 101.504 307.417,101.585 306.119,101.382 305.915 C 101.178 305.711,100.781 306.694,100.500 308.100 M89.620 312.456 C 95.793 318.708,98.400 320.718,98.400 319.228 C 98.400 318.773,97.921 318.400,97.335 318.400 C 96.750 318.400,93.652 315.700,90.453 312.400 C 87.253 309.100,84.411 306.400,84.137 306.400 C 83.864 306.400,86.331 309.125,89.620 312.456 M175.200 306.727 C 175.200 307.184,185.015 310.452,185.358 310.109 C 185.635 309.831,176.716 306.400,175.718 306.400 C 175.433 306.400,175.200 306.547,175.200 306.727 M273.712 308.918 C 272.234 309.343,271.174 309.841,271.357 310.024 C 271.761 310.428,277.600 308.874,277.600 308.362 C 277.600 307.891,276.965 307.982,273.712 308.918 M187.600 311.200 C 188.480 311.578,189.740 311.888,190.400 311.888 C 191.156 311.888,191.009 311.633,190.000 311.200 C 189.120 310.822,187.860 310.512,187.200 310.512 C 186.444 310.512,186.591 310.767,187.600 311.200 M266.000 311.200 L 264.400 311.888 266.000 311.888 C 266.880 311.888,268.320 311.578,269.200 311.200 L 270.800 310.512 269.200 310.512 C 268.320 310.512,266.880 310.822,266.000 311.200 M193.200 312.699 C 194.080 313.069,196.240 313.598,198.000 313.873 C 200.031 314.191,200.615 314.128,199.600 313.701 C 198.720 313.331,196.560 312.802,194.800 312.527 C 192.769 312.209,192.185 312.272,193.200 312.699 M259.600 312.800 C 257.422 313.354,257.385 313.414,259.200 313.449 C 260.300 313.470,261.920 313.178,262.800 312.800 C 264.773 311.952,262.931 311.952,259.600 312.800 M98.947 313.906 C 98.646 314.690,98.423 315.931,98.451 316.665 C 98.484 317.549,98.762 317.348,99.274 316.069 C 99.698 315.006,99.921 313.764,99.770 313.309 C 99.618 312.854,99.248 313.122,98.947 313.906 M204.400 315.246 C 206.160 315.610,208.500 315.887,209.600 315.862 C 210.883 315.832,210.453 315.579,208.400 315.154 C 206.640 314.790,204.300 314.513,203.200 314.538 C 201.917 314.568,202.347 314.821,204.400 315.246 M245.200 315.200 C 242.506 315.682,242.380 315.782,244.400 315.827 C 245.720 315.857,248.420 315.593,250.400 315.241 C 253.630 314.666,253.712 314.602,251.200 314.614 C 249.660 314.621,246.960 314.885,245.200 315.200 M212.971 316.437 C 213.521 316.988,240.108 316.958,240.660 316.407 C 240.884 316.183,234.647 316.000,226.800 316.000 C 218.953 316.000,212.730 316.197,212.971 316.437 " stroke="none" fill="#cbe1aa" fill-rule="evenodd"></path><path id="path4" d="M245.600 70.400 C 243.882 70.950,244.051 71.044,246.800 71.064 C 248.560 71.077,250.720 70.778,251.600 70.400 C 253.746 69.478,248.480 69.478,245.600 70.400 M274.000 70.400 C 274.880 70.778,276.860 71.077,278.400 71.064 C 280.945 71.043,281.018 70.982,279.200 70.400 C 276.297 69.470,271.836 69.470,274.000 70.400 M235.600 72.000 C 233.288 72.588,233.317 72.614,236.400 72.693 C 238.160 72.738,240.140 72.427,240.800 72.000 C 242.271 71.049,239.336 71.049,235.600 72.000 M283.200 71.916 C 283.860 72.283,286.200 72.777,288.400 73.013 L 292.400 73.443 289.200 72.383 C 285.520 71.164,281.251 70.832,283.200 71.916 M294.400 74.272 C 294.400 74.920,301.679 77.788,302.144 77.323 C 302.306 77.161,300.629 76.277,298.419 75.359 C 296.208 74.440,294.400 73.951,294.400 74.272 M217.600 76.437 L 214.800 77.553 218.000 77.079 C 219.760 76.819,221.542 76.290,221.960 75.903 C 223.081 74.866,220.862 75.137,217.600 76.437 M303.205 78.227 C 303.211 78.938,308.095 81.772,308.543 81.324 C 308.722 81.145,307.593 80.246,306.034 79.326 C 304.475 78.406,303.202 77.912,303.205 78.227 M206.000 80.403 L 203.600 81.534 206.000 81.064 C 207.320 80.805,208.742 80.280,209.160 79.897 C 210.300 78.851,208.774 79.096,206.000 80.403 M311.524 83.884 C 312.362 84.828,313.373 85.600,313.771 85.600 C 314.897 85.600,313.700 84.108,311.755 83.088 C 310.012 82.174,310.011 82.179,311.524 83.884 M196.884 84.068 C 195.830 84.489,195.126 84.992,195.319 85.185 C 195.894 85.761,199.200 84.672,199.200 83.907 C 199.200 83.518,199.110 83.223,199.000 83.251 C 198.890 83.279,197.938 83.646,196.884 84.068 M315.225 86.111 C 315.262 87.088,317.514 89.953,317.923 89.542 C 318.110 89.354,317.573 88.350,316.731 87.311 C 315.889 86.273,315.211 85.733,315.225 86.111 M181.762 91.362 C 180.312 92.258,179.303 93.169,179.520 93.387 C 179.918 93.785,185.600 90.559,185.600 89.935 C 185.600 89.291,184.380 89.745,181.762 91.362 M174.800 95.579 C 173.040 96.663,171.918 97.561,172.306 97.575 C 173.110 97.604,178.400 94.444,178.400 93.935 C 178.400 93.399,178.169 93.504,174.800 95.579 M314.800 97.171 C 312.939 98.023,312.759 98.279,314.000 98.310 C 314.880 98.331,316.299 97.821,317.153 97.175 C 319.080 95.717,317.979 95.715,314.800 97.171 M286.263 99.143 C 282.007 99.394,278.249 99.879,277.910 100.220 C 277.571 100.561,279.793 100.623,282.847 100.359 C 285.901 100.095,292.540 99.597,297.600 99.253 C 305.409 98.723,305.833 98.633,300.400 98.657 C 296.880 98.672,290.518 98.891,286.263 99.143 M166.742 100.383 C 165.894 101.024,165.560 101.555,166.000 101.562 C 167.189 101.582,169.221 100.154,168.718 99.652 C 168.479 99.412,167.589 99.741,166.742 100.383 M270.800 101.600 C 270.210 102.555,271.777 102.555,274.000 101.600 C 275.429 100.986,275.369 100.906,273.447 100.856 C 272.263 100.825,271.072 101.160,270.800 101.600 M158.964 105.390 C 155.974 107.373,153.674 109.141,153.852 109.319 C 154.030 109.497,156.083 108.359,158.415 106.790 C 160.746 105.221,163.223 103.619,163.920 103.229 C 164.617 102.839,165.010 102.355,164.793 102.153 C 164.577 101.951,161.954 103.408,158.964 105.390 M264.000 102.977 C 262.900 103.174,261.651 103.672,261.225 104.083 C 260.318 104.957,265.348 104.142,267.200 103.114 C 268.577 102.351,267.700 102.313,264.000 102.977 M251.600 106.970 C 250.720 107.182,249.640 107.721,249.200 108.168 C 248.660 108.716,249.050 108.789,250.400 108.393 C 254.542 107.178,255.511 106.030,251.600 106.970 M281.200 108.788 C 279.270 109.270,279.608 109.369,282.923 109.294 C 285.191 109.242,286.631 108.936,286.123 108.612 C 285.067 107.940,284.520 107.960,281.200 108.788 M150.000 111.668 C 148.680 112.726,147.995 113.594,148.478 113.596 C 149.514 113.601,153.205 110.536,152.728 110.067 C 152.548 109.889,151.320 110.609,150.000 111.668 M289.200 110.942 C 290.080 111.788,291.520 112.733,292.400 113.042 L 294.000 113.604 292.400 112.343 C 291.520 111.650,290.080 110.705,289.200 110.243 L 287.600 109.403 289.200 110.942 M239.800 111.829 C 238.150 112.570,236.800 113.434,236.800 113.749 C 236.800 114.326,242.769 111.898,243.743 110.924 C 244.636 110.031,242.935 110.421,239.800 111.829 M268.400 112.403 L 266.000 113.534 268.400 113.059 C 269.720 112.798,271.340 112.284,272.000 111.916 C 274.154 110.718,271.100 111.131,268.400 112.403 M144.797 115.603 C 143.765 116.701,143.109 117.600,143.338 117.600 C 144.132 117.600,147.455 114.388,147.065 113.998 C 146.849 113.783,145.829 114.505,144.797 115.603 M231.418 115.856 C 229.998 116.595,228.828 117.477,228.818 117.816 C 228.808 118.155,230.240 117.698,232.000 116.800 C 233.760 115.902,235.200 114.995,235.200 114.784 C 235.200 114.142,234.125 114.447,231.418 115.856 M257.200 116.499 L 254.800 117.669 257.200 117.178 C 258.520 116.908,259.942 116.352,260.360 115.943 C 261.461 114.866,260.038 115.117,257.200 116.499 M296.831 115.733 C 296.848 116.100,298.521 117.621,300.549 119.114 C 302.577 120.607,303.997 121.443,303.707 120.973 C 302.871 119.621,296.797 114.991,296.831 115.733 M137.941 121.409 C 135.709 123.494,134.618 124.660,135.518 124.000 C 137.813 122.316,142.882 117.613,142.400 117.616 C 142.180 117.617,140.173 119.324,137.941 121.409 M248.000 120.462 L 246.000 121.667 248.000 121.143 C 249.100 120.856,250.342 120.301,250.760 119.910 C 251.982 118.768,250.229 119.119,248.000 120.462 M304.800 121.877 C 304.800 122.728,313.593 131.473,314.020 131.047 C 314.206 130.861,312.208 128.580,309.579 125.979 C 306.951 123.378,304.800 121.532,304.800 121.877 M217.400 123.807 C 214.163 125.813,214.716 126.631,218.000 124.694 C 219.540 123.785,220.800 122.898,220.800 122.721 C 220.800 122.075,219.548 122.475,217.400 123.807 M239.199 124.499 L 237.200 125.667 239.200 125.134 C 241.428 124.540,242.029 124.162,241.532 123.665 C 241.348 123.481,240.298 123.856,239.199 124.499 M123.980 133.893 C 112.494 145.131,101.077 157.600,102.271 157.600 C 102.676 157.600,104.382 155.890,106.062 153.800 C 107.743 151.710,114.460 144.644,120.990 138.098 C 127.520 131.551,132.749 126.082,132.611 125.944 C 132.473 125.806,128.589 129.383,123.980 133.893 M207.021 131.052 C 203.623 133.554,200.833 135.873,200.821 136.206 C 200.803 136.712,211.518 129.271,213.960 127.081 C 216.595 124.719,212.241 127.211,207.021 131.052 M231.647 128.425 C 230.793 129.071,230.454 129.600,230.894 129.600 C 231.334 129.600,232.393 129.071,233.247 128.425 C 234.101 127.779,234.440 127.251,234.000 127.251 C 233.560 127.251,232.501 127.779,231.647 128.425 M225.800 131.730 C 224.230 132.363,224.631 134.400,226.325 134.400 C 227.456 134.400,227.742 133.987,227.432 132.800 C 227.202 131.920,226.965 131.228,226.907 131.263 C 226.848 131.298,226.350 131.508,225.800 131.730 M315.689 133.575 C 316.520 134.661,317.642 136.029,318.182 136.614 C 318.722 137.200,319.704 138.449,320.364 139.391 C 321.023 140.333,321.768 140.898,322.019 140.648 C 322.269 140.397,320.608 138.259,318.327 135.896 C 316.045 133.533,314.859 132.489,315.689 133.575 M231.200 135.074 C 232.920 136.086,238.123 136.990,237.175 136.112 C 236.749 135.717,234.960 135.163,233.200 134.881 C 231.209 134.561,230.454 134.634,231.200 135.074 M196.750 139.256 C 195.237 140.588,194.720 141.307,195.600 140.853 C 198.049 139.589,200.329 137.662,199.892 137.225 C 199.676 137.009,198.262 137.923,196.750 139.256 M244.000 139.092 C 245.948 140.252,249.317 141.095,248.400 140.193 C 247.960 139.761,246.520 139.175,245.200 138.892 C 243.633 138.557,243.217 138.626,244.000 139.092 M323.200 142.158 C 323.200 143.230,325.399 146.068,325.866 145.599 C 326.084 145.379,325.573 144.350,324.731 143.311 C 323.889 142.273,323.200 141.754,323.200 142.158 M183.351 151.800 C 171.869 163.258,166.137 169.603,166.731 170.198 C 166.977 170.443,167.985 169.599,168.971 168.322 C 171.985 164.420,178.421 157.584,186.400 149.808 C 190.580 145.735,193.724 142.402,193.386 142.401 C 193.048 142.401,188.532 146.630,183.351 151.800 M253.600 142.569 C 254.446 143.465,261.600 146.279,261.600 145.716 C 261.600 145.203,259.911 144.463,254.400 142.559 C 253.740 142.332,253.380 142.336,253.600 142.569 M264.799 147.501 C 265.898 148.144,266.948 148.519,267.132 148.335 C 267.629 147.838,267.028 147.460,264.800 146.866 L 262.800 146.333 264.799 147.501 M327.727 148.800 C 328.507 150.120,329.438 151.200,329.796 151.200 C 330.155 151.200,329.649 150.120,328.674 148.800 C 327.698 147.480,326.766 146.400,326.604 146.400 C 326.442 146.400,326.948 147.480,327.727 148.800 M271.200 150.721 C 271.200 150.898,272.460 151.785,274.000 152.694 C 275.540 153.603,276.800 154.076,276.800 153.746 C 276.800 153.415,275.754 152.527,274.477 151.772 C 272.176 150.413,271.200 150.100,271.200 150.721 M330.438 152.400 C 330.418 153.589,331.846 155.621,332.348 155.118 C 332.588 154.879,332.259 153.989,331.617 153.142 C 330.976 152.294,330.445 151.960,330.438 152.400 M279.600 156.332 C 280.920 157.391,282.141 158.118,282.313 157.948 C 282.745 157.523,278.988 154.459,278.000 154.431 C 277.560 154.418,278.280 155.274,279.600 156.332 M98.202 161.798 C 95.327 165.198,94.729 167.266,97.472 164.321 C 99.227 162.438,101.925 158.400,101.429 158.400 C 101.234 158.400,99.782 159.929,98.202 161.798 M284.797 160.397 C 285.829 161.495,286.849 162.217,287.065 162.002 C 287.455 161.612,284.132 158.400,283.338 158.400 C 283.109 158.400,283.765 159.299,284.797 160.397 M334.400 159.000 C 334.400 159.382,334.922 160.393,335.560 161.247 C 336.680 162.745,336.704 162.736,336.264 160.988 C 335.809 159.182,334.400 157.679,334.400 159.000 M293.788 168.422 C 297.192 171.930,301.093 176.330,302.458 178.200 C 305.149 181.888,306.631 182.892,304.433 179.539 C 301.592 175.202,294.031 167.084,289.600 163.612 C 288.500 162.750,290.385 164.915,293.788 168.422 M93.080 168.200 C 90.193 171.449,85.102 179.155,87.714 176.321 C 91.726 171.969,95.834 166.400,95.031 166.400 C 94.838 166.400,93.959 167.210,93.080 168.200 M338.800 168.000 C 339.119 169.100,339.740 170.360,340.180 170.800 C 340.713 171.333,340.787 170.933,340.400 169.600 C 340.081 168.500,339.460 167.240,339.020 166.800 C 338.487 166.267,338.413 166.667,338.800 168.000 M164.394 172.230 C 163.132 173.747,160.732 177.600,161.048 177.600 C 161.204 177.600,162.489 176.160,163.904 174.400 C 165.318 172.640,166.188 171.214,165.838 171.230 C 165.487 171.247,164.837 171.697,164.394 172.230 M340.800 173.106 C 340.800 173.766,341.160 174.528,341.600 174.800 C 342.040 175.072,342.400 174.754,342.400 174.094 C 342.400 173.434,342.040 172.672,341.600 172.400 C 341.160 172.128,340.800 172.446,340.800 173.106 M342.673 177.065 C 342.963 177.871,343.200 179.221,343.200 180.065 C 343.200 180.909,343.535 181.600,343.944 181.600 C 344.733 181.600,343.686 176.971,342.697 176.091 C 342.394 175.821,342.382 176.259,342.673 177.065 M156.900 182.100 C 155.475 184.122,154.449 185.916,154.620 186.087 C 154.791 186.257,156.109 184.756,157.550 182.750 C 158.991 180.744,160.017 178.950,159.830 178.763 C 159.644 178.577,158.325 180.078,156.900 182.100 M80.926 184.800 C 79.951 186.120,79.445 187.200,79.804 187.200 C 80.162 187.200,81.093 186.120,81.873 184.800 C 82.652 183.480,83.158 182.400,82.996 182.400 C 82.834 182.400,81.902 183.480,80.926 184.800 M344.856 185.800 C 344.825 187.010,345.160 188.000,345.600 188.000 C 346.539 188.000,346.539 187.385,345.600 185.200 C 344.991 183.782,344.906 183.851,344.856 185.800 M308.037 186.469 C 308.528 187.386,309.089 187.978,309.284 187.783 C 309.844 187.223,308.708 184.800,307.886 184.800 C 307.478 184.800,307.545 185.550,308.037 186.469 M151.721 189.280 C 150.908 190.396,150.394 191.460,150.578 191.645 C 150.763 191.829,151.709 190.905,152.681 189.590 C 153.653 188.276,154.167 187.211,153.824 187.225 C 153.481 187.239,152.535 188.164,151.721 189.280 M73.580 195.781 C 70.803 200.081,68.188 204.050,67.768 204.600 C 67.348 205.150,67.318 205.592,67.702 205.583 C 68.086 205.573,70.018 202.873,71.995 199.583 C 73.973 196.292,75.863 193.600,76.195 193.600 C 76.528 193.600,76.800 193.178,76.800 192.663 C 76.800 192.148,77.398 191.065,78.128 190.258 C 78.859 189.451,79.270 188.604,79.042 188.376 C 78.814 188.148,76.356 191.480,73.580 195.781 M346.981 197.600 C 347.230 201.340,347.734 205.120,348.102 206.000 C 348.891 207.889,348.092 197.194,347.159 193.378 C 346.792 191.880,346.718 193.649,346.981 197.600 M312.879 196.200 C 314.534 200.401,315.200 201.617,315.200 200.441 C 315.200 199.045,312.382 192.000,311.824 192.000 C 311.494 192.000,311.968 193.890,312.879 196.200 M147.695 195.255 C 146.897 196.606,146.415 197.881,146.623 198.090 C 146.831 198.298,147.754 197.193,148.674 195.634 C 149.594 194.075,150.076 192.800,149.746 192.800 C 149.415 192.800,148.492 193.905,147.695 195.255 M142.956 202.895 C 141.729 204.928,140.879 206.746,141.069 206.935 C 141.258 207.125,142.532 205.462,143.899 203.240 C 145.267 201.018,146.116 199.200,145.787 199.200 C 145.458 199.200,144.184 200.863,142.956 202.895 M315.662 204.400 C 316.694 208.704,317.670 210.275,317.152 206.800 C 316.890 205.040,316.318 203.240,315.881 202.800 C 315.355 202.270,315.281 202.810,315.662 204.400 M317.981 221.954 C 317.991 228.529,318.227 232.849,318.505 231.554 C 319.169 228.464,319.155 215.462,318.486 212.400 C 318.197 211.080,317.970 215.379,317.981 221.954 M136.649 213.775 C 135.358 215.792,134.285 218.400,134.746 218.400 C 134.909 218.400,135.812 217.095,136.753 215.499 C 138.626 212.325,138.535 210.828,136.649 213.775 M60.867 216.467 C 59.914 218.081,59.285 219.552,59.468 219.735 C 59.652 219.918,60.581 218.748,61.533 217.133 C 62.486 215.519,63.115 214.048,62.932 213.865 C 62.748 213.682,61.819 214.852,60.867 216.467 M347.684 217.706 C 347.039 220.810,346.231 231.634,346.678 231.188 C 347.318 230.550,349.020 216.754,348.521 216.254 C 348.277 216.011,347.901 216.664,347.684 217.706 M56.847 223.701 C 55.905 225.296,55.304 226.771,55.512 226.978 C 55.719 227.186,56.641 225.880,57.560 224.078 C 59.630 220.021,59.163 219.775,56.847 223.701 M130.925 224.165 C 130.275 226.651,130.771 226.778,131.853 224.403 C 132.355 223.302,132.455 222.400,132.076 222.400 C 131.697 222.400,131.179 223.194,130.925 224.165 M126.925 232.165 C 126.275 234.651,126.771 234.778,127.853 232.403 C 128.355 231.302,128.455 230.400,128.076 230.400 C 127.697 230.400,127.179 231.194,126.925 232.165 M51.105 234.647 C 49.587 237.770,49.466 238.664,50.250 240.943 L 51.163 243.600 50.778 240.776 C 50.523 238.901,50.929 236.901,51.985 234.830 C 52.860 233.114,53.418 231.551,53.225 231.358 C 53.031 231.165,52.077 232.645,51.105 234.647 M345.383 234.083 C 345.063 234.404,344.811 235.417,344.824 236.333 C 344.847 237.872,344.912 237.890,345.681 236.570 C 346.576 235.032,346.347 233.120,345.383 234.083 M316.449 236.600 C 316.160 237.810,315.721 239.520,315.472 240.400 C 315.164 241.491,315.283 241.746,315.848 241.200 C 316.724 240.353,318.061 234.400,317.376 234.400 C 317.154 234.400,316.737 235.390,316.449 236.600 M123.265 239.879 C 122.789 240.768,122.414 241.968,122.432 242.547 C 122.450 243.126,123.018 242.578,123.695 241.329 C 124.371 240.080,124.746 238.880,124.527 238.661 C 124.309 238.442,123.740 238.990,123.265 239.879 M343.774 239.747 C 343.562 240.106,343.167 241.660,342.896 243.200 L 342.405 246.000 343.605 242.870 C 344.675 240.083,344.785 238.036,343.774 239.747 M51.200 245.397 C 51.200 246.851,54.597 256.069,54.989 255.678 C 55.215 255.452,54.815 253.804,54.100 252.017 C 53.385 250.230,52.800 248.076,52.800 247.231 C 52.800 246.386,52.440 245.472,52.000 245.200 C 51.560 244.928,51.200 245.017,51.200 245.397 M119.752 248.090 C 118.968 249.900,118.441 251.724,118.582 252.145 C 118.722 252.565,119.607 251.085,120.549 248.855 C 121.492 246.625,122.018 244.800,121.720 244.800 C 121.422 244.800,120.536 246.281,119.752 248.090 M312.037 247.931 C 311.545 248.850,311.478 249.600,311.886 249.600 C 312.708 249.600,313.844 247.177,313.284 246.617 C 313.089 246.422,312.528 247.014,312.037 247.931 M340.812 248.200 C 340.822 249.656,340.973 249.770,341.600 248.800 C 342.602 247.249,342.602 246.400,341.600 246.400 C 341.160 246.400,340.806 247.210,340.812 248.200 M309.878 251.685 C 309.570 252.518,308.392 254.460,307.260 256.000 C 306.102 257.576,305.810 258.324,306.592 257.710 C 308.439 256.261,311.507 251.240,310.910 250.643 C 310.650 250.384,310.186 250.853,309.878 251.685 M339.200 251.135 C 339.200 251.539,338.959 252.498,338.664 253.266 C 338.327 254.144,338.440 254.470,338.967 254.144 C 340.073 253.460,340.856 250.400,339.925 250.400 C 339.526 250.400,339.200 250.731,339.200 251.135 M55.200 257.897 C 55.200 258.741,59.115 266.666,59.154 265.902 C 59.209 264.828,56.082 257.600,55.563 257.600 C 55.363 257.600,55.200 257.734,55.200 257.897 M115.222 259.541 C 114.034 262.668,114.269 263.160,115.695 260.529 C 116.371 259.280,116.727 258.060,116.485 257.818 C 116.243 257.576,115.675 258.351,115.222 259.541 M297.639 266.619 C 293.480 270.676,291.140 273.305,292.439 272.460 C 295.787 270.284,306.760 259.076,305.400 259.221 C 305.290 259.233,301.797 262.562,297.639 266.619 M125.370 261.800 C 125.141 262.790,124.584 264.770,124.133 266.200 C 123.644 267.748,123.613 268.800,124.056 268.800 C 124.465 268.800,124.800 268.121,124.800 267.292 C 124.800 264.983,126.820 260.695,127.582 261.387 C 127.953 261.724,127.998 261.550,127.681 261.000 C 126.800 259.470,125.832 259.805,125.370 261.800 M128.800 262.173 C 128.800 262.548,129.880 263.493,131.200 264.273 C 132.520 265.052,133.600 265.515,133.600 265.300 C 133.600 265.085,132.520 264.140,131.200 263.200 C 129.880 262.260,128.800 261.798,128.800 262.173 M332.800 263.257 C 332.800 263.729,332.260 264.654,331.600 265.314 C 330.940 265.974,330.411 266.939,330.425 267.457 C 330.451 268.412,332.277 266.365,333.687 263.800 C 334.196 262.873,334.177 262.400,333.628 262.400 C 333.173 262.400,332.800 262.786,332.800 263.257 M59.418 267.800 C 59.590 268.130,60.362 269.779,61.134 271.465 C 61.905 273.151,62.703 274.364,62.906 274.161 C 63.307 273.760,60.071 267.200,59.472 267.200 C 59.270 267.200,59.246 267.470,59.418 267.800 M111.222 269.941 C 109.969 273.238,110.369 274.369,111.706 271.307 C 112.352 269.826,112.692 268.426,112.463 268.196 C 112.233 267.966,111.675 268.751,111.222 269.941 M327.977 270.526 C 327.329 271.476,325.729 273.546,324.419 275.126 C 322.696 277.206,322.554 277.558,323.907 276.400 C 326.469 274.207,330.693 268.800,329.844 268.800 C 329.464 268.800,328.624 269.577,327.977 270.526 M140.800 270.254 C 140.800 271.039,145.596 273.870,146.090 273.377 C 146.298 273.169,145.193 272.246,143.634 271.326 C 142.075 270.406,140.800 269.924,140.800 270.254 M122.175 272.270 C 121.613 273.698,124.635 277.224,125.599 276.266 C 125.818 276.048,125.410 275.440,124.692 274.915 C 123.974 274.390,123.244 273.249,123.070 272.380 C 122.770 270.887,122.721 270.881,122.175 272.270 M286.800 275.714 L 284.400 277.770 287.000 276.312 C 288.430 275.511,289.600 274.573,289.600 274.228 C 289.600 273.350,289.493 273.407,286.800 275.714 M150.400 275.924 C 150.400 276.588,153.682 277.785,154.168 277.298 C 154.300 277.167,153.505 276.649,152.403 276.147 C 151.302 275.645,150.400 275.545,150.400 275.924 M129.181 279.508 C 130.931 281.046,132.504 282.163,132.676 281.990 C 133.122 281.544,131.207 279.822,128.400 278.145 C 126.476 276.996,126.632 277.267,129.181 279.508 M319.596 280.005 C 318.797 280.888,318.318 281.785,318.532 281.999 C 318.746 282.213,319.702 281.491,320.656 280.394 C 322.708 278.034,321.711 277.668,319.596 280.005 M158.400 279.955 C 158.400 280.688,162.373 281.894,162.935 281.331 C 163.126 281.141,162.183 280.602,160.841 280.134 C 159.498 279.666,158.400 279.585,158.400 279.955 M279.199 280.499 L 277.200 281.667 279.200 281.134 C 281.428 280.540,282.029 280.162,281.532 279.665 C 281.348 279.481,280.298 279.856,279.199 280.499 M107.791 280.547 C 107.587 280.906,107.206 282.280,106.944 283.600 C 106.469 285.988,106.473 285.986,107.673 283.307 C 108.720 280.972,108.815 278.736,107.791 280.547 M67.913 283.800 C 69.300 286.322,71.149 288.419,71.175 287.498 C 71.189 287.002,70.660 286.148,70.000 285.600 C 69.340 285.052,68.800 284.108,68.800 283.502 C 68.800 282.896,68.427 282.400,67.972 282.400 C 67.423 282.400,67.404 282.873,67.913 283.800 M135.572 284.150 C 139.318 287.072,144.801 290.422,144.791 289.782 C 144.783 289.220,135.629 283.095,134.000 282.562 C 133.560 282.417,134.267 283.132,135.572 284.150 M168.440 283.910 C 168.858 284.301,170.100 284.856,171.200 285.143 L 173.200 285.667 171.200 284.462 C 168.971 283.119,167.218 282.768,168.440 283.910 M271.199 284.499 L 269.200 285.667 271.200 285.134 C 273.428 284.540,274.029 284.162,273.532 283.665 C 273.348 283.481,272.298 283.856,271.199 284.499 M174.800 286.400 C 175.072 286.840,175.834 287.200,176.494 287.200 C 177.154 287.200,177.472 286.840,177.200 286.400 C 176.928 285.960,176.166 285.600,175.506 285.600 C 174.846 285.600,174.528 285.960,174.800 286.400 M311.178 287.754 C 310.090 288.498,309.020 289.308,308.800 289.554 C 307.961 290.490,301.673 295.200,301.262 295.200 C 301.025 295.200,298.861 296.460,296.454 298.000 C 294.047 299.540,291.700 300.800,291.238 300.800 C 290.777 300.800,290.400 301.169,290.400 301.621 C 290.400 303.186,305.392 294.013,311.200 288.893 C 314.276 286.182,314.266 285.640,311.178 287.754 M105.383 287.683 C 105.063 288.004,104.811 289.017,104.824 289.933 C 104.847 291.472,104.912 291.490,105.681 290.170 C 106.576 288.632,106.347 286.720,105.383 287.683 M180.000 287.980 C 180.000 288.594,185.680 289.787,186.187 289.280 C 186.336 289.131,185.005 288.640,183.229 288.190 C 181.453 287.739,180.000 287.645,180.000 287.980 M260.000 288.499 L 257.200 289.586 260.000 289.100 C 262.870 288.601,263.720 288.223,263.133 287.706 C 262.950 287.545,261.540 287.902,260.000 288.499 M72.800 291.200 C 73.740 292.520,74.685 293.600,74.900 293.600 C 75.115 293.600,74.652 292.520,73.873 291.200 C 73.093 289.880,72.148 288.800,71.773 288.800 C 71.398 288.800,71.860 289.880,72.800 291.200 M189.200 290.400 C 189.472 290.840,190.483 291.194,191.447 291.188 C 192.872 291.178,192.976 291.030,192.000 290.400 C 190.424 289.381,188.571 289.381,189.200 290.400 M252.000 290.400 C 251.024 291.030,251.128 291.178,252.553 291.188 C 253.517 291.194,254.528 290.840,254.800 290.400 C 255.429 289.381,253.576 289.381,252.000 290.400 M145.600 290.721 C 145.600 290.898,146.860 291.785,148.400 292.694 C 149.940 293.603,151.200 294.076,151.200 293.746 C 151.200 293.415,150.154 292.527,148.877 291.772 C 146.576 290.413,145.600 290.100,145.600 290.721 M196.400 291.872 C 196.840 292.286,200.440 292.820,204.400 293.059 C 210.605 293.433,210.937 293.395,206.800 292.783 C 204.160 292.393,200.560 291.859,198.800 291.596 C 196.784 291.295,195.896 291.397,196.400 291.872 M239.200 292.444 L 232.400 293.472 239.600 293.048 C 243.560 292.816,247.142 292.305,247.560 291.913 C 248.461 291.068,248.197 291.084,239.200 292.444 M103.200 295.200 C 102.702 297.049,102.475 298.742,102.695 298.962 C 102.915 299.182,103.502 297.849,104.000 296.000 C 104.498 294.151,104.725 292.458,104.505 292.238 C 104.285 292.018,103.698 293.351,103.200 295.200 M78.420 298.600 C 80.265 300.910,82.461 303.665,83.299 304.722 C 84.137 305.779,84.975 306.492,85.162 306.305 C 85.348 306.118,84.072 304.353,82.324 302.383 C 80.577 300.412,78.542 297.810,77.801 296.600 C 77.061 295.390,76.142 294.400,75.759 294.400 C 75.377 294.400,76.574 296.290,78.420 298.600 M155.115 296.428 C 157.048 297.533,158.793 298.274,158.992 298.075 C 159.378 297.688,153.300 294.393,152.232 294.410 C 151.884 294.415,153.182 295.323,155.115 296.428 M161.153 299.640 C 162.873 300.925,164.336 301.191,163.660 300.097 C 163.421 299.710,162.409 299.188,161.412 298.936 C 159.664 298.496,159.655 298.520,161.153 299.640 M101.383 301.283 C 101.063 301.604,100.823 302.797,100.851 303.933 L 100.901 306.000 101.674 304.069 C 102.506 301.987,102.333 300.333,101.383 301.283 M168.400 303.020 C 168.840 303.460,170.100 304.081,171.200 304.400 C 172.533 304.787,172.933 304.713,172.400 304.180 C 171.960 303.740,170.700 303.119,169.600 302.800 C 168.267 302.413,167.867 302.487,168.400 303.020 M286.484 303.268 C 285.430 303.689,284.768 304.235,285.013 304.480 C 285.258 304.725,286.480 304.371,287.729 303.695 C 290.242 302.333,289.477 302.071,286.484 303.268 M99.637 307.400 C 99.465 307.950,99.109 309.840,98.846 311.600 C 98.244 315.625,99.567 313.668,100.334 309.400 C 100.836 306.602,100.336 305.165,99.637 307.400 M178.400 307.092 C 180.348 308.252,183.717 309.095,182.800 308.193 C 182.360 307.761,180.920 307.175,179.600 306.892 C 178.033 306.557,177.617 306.626,178.400 307.092 M277.200 306.970 C 276.320 307.182,275.240 307.721,274.800 308.168 C 274.260 308.716,274.650 308.789,276.000 308.393 C 280.142 307.178,281.111 306.030,277.200 306.970 M90.800 312.800 C 96.005 318.045,98.400 319.543,98.400 317.553 C 98.400 317.087,98.049 316.922,97.620 317.188 C 97.191 317.453,94.484 315.314,91.605 312.435 C 88.726 309.556,86.117 307.200,85.807 307.200 C 85.497 307.200,87.744 309.720,90.800 312.800 M184.800 309.600 C 186.351 310.602,187.200 310.602,187.200 309.600 C 187.200 309.160,186.390 308.806,185.400 308.812 C 183.944 308.822,183.830 308.973,184.800 309.600 M269.200 309.600 C 268.571 310.619,270.424 310.619,272.000 309.600 C 272.976 308.970,272.872 308.822,271.447 308.812 C 270.483 308.806,269.472 309.160,269.200 309.600 M190.000 311.082 C 192.457 312.173,197.447 313.027,196.000 312.108 C 195.340 311.689,193.360 311.127,191.600 310.858 C 189.416 310.526,188.908 310.596,190.000 311.082 M262.800 310.970 C 261.920 311.182,260.840 311.706,260.400 312.134 C 259.567 312.945,262.921 312.345,266.000 311.132 L 267.600 310.501 266.000 310.544 C 265.120 310.567,263.680 310.759,262.800 310.970 M199.600 313.600 C 201.823 314.555,203.390 314.555,202.800 313.600 C 202.528 313.160,201.337 312.825,200.153 312.856 C 198.231 312.906,198.171 312.986,199.600 313.600 M252.400 313.600 C 251.831 314.520,253.127 314.520,256.000 313.600 C 257.910 312.988,257.885 312.956,255.447 312.880 C 254.043 312.836,252.672 313.160,252.400 313.600 M209.287 315.354 C 213.269 316.062,240.061 316.053,244.800 315.341 C 246.780 315.043,238.899 314.800,227.287 314.800 C 215.675 314.800,207.575 315.049,209.287 315.354 " stroke="none" fill="#f7faf2" fill-rule="evenodd"></path></g></svg>
