<?xml version="1.0" standalone="no"?>
<!DOCTYPE svg PUBLIC "-//W3C//DTD SVG 20010904//EN"
 "http://www.w3.org/TR/2001/REC-SVG-20010904/DTD/svg10.dtd">
<svg version="1.0" xmlns="http://www.w3.org/2000/svg"
 width="213.000000pt" height="205.000000pt" viewBox="0 0 213.000000 205.000000"
 preserveAspectRatio="xMidYMid meet">
<metadata>
Created by potrace 1.13, written by Peter Selinger 2001-2015
</metadata>
<g transform="translate(0.000000,205.000000) scale(0.100000,-0.100000)"
fill="#000000" stroke="none">
<path d="M950 1918 c-94 -13 -260 -71 -343 -120 -89 -52 -258 -219 -310 -304
-130 -216 -169 -489 -102 -719 94 -323 320 -550 640 -640 228 -65 492 -30 700
91 103 61 264 220 321 319 87 150 127 298 127 470 0 129 -14 208 -60 330 -45
120 -100 203 -208 310 -118 119 -200 171 -347 219 -156 52 -274 65 -418 44z
m335 -233 c44 -14 106 -40 137 -57 103 -55 222 -177 277 -286 l21 -42 -295 0
-295 0 0 89 c0 49 -3 96 -6 105 -5 13 -25 16 -115 16 l-109 0 2 -247 3 -248
99 -3 c64 -2 103 1 112 9 10 8 14 37 14 105 l0 94 310 0 309 0 12 -42 c6 -24
12 -81 13 -128 l1 -85 -452 -3 c-409 -2 -453 -4 -453 -18 0 -15 -13 -16 -112
-10 -62 3 -176 6 -252 6 l-139 0 6 103 c12 230 118 422 305 555 54 38 176 89
256 108 96 22 253 13 351 -21z m-774 -842 c192 -103 193 -104 264 -114 119
-17 168 -68 134 -143 -11 -24 -37 -39 -92 -50 -24 -6 -58 -49 -46 -60 2 -2
148 -5 324 -7 252 -3 320 -1 319 9 -1 6 -2 19 -3 27 0 9 -20 24 -43 34 -67 29
-93 63 -93 121 0 88 90 176 220 216 58 17 262 41 271 31 12 -12 -28 -139 -70
-222 -52 -105 -178 -234 -281 -287 -122 -63 -203 -83 -340 -83 -137 0 -218 20
-340 83 -96 50 -227 182 -277 277 -44 86 -92 235 -75 235 2 0 59 -30 128 -67z"/>
</g>
</svg>
