<svg id="svg" version="1.1" width="500" height="500" xmlns="http://www.w3.org/2000/svg" xmlns:xlink="http://www.w3.org/1999/xlink" style="display: block;"><g id="svgg"><path id="path0" d="M0.000 200.000 L 0.000 400.000 200.000 400.000 L 400.000 400.000 400.000 200.000 L 400.000 0.000 200.000 0.000 L 0.000 0.000 0.000 200.000 M120.611 74.945 L 120.821 101.490 135.011 115.745 L 149.200 130.000 175.600 130.220 C 199.144 130.416,202.108 130.584,203.000 131.773 C 204.667 133.996,204.425 199.461,202.743 201.143 C 201.651 202.235,198.038 202.400,175.295 202.400 L 149.104 202.400 134.952 216.691 L 120.800 230.982 120.800 257.499 L 120.800 284.017 85.400 283.808 L 50.000 283.600 49.807 249.200 C 49.691 228.384,49.916 214.326,50.378 213.600 C 51.028 212.578,55.095 212.375,77.731 212.232 L 104.320 212.063 118.160 198.240 L 132.000 184.417 132.000 165.979 L 132.000 147.540 118.148 133.770 L 104.296 120.000 77.441 120.000 L 50.587 120.000 50.104 118.200 C 49.470 115.833,49.455 50.908,50.089 49.257 C 50.527 48.115,54.174 48.005,85.489 48.192 L 120.400 48.400 120.611 74.945 M74.749 73.844 C 74.529 74.419,74.450 79.369,74.574 84.844 L 74.800 94.800 85.200 94.800 L 95.600 94.800 95.823 83.800 L 96.045 72.800 85.597 72.800 C 77.741 72.800,75.050 73.059,74.749 73.844 M320.800 199.138 C 322.780 199.687,325.300 200.516,326.400 200.980 C 331.234 203.020,334.019 204.443,334.267 205.000 C 334.413 205.330,334.879 205.600,335.300 205.600 C 338.340 205.600,350.057 218.910,353.083 225.800 C 353.807 227.450,354.940 230.024,355.600 231.521 C 356.260 233.017,356.800 234.976,356.800 235.874 C 356.800 236.771,357.115 237.700,357.500 237.938 C 360.016 239.493,360.019 274.905,357.503 276.460 C 357.116 276.699,356.800 277.449,356.800 278.126 C 356.800 278.804,356.260 280.583,355.600 282.079 C 354.940 283.576,353.812 286.150,353.094 287.800 C 351.241 292.060,345.387 300.132,342.164 302.873 C 337.156 307.133,336.144 307.869,332.660 309.783 C 320.459 316.486,302.134 317.609,292.081 312.269 C 290.145 311.241,288.240 310.400,287.846 310.400 C 287.452 310.400,286.160 309.500,284.973 308.400 C 280.829 304.558,280.841 304.501,280.612 330.200 L 280.400 354.000 264.800 354.000 L 249.200 354.000 248.980 278.800 C 248.859 237.440,248.958 202.782,249.200 201.783 L 249.639 199.966 265.020 200.183 L 280.400 200.400 280.646 203.800 C 280.860 206.761,283.200 209.143,283.200 206.400 C 283.200 205.960,283.740 205.600,284.400 205.600 C 285.060 205.600,285.600 205.322,285.600 204.982 C 285.600 204.054,291.895 201.081,298.400 198.937 C 302.696 197.521,315.383 197.635,320.800 199.138 M292.155 228.634 C 287.554 230.981,282.400 235.567,282.400 237.312 C 282.400 237.911,282.040 238.400,281.600 238.400 C 281.090 238.400,280.800 245.067,280.800 256.800 C 280.800 268.533,281.090 275.200,281.600 275.200 C 282.040 275.200,282.400 275.654,282.400 276.208 C 282.400 278.729,290.761 285.600,293.828 285.600 C 294.971 285.600,296.128 285.960,296.400 286.400 C 297.612 288.361,307.573 287.041,313.200 284.173 C 329.190 276.025,332.009 246.907,318.130 233.262 C 310.923 226.176,300.583 224.334,292.155 228.634 M74.758 238.620 C 74.533 239.208,74.450 244.169,74.574 249.644 L 74.800 259.600 85.200 259.600 L 95.600 259.600 95.600 248.800 L 95.600 238.000 85.384 237.776 C 77.441 237.602,75.077 237.790,74.758 238.620 " stroke="none" fill="#222222" fill-rule="evenodd"></path><path id="path1" d="M50.766 50.601 C 50.555 51.151,50.480 66.541,50.600 84.801 L 50.818 118.000 51.009 84.267 C 51.157 58.173,51.426 50.442,52.200 50.130 C 52.983 49.814,52.978 49.713,52.175 49.663 C 51.611 49.628,50.977 50.050,50.766 50.601 M82.200 96.590 C 84.510 96.751,88.290 96.751,90.600 96.590 C 92.910 96.428,91.020 96.296,86.400 96.296 C 81.780 96.296,79.890 96.428,82.200 96.590 M64.600 118.199 C 71.750 118.331,83.450 118.331,90.600 118.199 C 97.750 118.066,91.900 117.957,77.600 117.957 C 63.300 117.957,57.450 118.066,64.600 118.199 M201.600 165.839 L 201.999 199.600 202.209 166.449 C 202.324 148.216,202.144 133.024,201.809 132.688 C 201.474 132.353,201.380 147.271,201.600 165.839 M133.142 166.400 C 133.142 176.300,133.257 180.350,133.397 175.400 C 133.538 170.450,133.538 162.350,133.397 157.400 C 133.257 152.450,133.142 156.500,133.142 166.400 M299.600 199.403 C 297.840 199.844,294.500 201.059,292.178 202.102 C 289.856 203.146,287.636 204.000,287.245 204.000 C 286.853 204.000,286.413 204.277,286.267 204.615 C 285.253 206.950,281.352 208.769,280.288 207.402 C 279.273 206.098,279.233 206.112,279.721 207.600 C 280.660 210.460,280.892 210.485,283.685 208.032 C 292.473 200.317,312.212 197.097,323.600 201.520 C 334.102 205.600,345.365 214.421,348.782 221.241 C 349.432 222.538,350.782 224.943,351.782 226.584 C 352.782 228.225,353.600 230.120,353.600 230.795 C 353.600 231.470,353.939 232.647,354.353 233.411 C 358.180 240.470,359.231 261.580,356.414 274.800 C 356.000 276.745,356.070 276.936,356.786 275.809 C 359.734 271.168,359.768 247.938,356.843 237.600 C 354.918 230.799,350.584 221.524,347.813 218.274 C 346.816 217.105,345.460 215.359,344.800 214.394 C 341.957 210.236,331.856 203.535,325.200 201.393 C 315.354 198.224,306.927 197.569,299.600 199.403 M163.000 200.599 C 170.150 200.731,181.850 200.731,189.000 200.599 C 196.150 200.466,190.300 200.357,176.000 200.357 C 161.700 200.357,155.850 200.466,163.000 200.599 M250.133 201.333 C 249.393 202.074,249.459 353.600,250.200 353.600 C 250.530 353.600,250.706 319.565,250.592 277.966 L 250.384 202.332 265.193 202.566 C 276.632 202.747,280.002 202.572,280.001 201.800 C 280.000 200.720,251.196 200.270,250.133 201.333 M133.991 215.400 L 120.400 229.200 134.200 215.609 C 147.021 202.982,148.362 201.600,147.791 201.600 C 147.676 201.600,141.466 207.810,133.991 215.400 M50.603 247.600 C 50.505 266.080,50.713 281.654,51.065 282.209 C 52.005 283.690,119.372 283.269,119.673 281.780 C 119.787 281.219,119.697 281.129,119.473 281.580 C 118.987 282.560,53.744 282.721,52.209 281.746 C 51.452 281.266,51.166 273.176,51.000 247.558 L 50.782 214.000 50.603 247.600 M289.895 227.970 C 285.632 230.415,280.458 235.762,279.755 238.450 C 279.166 240.704,279.642 240.369,281.654 237.112 C 285.172 231.420,290.632 227.564,297.200 226.134 C 298.251 225.905,297.977 225.756,296.400 225.700 C 295.072 225.653,292.167 226.666,289.895 227.970 M306.800 226.181 C 308.120 226.369,309.542 226.855,309.960 227.262 C 310.378 227.668,311.365 228.000,312.153 228.000 C 313.900 228.000,324.000 237.731,324.000 239.414 C 324.000 240.076,324.538 241.648,325.195 242.909 C 325.970 244.394,326.392 244.718,326.395 243.828 C 326.407 240.504,319.825 231.073,316.400 229.508 C 315.520 229.105,313.720 228.088,312.400 227.247 C 311.080 226.405,308.740 225.745,307.200 225.778 C 304.553 225.836,304.531 225.858,306.800 226.181 M326.918 248.000 C 327.739 251.685,327.767 262.064,326.965 265.600 C 326.407 268.064,326.455 268.208,327.365 266.800 C 328.796 264.587,328.782 248.980,327.347 246.800 C 326.412 245.379,326.363 245.514,326.918 248.000 M324.244 273.214 C 323.337 275.186,322.841 276.800,323.143 276.800 C 323.818 276.800,326.693 270.426,326.228 269.961 C 326.044 269.778,325.151 271.241,324.244 273.214 M280.005 275.000 C 280.002 275.990,280.360 276.800,280.800 276.800 C 281.240 276.800,281.600 277.280,281.600 277.867 C 281.600 278.453,282.920 280.253,284.533 281.867 C 286.147 283.480,287.947 284.800,288.533 284.800 C 289.120 284.800,289.600 285.160,289.600 285.600 C 289.600 286.040,290.085 286.400,290.677 286.400 C 291.269 286.400,292.913 286.978,294.330 287.685 C 297.506 289.270,308.171 288.988,309.774 287.277 C 310.632 286.362,310.472 286.284,308.800 286.799 C 297.975 290.137,286.341 285.336,281.152 275.389 C 280.082 273.338,280.010 273.313,280.005 275.000 M318.825 280.774 C 317.136 282.504,314.639 284.469,313.277 285.141 C 311.915 285.814,311.275 286.372,311.856 286.382 C 314.049 286.420,323.275 279.008,322.276 278.010 C 322.067 277.801,320.514 279.045,318.825 280.774 M354.381 280.892 C 353.228 284.419,350.880 289.221,348.280 293.367 C 346.068 296.894,335.775 306.667,332.748 308.113 C 327.016 310.853,324.118 312.000,322.926 312.000 C 322.249 312.000,321.472 312.360,321.200 312.800 C 320.177 314.455,323.006 313.589,331.200 309.737 C 333.620 308.599,335.780 307.454,336.000 307.192 C 336.220 306.930,337.758 305.696,339.417 304.450 C 343.450 301.421,349.523 293.509,352.350 287.600 C 355.974 280.027,356.206 279.417,355.857 278.370 C 355.676 277.827,355.012 278.962,354.381 280.892 M280.012 305.400 C 280.021 306.400,280.206 306.514,280.660 305.799 C 281.149 305.029,281.663 305.121,282.889 306.199 C 285.121 308.163,288.000 309.734,288.000 308.989 C 288.000 308.645,286.740 307.685,285.200 306.856 C 283.660 306.027,282.400 305.045,282.400 304.674 C 282.400 304.303,281.860 304.000,281.200 304.000 C 280.540 304.000,280.006 304.630,280.012 305.400 M290.000 310.603 C 295.882 314.112,307.184 315.851,315.600 314.542 C 319.997 313.858,319.527 313.787,310.000 313.697 C 300.167 313.604,293.705 312.372,291.503 310.170 C 291.190 309.857,290.363 309.611,289.667 309.624 C 288.688 309.643,288.764 309.866,290.000 310.603 " stroke="none" fill="#9e9e9e" fill-rule="evenodd"></path><path id="path2" d="M300.382 200.351 C 294.470 201.530,287.340 204.823,283.607 208.101 C 280.500 210.829,279.841 210.361,279.680 205.310 L 279.600 202.800 264.996 202.582 L 250.392 202.364 250.596 277.782 L 250.800 353.200 264.902 353.418 C 281.929 353.681,279.975 357.103,279.989 327.000 C 279.999 307.094,280.161 304.000,281.200 304.000 C 281.860 304.000,282.400 304.303,282.400 304.674 C 282.400 305.045,283.660 306.027,285.200 306.856 C 286.740 307.685,288.000 308.642,288.000 308.982 C 288.000 309.322,288.660 309.600,289.467 309.600 C 290.273 309.600,291.190 309.857,291.503 310.170 C 294.460 313.127,319.621 315.355,321.200 312.800 C 321.472 312.360,322.249 312.000,322.926 312.000 C 324.118 312.000,327.016 310.853,332.748 308.113 C 340.670 304.327,351.089 290.942,354.632 280.000 C 355.273 278.020,356.263 274.960,356.831 273.200 C 359.392 265.274,357.804 239.889,354.342 233.411 C 353.934 232.647,353.600 231.470,353.600 230.795 C 353.600 230.120,352.782 228.225,351.782 226.584 C 350.782 224.943,349.432 222.538,348.782 221.241 C 345.366 214.421,333.968 205.500,323.600 201.529 C 318.256 199.483,307.481 198.936,300.382 200.351 M312.400 227.247 C 313.720 228.088,315.520 229.105,316.400 229.508 C 322.574 232.330,328.800 246.033,328.800 256.800 C 328.800 263.378,324.939 276.800,323.046 276.800 C 322.691 276.800,322.400 277.312,322.400 277.938 C 322.400 279.193,317.128 283.989,314.237 285.363 C 308.182 288.242,306.110 288.800,301.479 288.795 C 298.539 288.792,295.435 288.287,294.109 287.595 C 292.848 286.938,291.318 286.400,290.709 286.400 C 290.099 286.400,289.600 286.040,289.600 285.600 C 289.600 285.160,289.120 284.800,288.533 284.800 C 287.184 284.800,281.600 279.270,281.600 277.933 C 281.600 277.383,281.250 276.813,280.821 276.667 C 279.112 276.081,279.713 237.849,281.470 235.396 C 287.921 226.393,304.293 222.079,312.400 227.247 " stroke="none" fill="#ffffff" fill-rule="evenodd"></path><path id="path3" d="M50.089 49.257 C 49.455 50.908,49.470 115.833,50.104 118.200 L 50.587 120.000 77.441 120.000 L 104.296 120.000 118.148 133.770 L 132.000 147.540 132.000 165.979 L 132.000 184.417 118.160 198.240 L 104.320 212.063 77.731 212.232 C 55.095 212.375,51.028 212.578,50.378 213.600 C 49.916 214.326,49.691 228.384,49.807 249.200 L 50.000 283.600 85.400 283.808 L 120.800 284.017 120.800 257.499 L 120.800 230.982 134.952 216.691 L 149.104 202.400 175.295 202.400 C 198.038 202.400,201.651 202.235,202.743 201.143 C 204.425 199.461,204.667 133.996,203.000 131.773 C 202.108 130.584,199.144 130.416,175.600 130.220 L 149.200 130.000 135.011 115.745 L 120.821 101.490 120.611 74.945 L 120.400 48.400 85.489 48.192 C 54.174 48.005,50.527 48.115,50.089 49.257 M120.000 76.465 L 120.400 102.929 134.716 117.265 L 149.032 131.600 175.516 132.000 L 202.000 132.400 202.222 164.800 C 202.345 182.620,202.248 198.010,202.007 199.000 L 201.570 200.800 175.434 200.800 L 149.298 200.800 134.660 215.361 L 120.021 229.922 119.811 256.361 L 119.600 282.800 85.653 283.009 C 59.026 283.173,51.567 283.000,51.065 282.209 C 50.713 281.654,50.419 266.170,50.412 247.800 L 50.400 214.400 76.854 214.400 L 103.309 214.400 118.054 199.748 L 132.800 185.096 132.800 166.107 L 132.800 147.117 118.336 132.759 L 103.873 118.400 78.402 118.400 C 64.393 118.400,52.361 118.181,51.665 117.914 C 50.340 117.406,49.636 51.431,50.942 50.125 C 51.240 49.827,66.810 49.677,85.542 49.792 L 119.600 50.000 120.000 76.465 M73.779 83.800 L 74.000 95.600 85.701 95.821 C 99.488 96.081,98.378 97.116,98.378 84.000 C 98.378 70.938,99.519 72.000,85.485 72.000 L 73.557 72.000 73.779 83.800 M95.823 83.800 L 95.600 94.800 85.200 94.800 L 74.800 94.800 74.574 84.844 C 74.276 71.703,73.272 72.800,85.597 72.800 L 96.045 72.800 95.823 83.800 M299.200 198.921 L 296.400 200.052 299.200 199.449 C 302.840 198.666,315.606 198.673,319.200 199.460 C 321.903 200.052,321.890 200.031,318.800 198.849 C 314.765 197.305,303.097 197.348,299.200 198.921 M249.200 201.783 C 248.958 202.782,248.859 237.440,248.980 278.800 L 249.200 354.000 264.800 354.000 L 280.400 354.000 280.612 330.200 C 280.753 314.331,281.102 306.400,281.659 306.400 C 282.119 306.400,282.248 306.002,281.947 305.515 C 280.457 303.104,280.024 308.640,280.012 330.200 L 280.000 353.600 264.796 353.600 L 249.592 353.600 249.796 277.400 L 250.000 201.200 265.000 200.982 L 280.000 200.765 280.012 203.782 C 280.030 208.274,280.916 209.220,283.269 207.261 C 284.331 206.377,284.750 205.641,284.200 205.627 C 283.650 205.612,283.200 205.960,283.200 206.400 C 283.200 209.143,280.860 206.761,280.646 203.800 L 280.400 200.400 265.020 200.183 L 249.639 199.966 249.200 201.783 M288.447 202.825 C 286.471 204.320,287.771 204.303,290.400 202.800 C 291.560 202.137,291.896 201.655,291.200 201.654 C 290.540 201.652,289.301 202.179,288.447 202.825 M329.091 202.805 C 332.009 204.327,332.750 204.336,330.753 202.825 C 329.899 202.179,328.660 201.642,328.000 201.630 C 327.340 201.619,327.831 202.148,329.091 202.805 M337.200 207.668 C 338.520 208.774,340.320 210.056,341.200 210.516 C 342.576 211.236,341.566 210.242,337.034 206.416 C 336.502 205.967,335.782 205.613,335.434 205.629 C 335.085 205.645,335.880 206.562,337.200 207.668 M344.777 214.600 C 345.239 215.150,346.733 216.860,348.096 218.400 L 350.575 221.200 347.952 217.400 C 346.509 215.310,345.016 213.600,344.633 213.600 C 344.250 213.600,344.315 214.050,344.777 214.600 M350.400 221.924 C 350.400 222.592,353.897 228.770,354.138 228.529 C 354.470 228.197,351.274 221.600,350.781 221.600 C 350.572 221.600,350.400 221.746,350.400 221.924 M299.800 226.165 C 300.790 226.355,302.410 226.355,303.400 226.165 C 304.390 225.974,303.580 225.818,301.600 225.818 C 299.620 225.818,298.810 225.974,299.800 226.165 M289.477 229.025 C 288.749 229.561,287.383 230.540,286.440 231.200 C 285.497 231.860,284.147 233.300,283.438 234.400 C 282.475 235.895,282.881 235.694,285.046 233.604 C 286.638 232.066,289.118 230.176,290.558 229.404 C 291.997 228.632,292.641 228.011,291.988 228.025 C 291.334 228.039,290.205 228.489,289.477 229.025 M318.400 233.136 C 319.500 234.477,320.601 235.760,320.846 235.987 C 321.092 236.214,321.902 237.290,322.646 238.378 C 323.391 239.466,324.000 239.941,324.000 239.434 C 324.000 238.927,322.290 236.753,320.200 234.605 C 318.110 232.456,317.300 231.795,318.400 233.136 M73.951 237.039 C 73.732 237.610,73.653 243.100,73.776 249.239 L 74.000 260.400 84.609 260.623 C 99.001 260.926,98.400 261.406,98.400 249.624 C 98.400 244.388,98.049 239.181,97.620 238.052 L 96.840 236.000 85.595 236.000 C 77.114 236.000,74.252 236.255,73.951 237.039 M95.600 248.800 L 95.600 259.600 85.200 259.600 L 74.800 259.600 74.574 249.644 C 74.274 236.438,73.297 237.511,85.384 237.776 L 95.600 238.000 95.600 248.800 M356.856 238.153 C 357.037 240.229,358.288 241.991,358.344 240.247 C 358.375 239.283,358.040 238.272,357.600 238.000 C 357.160 237.728,356.825 237.797,356.856 238.153 M280.341 256.400 C 280.342 266.080,280.457 269.930,280.598 264.956 C 280.738 259.981,280.738 252.061,280.597 247.356 C 280.455 242.650,280.340 246.720,280.341 256.400 M326.164 248.000 C 326.878 252.342,326.863 261.458,326.134 266.400 C 325.645 269.717,325.695 269.654,326.768 265.600 C 328.255 259.980,328.249 253.485,326.751 248.400 L 325.573 244.400 326.164 248.000 M358.930 250.400 C 359.195 253.260,359.544 255.750,359.706 255.933 C 360.337 256.649,359.846 248.307,359.168 246.800 C 358.703 245.768,358.619 247.048,358.930 250.400 M359.335 259.600 C 359.251 260.920,358.997 263.440,358.771 265.200 C 358.412 267.987,358.469 268.146,359.216 266.431 C 359.688 265.347,359.942 262.827,359.781 260.831 C 359.599 258.570,359.431 258.106,359.335 259.600 M356.901 275.503 C 356.297 277.575,356.027 279.494,356.301 279.768 C 356.576 280.042,356.800 279.559,356.800 278.693 C 356.800 277.828,357.190 276.730,357.668 276.252 C 358.145 275.775,358.415 274.564,358.268 273.560 C 358.068 272.197,357.723 272.687,356.901 275.503 M323.200 274.231 C 323.200 275.247,315.573 283.098,313.172 284.553 C 312.308 285.077,311.999 285.527,312.487 285.553 C 314.652 285.668,324.851 274.984,323.687 273.821 C 323.419 273.553,323.200 273.737,323.200 274.231 M283.305 278.971 C 284.390 280.565,288.801 284.490,288.799 283.858 C 288.799 283.716,287.292 282.160,285.450 280.400 C 283.608 278.640,282.643 277.997,283.305 278.971 M352.123 288.123 C 351.153 289.940,350.524 291.590,350.724 291.791 C 350.924 291.991,351.831 290.617,352.738 288.738 C 353.646 286.860,354.276 285.209,354.138 285.071 C 353.999 284.933,353.093 286.306,352.123 288.123 M295.092 286.831 C 298.560 288.337,304.339 288.304,308.400 286.755 C 310.649 285.898,310.887 285.689,309.200 286.053 C 304.273 287.117,297.426 287.346,296.555 286.475 C 296.074 285.994,294.942 285.614,294.040 285.631 C 292.838 285.654,293.118 285.975,295.092 286.831 M346.399 297.201 C 344.532 299.622,341.698 302.713,340.102 304.070 C 337.878 305.961,337.761 306.165,339.600 304.942 C 342.292 303.152,345.081 300.245,348.370 295.800 C 351.838 291.114,350.194 292.282,346.399 297.201 M285.886 309.200 C 286.546 309.860,287.540 310.400,288.096 310.400 C 288.663 310.400,288.424 309.885,287.553 309.225 C 285.515 307.684,284.352 307.666,285.886 309.200 M293.891 313.205 C 295.152 313.862,296.772 314.386,297.491 314.369 C 298.211 314.351,297.589 313.811,296.108 313.169 C 292.588 311.640,290.943 311.667,293.891 313.205 M322.400 313.250 C 320.860 313.833,320.189 314.330,320.908 314.355 C 321.628 314.380,323.428 313.874,324.908 313.231 C 328.240 311.785,326.233 311.800,322.400 313.250 M302.230 315.344 C 302.983 315.643,305.940 315.888,308.800 315.888 C 311.660 315.888,314.617 315.643,315.370 315.344 C 316.124 315.045,313.167 314.800,308.800 314.800 C 304.433 314.800,301.476 315.045,302.230 315.344 " stroke="none" fill="#8f6820" fill-rule="evenodd"></path><path id="path4" d="M52.200 50.130 C 51.422 50.444,51.200 57.989,51.200 84.067 L 51.200 117.600 77.317 117.600 L 103.435 117.600 118.317 132.363 L 133.200 147.125 133.445 164.527 C 133.755 186.453,135.190 183.086,118.352 199.939 L 103.903 214.400 77.551 214.400 L 51.200 214.400 51.200 247.914 C 51.200 277.737,51.339 281.482,52.465 281.914 C 55.728 283.166,119.017 282.430,119.514 281.135 C 119.781 280.439,120.000 268.493,120.000 254.588 L 120.000 229.307 133.400 215.790 C 150.704 198.337,146.178 200.000,176.369 200.000 L 201.617 200.000 201.409 166.200 L 201.200 132.400 175.200 132.190 L 149.200 131.980 134.600 117.398 L 120.000 102.816 120.000 77.168 C 120.000 58.286,119.747 51.267,119.040 50.560 C 118.078 49.598,54.532 49.189,52.200 50.130 M98.053 73.928 C 98.739 76.660,98.136 94.936,97.333 95.736 C 96.518 96.548,76.952 96.627,75.000 95.825 C 73.757 95.315,73.600 93.944,73.600 83.625 L 73.600 72.000 85.585 72.000 L 97.570 72.000 98.053 73.928 M97.572 237.547 C 98.027 238.398,98.400 243.606,98.400 249.119 C 98.400 261.483,99.066 260.928,84.609 260.623 L 74.000 260.400 73.776 249.239 C 73.653 243.100,73.732 237.610,73.951 237.039 C 74.685 235.125,96.527 235.596,97.572 237.547 " stroke="none" fill="#ffad1b" fill-rule="evenodd"></path></g></svg>
